solid OpenSCAD_Model
  facet normal 1 0 0
    outer loop
      vertex 2.125 20 70
      vertex 2.125 4.99013 56.064
      vertex 2.125 20 41.5
    endloop
  endfacet
  facet normal 1 0 0
    outer loop
      vertex 2.125 20 70
      vertex 2.125 4.91144 56.6869
      vertex 2.125 4.99013 56.064
    endloop
  endfacet
  facet normal 1 0 0
    outer loop
      vertex 2.125 20 70
      vertex 2.125 4.75528 57.2951
      vertex 2.125 4.91144 56.6869
    endloop
  endfacet
  facet normal 1 0 0
    outer loop
      vertex 2.125 20 70
      vertex 2.125 4.52413 57.8789
      vertex 2.125 4.75528 57.2951
    endloop
  endfacet
  facet normal 1 0 0
    outer loop
      vertex 2.125 20 70
      vertex 2.125 4.22164 58.4291
      vertex 2.125 4.52413 57.8789
    endloop
  endfacet
  facet normal 1 0 0
    outer loop
      vertex 2.125 20 70
      vertex 2.125 3.85257 58.9371
      vertex 2.125 4.22164 58.4291
    endloop
  endfacet
  facet normal 1 0 0
    outer loop
      vertex 2.125 20 70
      vertex 2.125 3.42274 59.3948
      vertex 2.125 3.85257 58.9371
    endloop
  endfacet
  facet normal 1 0 0
    outer loop
      vertex 2.125 20 70
      vertex 2.125 2.93893 59.7951
      vertex 2.125 3.42274 59.3948
    endloop
  endfacet
  facet normal 1 0 0
    outer loop
      vertex 2.125 20 70
      vertex 2.125 2.40877 60.1315
      vertex 2.125 2.93893 59.7951
    endloop
  endfacet
  facet normal 1 0 0
    outer loop
      vertex 2.125 20 70
      vertex 2.125 1.84062 60.3989
      vertex 2.125 2.40877 60.1315
    endloop
  endfacet
  facet normal 1 0 0
    outer loop
      vertex 2.125 20 70
      vertex 2.125 1.24345 60.5929
      vertex 2.125 1.84062 60.3989
    endloop
  endfacet
  facet normal 1 0 0
    outer loop
      vertex 2.125 20 70
      vertex 2.125 0.626666 60.7106
      vertex 2.125 1.24345 60.5929
    endloop
  endfacet
  facet normal 1 0 0
    outer loop
      vertex 2.125 20 70
      vertex 2.125 0 60.75
      vertex 2.125 0.626666 60.7106
    endloop
  endfacet
  facet normal 1 -0 0
    outer loop
      vertex 2.125 -20 70
      vertex 2.125 0 60.75
      vertex 2.125 20 70
    endloop
  endfacet
  facet normal 1 0 0
    outer loop
      vertex 2.125 0 60.75
      vertex 2.125 -20 70
      vertex 2.125 -0.626666 60.7106
    endloop
  endfacet
  facet normal 1 0 0
    outer loop
      vertex 2.125 -0.626666 60.7106
      vertex 2.125 -20 70
      vertex 2.125 -1.24345 60.5929
    endloop
  endfacet
  facet normal 1 0 0
    outer loop
      vertex 2.125 -4.99013 56.064
      vertex 2.125 -20 70
      vertex 2.125 -4.99013 55.436
    endloop
  endfacet
  facet normal 1 0 0
    outer loop
      vertex 2.125 -4.91144 56.6869
      vertex 2.125 -20 70
      vertex 2.125 -4.99013 56.064
    endloop
  endfacet
  facet normal 1 0 0
    outer loop
      vertex 2.125 -4.75528 57.2951
      vertex 2.125 -20 70
      vertex 2.125 -4.91144 56.6869
    endloop
  endfacet
  facet normal 1 0 0
    outer loop
      vertex 2.125 -4.52413 57.8789
      vertex 2.125 -20 70
      vertex 2.125 -4.75528 57.2951
    endloop
  endfacet
  facet normal 1 0 0
    outer loop
      vertex 2.125 -4.22164 58.4291
      vertex 2.125 -20 70
      vertex 2.125 -4.52413 57.8789
    endloop
  endfacet
  facet normal 1 0 0
    outer loop
      vertex 2.125 -3.85257 58.9371
      vertex 2.125 -20 70
      vertex 2.125 -4.22164 58.4291
    endloop
  endfacet
  facet normal 1 0 0
    outer loop
      vertex 2.125 -3.42274 59.3948
      vertex 2.125 -20 70
      vertex 2.125 -3.85257 58.9371
    endloop
  endfacet
  facet normal 1 0 0
    outer loop
      vertex 2.125 -2.93893 59.7951
      vertex 2.125 -20 70
      vertex 2.125 -3.42274 59.3948
    endloop
  endfacet
  facet normal 1 0 0
    outer loop
      vertex 2.125 -2.40877 60.1315
      vertex 2.125 -20 70
      vertex 2.125 -2.93893 59.7951
    endloop
  endfacet
  facet normal 1 0 0
    outer loop
      vertex 2.125 -1.84062 60.3989
      vertex 2.125 -20 70
      vertex 2.125 -2.40877 60.1315
    endloop
  endfacet
  facet normal 1 0 0
    outer loop
      vertex 2.125 -1.24345 60.5929
      vertex 2.125 -20 70
      vertex 2.125 -1.84062 60.3989
    endloop
  endfacet
  facet normal 1 -0 0
    outer loop
      vertex 2.125 4.99013 55.436
      vertex 2.125 20 41.5
      vertex 2.125 4.99013 56.064
    endloop
  endfacet
  facet normal 1 -0 0
    outer loop
      vertex 2.125 4.91144 54.8131
      vertex 2.125 20 41.5
      vertex 2.125 4.99013 55.436
    endloop
  endfacet
  facet normal 1 -0 0
    outer loop
      vertex 2.125 4.75528 54.2049
      vertex 2.125 20 41.5
      vertex 2.125 4.91144 54.8131
    endloop
  endfacet
  facet normal 1 -0 0
    outer loop
      vertex 2.125 4.52413 53.6211
      vertex 2.125 20 41.5
      vertex 2.125 4.75528 54.2049
    endloop
  endfacet
  facet normal 1 -0 0
    outer loop
      vertex 2.125 4.22164 53.0709
      vertex 2.125 20 41.5
      vertex 2.125 4.52413 53.6211
    endloop
  endfacet
  facet normal 1 -0 0
    outer loop
      vertex 2.125 3.85257 52.5629
      vertex 2.125 20 41.5
      vertex 2.125 4.22164 53.0709
    endloop
  endfacet
  facet normal 1 -0 0
    outer loop
      vertex 2.125 3.42274 52.1052
      vertex 2.125 20 41.5
      vertex 2.125 3.85257 52.5629
    endloop
  endfacet
  facet normal 1 -0 0
    outer loop
      vertex 2.125 2.93893 51.7049
      vertex 2.125 20 41.5
      vertex 2.125 3.42274 52.1052
    endloop
  endfacet
  facet normal 1 -0 0
    outer loop
      vertex 2.125 2.40877 51.3685
      vertex 2.125 20 41.5
      vertex 2.125 2.93893 51.7049
    endloop
  endfacet
  facet normal 1 -0 0
    outer loop
      vertex 2.125 1.84062 51.1011
      vertex 2.125 20 41.5
      vertex 2.125 2.40877 51.3685
    endloop
  endfacet
  facet normal 1 -0 0
    outer loop
      vertex 2.125 1.24345 50.9071
      vertex 2.125 20 41.5
      vertex 2.125 1.84062 51.1011
    endloop
  endfacet
  facet normal 1 -0 0
    outer loop
      vertex 2.125 0.626666 50.7894
      vertex 2.125 20 41.5
      vertex 2.125 1.24345 50.9071
    endloop
  endfacet
  facet normal 1 -0 0
    outer loop
      vertex 2.125 0.00426297 50.7503
      vertex 2.125 20 41.5
      vertex 2.125 0.626666 50.7894
    endloop
  endfacet
  facet normal 1 -0 0
    outer loop
      vertex 2.125 0 50.75
      vertex 2.125 20 41.5
      vertex 2.125 0.00426297 50.7503
    endloop
  endfacet
  facet normal 1 0 0
    outer loop
      vertex 2.125 -20 41.5
      vertex 2.125 0 50.75
      vertex 2.125 -0.00426297 50.7503
    endloop
  endfacet
  facet normal 1 0 0
    outer loop
      vertex 2.125 -20 41.5
      vertex 2.125 -0.00426297 50.7503
      vertex 2.125 -0.626666 50.7894
    endloop
  endfacet
  facet normal 1 0 0
    outer loop
      vertex 2.125 -20 41.5
      vertex 2.125 -0.626666 50.7894
      vertex 2.125 -1.24345 50.9071
    endloop
  endfacet
  facet normal 1 0 0
    outer loop
      vertex 2.125 -20 41.5
      vertex 2.125 -1.24345 50.9071
      vertex 2.125 -1.84062 51.1011
    endloop
  endfacet
  facet normal 1 0 0
    outer loop
      vertex 2.125 -20 41.5
      vertex 2.125 -4.99013 55.436
      vertex 2.125 -20 70
    endloop
  endfacet
  facet normal 1 0 0
    outer loop
      vertex 2.125 -4.99013 55.436
      vertex 2.125 -20 41.5
      vertex 2.125 -4.91144 54.8131
    endloop
  endfacet
  facet normal 1 0 0
    outer loop
      vertex 2.125 -4.91144 54.8131
      vertex 2.125 -20 41.5
      vertex 2.125 -4.75528 54.2049
    endloop
  endfacet
  facet normal 1 0 0
    outer loop
      vertex 2.125 -4.75528 54.2049
      vertex 2.125 -20 41.5
      vertex 2.125 -4.52413 53.6211
    endloop
  endfacet
  facet normal 1 0 0
    outer loop
      vertex 2.125 -4.52413 53.6211
      vertex 2.125 -20 41.5
      vertex 2.125 -4.22164 53.0709
    endloop
  endfacet
  facet normal 1 0 0
    outer loop
      vertex 2.125 0 50.75
      vertex 2.125 -20 41.5
      vertex 2.125 20 41.5
    endloop
  endfacet
  facet normal 1 0 0
    outer loop
      vertex 2.125 -2.40877 51.3685
      vertex 2.125 -20 41.5
      vertex 2.125 -1.84062 51.1011
    endloop
  endfacet
  facet normal 1 0 0
    outer loop
      vertex 2.125 -2.93893 51.7049
      vertex 2.125 -20 41.5
      vertex 2.125 -2.40877 51.3685
    endloop
  endfacet
  facet normal 1 0 0
    outer loop
      vertex 2.125 -3.42274 52.1052
      vertex 2.125 -20 41.5
      vertex 2.125 -2.93893 51.7049
    endloop
  endfacet
  facet normal 1 0 0
    outer loop
      vertex 2.125 -3.85257 52.5629
      vertex 2.125 -20 41.5
      vertex 2.125 -3.42274 52.1052
    endloop
  endfacet
  facet normal 1 0 0
    outer loop
      vertex 2.125 -4.22164 53.0709
      vertex 2.125 -20 41.5
      vertex 2.125 -3.85257 52.5629
    endloop
  endfacet
  facet normal -0 0 1
    outer loop
      vertex -2.125 20 70
      vertex -0.7 -20 70
      vertex -0.7 20 70
    endloop
  endfacet
  facet normal 0 0 1
    outer loop
      vertex -0.7 -20 70
      vertex -2.125 20 70
      vertex -2.125 -20 70
    endloop
  endfacet
  facet normal 0 0 1
    outer loop
      vertex -0.7 20 70
      vertex 0.7 20 70
      vertex 0.7 23.95 70
    endloop
  endfacet
  facet normal 0 0 1
    outer loop
      vertex 0.7 20 70
      vertex -0.7 20 70
      vertex 0.7 -20 70
    endloop
  endfacet
  facet normal 0 0 1
    outer loop
      vertex -0.7 20 70
      vertex 0.7 23.95 70
      vertex -0.7 23.95 70
    endloop
  endfacet
  facet normal 0 0 1
    outer loop
      vertex -0.7 -20 70
      vertex 0.7 -20 70
      vertex -0.7 20 70
    endloop
  endfacet
  facet normal 0 0 1
    outer loop
      vertex 0.7 -20 70
      vertex -0.7 -20 70
      vertex 0.7 -23.95 70
    endloop
  endfacet
  facet normal 0 0 1
    outer loop
      vertex 0.7 -23.95 70
      vertex -0.7 -20 70
      vertex -0.7 -23.95 70
    endloop
  endfacet
  facet normal -0 0 1
    outer loop
      vertex 0.7 20 70
      vertex 2.125 -20 70
      vertex 2.125 20 70
    endloop
  endfacet
  facet normal 0 0 1
    outer loop
      vertex 2.125 -20 70
      vertex 0.7 20 70
      vertex 0.7 -20 70
    endloop
  endfacet
  facet normal -1 0 0
    outer loop
      vertex -2.125 20 41.5
      vertex -2.125 5.98816 55.3733
      vertex -2.125 20 70
    endloop
  endfacet
  facet normal -1 0 0
    outer loop
      vertex -2.125 20 41.5
      vertex -2.125 5.89372 54.6257
      vertex -2.125 5.98816 55.3733
    endloop
  endfacet
  facet normal -1 0 0
    outer loop
      vertex -2.125 20 41.5
      vertex -2.125 5.70634 53.8959
      vertex -2.125 5.89372 54.6257
    endloop
  endfacet
  facet normal -1 0 0
    outer loop
      vertex -2.125 20 41.5
      vertex -2.125 5.42896 53.1953
      vertex -2.125 5.70634 53.8959
    endloop
  endfacet
  facet normal -1 0 0
    outer loop
      vertex -2.125 20 41.5
      vertex -2.125 5.06597 52.535
      vertex -2.125 5.42896 53.1953
    endloop
  endfacet
  facet normal -1 0 0
    outer loop
      vertex -2.125 20 41.5
      vertex -2.125 4.62308 51.9255
      vertex -2.125 5.06597 52.535
    endloop
  endfacet
  facet normal -1 0 0
    outer loop
      vertex -2.125 20 41.5
      vertex -2.125 4.10728 51.3762
      vertex -2.125 4.62308 51.9255
    endloop
  endfacet
  facet normal -1 0 0
    outer loop
      vertex -2.125 20 41.5
      vertex -2.125 3.52671 50.8959
      vertex -2.125 4.10728 51.3762
    endloop
  endfacet
  facet normal -1 0 0
    outer loop
      vertex -2.125 20 41.5
      vertex -2.125 2.89052 50.4922
      vertex -2.125 3.52671 50.8959
    endloop
  endfacet
  facet normal -1 0 0
    outer loop
      vertex -2.125 20 41.5
      vertex -2.125 2.20875 50.1713
      vertex -2.125 2.89052 50.4922
    endloop
  endfacet
  facet normal -1 0 0
    outer loop
      vertex -2.125 20 41.5
      vertex -2.125 1.49214 49.9385
      vertex -2.125 2.20875 50.1713
    endloop
  endfacet
  facet normal -1 0 0
    outer loop
      vertex -2.125 20 41.5
      vertex -2.125 0.751999 49.7973
      vertex -2.125 1.49214 49.9385
    endloop
  endfacet
  facet normal -1 0 0
    outer loop
      vertex -2.125 20 41.5
      vertex -2.125 0 49.75
      vertex -2.125 0.751999 49.7973
    endloop
  endfacet
  facet normal -1 0 0
    outer loop
      vertex -2.125 -20 41.5
      vertex -2.125 0 49.75
      vertex -2.125 20 41.5
    endloop
  endfacet
  facet normal -1 -0 0
    outer loop
      vertex -2.125 0 49.75
      vertex -2.125 -20 41.5
      vertex -2.125 -0.751999 49.7973
    endloop
  endfacet
  facet normal -1 -0 0
    outer loop
      vertex -2.125 -0.751999 49.7973
      vertex -2.125 -20 41.5
      vertex -2.125 -1.49214 49.9385
    endloop
  endfacet
  facet normal -1 -0 0
    outer loop
      vertex -2.125 -5.98816 55.3733
      vertex -2.125 -20 41.5
      vertex -2.125 -5.98816 56.1267
    endloop
  endfacet
  facet normal -1 -0 0
    outer loop
      vertex -2.125 -5.89372 54.6257
      vertex -2.125 -20 41.5
      vertex -2.125 -5.98816 55.3733
    endloop
  endfacet
  facet normal -1 -0 0
    outer loop
      vertex -2.125 -5.70634 53.8959
      vertex -2.125 -20 41.5
      vertex -2.125 -5.89372 54.6257
    endloop
  endfacet
  facet normal -1 -0 0
    outer loop
      vertex -2.125 -5.42896 53.1953
      vertex -2.125 -20 41.5
      vertex -2.125 -5.70634 53.8959
    endloop
  endfacet
  facet normal -1 -0 0
    outer loop
      vertex -2.125 -5.06597 52.535
      vertex -2.125 -20 41.5
      vertex -2.125 -5.42896 53.1953
    endloop
  endfacet
  facet normal -1 -0 0
    outer loop
      vertex -2.125 -4.62308 51.9255
      vertex -2.125 -20 41.5
      vertex -2.125 -5.06597 52.535
    endloop
  endfacet
  facet normal -1 -0 0
    outer loop
      vertex -2.125 -4.10728 51.3762
      vertex -2.125 -20 41.5
      vertex -2.125 -4.62308 51.9255
    endloop
  endfacet
  facet normal -1 -0 0
    outer loop
      vertex -2.125 -3.52671 50.8959
      vertex -2.125 -20 41.5
      vertex -2.125 -4.10728 51.3762
    endloop
  endfacet
  facet normal -1 -0 0
    outer loop
      vertex -2.125 -2.89052 50.4922
      vertex -2.125 -20 41.5
      vertex -2.125 -3.52671 50.8959
    endloop
  endfacet
  facet normal -1 -0 0
    outer loop
      vertex -2.125 -2.20875 50.1713
      vertex -2.125 -20 41.5
      vertex -2.125 -2.89052 50.4922
    endloop
  endfacet
  facet normal -1 -0 0
    outer loop
      vertex -2.125 -1.49214 49.9385
      vertex -2.125 -20 41.5
      vertex -2.125 -2.20875 50.1713
    endloop
  endfacet
  facet normal -1 0 0
    outer loop
      vertex -2.125 5.98816 56.1267
      vertex -2.125 20 70
      vertex -2.125 5.98816 55.3733
    endloop
  endfacet
  facet normal -1 0 0
    outer loop
      vertex -2.125 5.89372 56.8743
      vertex -2.125 20 70
      vertex -2.125 5.98816 56.1267
    endloop
  endfacet
  facet normal -1 0 0
    outer loop
      vertex -2.125 5.70634 57.6041
      vertex -2.125 20 70
      vertex -2.125 5.89372 56.8743
    endloop
  endfacet
  facet normal -1 0 0
    outer loop
      vertex -2.125 5.42896 58.3047
      vertex -2.125 20 70
      vertex -2.125 5.70634 57.6041
    endloop
  endfacet
  facet normal -1 0 0
    outer loop
      vertex -2.125 5.06597 58.965
      vertex -2.125 20 70
      vertex -2.125 5.42896 58.3047
    endloop
  endfacet
  facet normal -1 0 0
    outer loop
      vertex -2.125 4.62308 59.5745
      vertex -2.125 20 70
      vertex -2.125 5.06597 58.965
    endloop
  endfacet
  facet normal -1 0 0
    outer loop
      vertex -2.125 4.10728 60.1238
      vertex -2.125 20 70
      vertex -2.125 4.62308 59.5745
    endloop
  endfacet
  facet normal -1 0 0
    outer loop
      vertex -2.125 3.52671 60.6041
      vertex -2.125 20 70
      vertex -2.125 4.10728 60.1238
    endloop
  endfacet
  facet normal -1 0 0
    outer loop
      vertex -2.125 2.89052 61.0078
      vertex -2.125 20 70
      vertex -2.125 3.52671 60.6041
    endloop
  endfacet
  facet normal -1 0 0
    outer loop
      vertex -2.125 2.20875 61.3287
      vertex -2.125 20 70
      vertex -2.125 2.89052 61.0078
    endloop
  endfacet
  facet normal -1 0 0
    outer loop
      vertex -2.125 1.49214 61.5615
      vertex -2.125 20 70
      vertex -2.125 2.20875 61.3287
    endloop
  endfacet
  facet normal -1 0 0
    outer loop
      vertex -2.125 0.751999 61.7027
      vertex -2.125 20 70
      vertex -2.125 1.49214 61.5615
    endloop
  endfacet
  facet normal -1 0 0
    outer loop
      vertex -2.125 0 61.75
      vertex -2.125 20 70
      vertex -2.125 0.751999 61.7027
    endloop
  endfacet
  facet normal -1 0 0
    outer loop
      vertex -2.125 -20 70
      vertex -2.125 0 61.75
      vertex -2.125 -0.751999 61.7027
    endloop
  endfacet
  facet normal -1 0 0
    outer loop
      vertex -2.125 -20 70
      vertex -2.125 -0.751999 61.7027
      vertex -2.125 -1.49214 61.5615
    endloop
  endfacet
  facet normal -1 0 0
    outer loop
      vertex -2.125 -20 70
      vertex -2.125 -1.49214 61.5615
      vertex -2.125 -2.20875 61.3287
    endloop
  endfacet
  facet normal -1 0 0
    outer loop
      vertex -2.125 -20 70
      vertex -2.125 -5.98816 56.1267
      vertex -2.125 -20 41.5
    endloop
  endfacet
  facet normal -1 0 0
    outer loop
      vertex -2.125 -5.98816 56.1267
      vertex -2.125 -20 70
      vertex -2.125 -5.89372 56.8743
    endloop
  endfacet
  facet normal -1 0 0
    outer loop
      vertex -2.125 -5.89372 56.8743
      vertex -2.125 -20 70
      vertex -2.125 -5.70634 57.6041
    endloop
  endfacet
  facet normal -1 0 0
    outer loop
      vertex -2.125 -5.70634 57.6041
      vertex -2.125 -20 70
      vertex -2.125 -5.42896 58.3047
    endloop
  endfacet
  facet normal -1 0 0
    outer loop
      vertex -2.125 -5.42896 58.3047
      vertex -2.125 -20 70
      vertex -2.125 -5.06597 58.965
    endloop
  endfacet
  facet normal -1 0 0
    outer loop
      vertex -2.125 0 61.75
      vertex -2.125 -20 70
      vertex -2.125 20 70
    endloop
  endfacet
  facet normal -1 0 0
    outer loop
      vertex -2.125 -2.89052 61.0078
      vertex -2.125 -20 70
      vertex -2.125 -2.20875 61.3287
    endloop
  endfacet
  facet normal -1 0 0
    outer loop
      vertex -2.125 -3.52671 60.6041
      vertex -2.125 -20 70
      vertex -2.125 -2.89052 61.0078
    endloop
  endfacet
  facet normal -1 0 0
    outer loop
      vertex -2.125 -4.10728 60.1238
      vertex -2.125 -20 70
      vertex -2.125 -3.52671 60.6041
    endloop
  endfacet
  facet normal -1 0 0
    outer loop
      vertex -2.125 -4.62308 59.5745
      vertex -2.125 -20 70
      vertex -2.125 -4.10728 60.1238
    endloop
  endfacet
  facet normal -1 0 0
    outer loop
      vertex -2.125 -5.06597 58.965
      vertex -2.125 -20 70
      vertex -2.125 -4.62308 59.5745
    endloop
  endfacet
  facet normal 0 0 -1
    outer loop
      vertex 0.7 -20 41.5
      vertex 2.125 20 41.5
      vertex 2.125 -20 41.5
    endloop
  endfacet
  facet normal -0 0 -1
    outer loop
      vertex 2.125 20 41.5
      vertex 0.7 -20 41.5
      vertex 0.7 20 41.5
    endloop
  endfacet
  facet normal 0 0 -1
    outer loop
      vertex -2.125 -20 41.5
      vertex -0.7 20 41.5
      vertex -0.7 -20 41.5
    endloop
  endfacet
  facet normal -0 0 -1
    outer loop
      vertex -0.7 20 41.5
      vertex -2.125 -20 41.5
      vertex -2.125 20 41.5
    endloop
  endfacet
  facet normal 0 -1 0
    outer loop
      vertex 0.7 -20 41.5
      vertex 2.125 -20 70
      vertex 0.7 -20 70
    endloop
  endfacet
  facet normal 0 -1 -0
    outer loop
      vertex 2.125 -20 70
      vertex 0.7 -20 41.5
      vertex 2.125 -20 41.5
    endloop
  endfacet
  facet normal 0 -1 0
    outer loop
      vertex -2.125 -20 41.5
      vertex -0.7 -20 70
      vertex -2.125 -20 70
    endloop
  endfacet
  facet normal 0 -1 -0
    outer loop
      vertex -0.7 -20 70
      vertex -2.125 -20 41.5
      vertex -0.7 -20 41.5
    endloop
  endfacet
  facet normal 0 1 -0
    outer loop
      vertex -0.7 20 41.5
      vertex -2.125 20 70
      vertex -0.7 20 70
    endloop
  endfacet
  facet normal 0 1 0
    outer loop
      vertex -2.125 20 70
      vertex -0.7 20 41.5
      vertex -2.125 20 41.5
    endloop
  endfacet
  facet normal 0 1 -0
    outer loop
      vertex 2.125 20 41.5
      vertex 0.7 20 70
      vertex 2.125 20 70
    endloop
  endfacet
  facet normal 0 1 0
    outer loop
      vertex 0.7 20 70
      vertex 2.125 20 41.5
      vertex 0.7 20 41.5
    endloop
  endfacet
  facet normal 1 0 0
    outer loop
      vertex 0.7 -20 70
      vertex 0.7 -23.95 70
      vertex 0.7 -20 41.5
    endloop
  endfacet
  facet normal 1 0 0
    outer loop
      vertex 0.7 20 41.5
      vertex 0.7 23.95 70
      vertex 0.7 20 70
    endloop
  endfacet
  facet normal 1 0 0
    outer loop
      vertex 0.7 23.95 70
      vertex 0.7 20 41.5
      vertex 0.7 23.95 39.5
    endloop
  endfacet
  facet normal 1 -0 0
    outer loop
      vertex 0.7 -20 41.5
      vertex 0.7 23.95 39.5
      vertex 0.7 20 41.5
    endloop
  endfacet
  facet normal 1 0 0
    outer loop
      vertex 0.7 -20 41.5
      vertex 0.7 -23.95 39.5
      vertex 0.7 23.95 39.5
    endloop
  endfacet
  facet normal 1 0 0
    outer loop
      vertex 0.7 -23.95 39.5
      vertex 0.7 -20 41.5
      vertex 0.7 -23.95 70
    endloop
  endfacet
  facet normal -1 0 0
    outer loop
      vertex -0.7 23.95 39.5
      vertex -0.7 20 41.5
      vertex -0.7 23.95 70
    endloop
  endfacet
  facet normal -1 0 0
    outer loop
      vertex -0.7 23.95 39.5
      vertex -0.7 -20 41.5
      vertex -0.7 20 41.5
    endloop
  endfacet
  facet normal -1 0 0
    outer loop
      vertex -0.7 -23.95 39.5
      vertex -0.7 -20 41.5
      vertex -0.7 23.95 39.5
    endloop
  endfacet
  facet normal -1 0 0
    outer loop
      vertex -0.7 -23.95 70
      vertex -0.7 -20 41.5
      vertex -0.7 -23.95 39.5
    endloop
  endfacet
  facet normal -1 0 0
    outer loop
      vertex -0.7 -20 41.5
      vertex -0.7 -23.95 70
      vertex -0.7 -20 70
    endloop
  endfacet
  facet normal -1 -0 0
    outer loop
      vertex -0.7 23.95 70
      vertex -0.7 20 41.5
      vertex -0.7 20 70
    endloop
  endfacet
  facet normal 0 1 -0
    outer loop
      vertex 0.7 23.95 39.5
      vertex -0.7 23.95 70
      vertex 0.7 23.95 70
    endloop
  endfacet
  facet normal 0 1 0
    outer loop
      vertex -0.7 23.95 70
      vertex 0.7 23.95 39.5
      vertex -0.7 23.95 39.5
    endloop
  endfacet
  facet normal 0 0 -1
    outer loop
      vertex -0.7 -23.95 39.5
      vertex 0.7 23.95 39.5
      vertex 0.7 -23.95 39.5
    endloop
  endfacet
  facet normal -0 0 -1
    outer loop
      vertex 0.7 23.95 39.5
      vertex -0.7 -23.95 39.5
      vertex -0.7 23.95 39.5
    endloop
  endfacet
  facet normal 0 -1 0
    outer loop
      vertex -0.7 -23.95 39.5
      vertex 0.7 -23.95 70
      vertex -0.7 -23.95 70
    endloop
  endfacet
  facet normal 0 -1 -0
    outer loop
      vertex 0.7 -23.95 70
      vertex -0.7 -23.95 39.5
      vertex 0.7 -23.95 39.5
    endloop
  endfacet
  facet normal 0 0.0627931 -0.998027
    outer loop
      vertex -5.125 0.751999 49.7973
      vertex -2.125 0.751999 49.7973
      vertex -2.125 0 49.75
    endloop
  endfacet
  facet normal 0 0.968583 -0.248689
    outer loop
      vertex -2.125 5.70634 53.8959
      vertex -5.125 5.89372 54.6257
      vertex -2.125 5.89372 54.6257
    endloop
  endfacet
  facet normal 0 0.968583 -0.248689
    outer loop
      vertex -5.125 5.89372 54.6257
      vertex -2.125 5.70634 53.8959
      vertex -5.125 5.70634 53.8959
    endloop
  endfacet
  facet normal 0 0.0627931 -0.998027
    outer loop
      vertex -5.125 0 49.75
      vertex -5.125 0.751999 49.7973
      vertex -2.125 0 49.75
    endloop
  endfacet
  facet normal -0 0.309019 0.951056
    outer loop
      vertex -5.125 2.20875 61.3287
      vertex -2.125 1.49214 61.5615
      vertex -2.125 2.20875 61.3287
    endloop
  endfacet
  facet normal 0 0.309019 0.951056
    outer loop
      vertex -2.125 1.49214 61.5615
      vertex -5.125 2.20875 61.3287
      vertex -5.125 1.49214 61.5615
    endloop
  endfacet
  facet normal 0 0.992115 0.125333
    outer loop
      vertex -2.125 5.98816 56.1267
      vertex -5.125 5.89372 56.8743
      vertex -2.125 5.89372 56.8743
    endloop
  endfacet
  facet normal 0 0.992115 0.125333
    outer loop
      vertex -5.125 5.89372 56.8743
      vertex -2.125 5.98816 56.1267
      vertex -5.125 5.98816 56.1267
    endloop
  endfacet
  facet normal 0 -0.968583 -0.248689
    outer loop
      vertex -5.125 -5.70634 53.8959
      vertex -2.125 -5.89372 54.6257
      vertex -5.125 -5.89372 54.6257
    endloop
  endfacet
  facet normal 0 -0.968583 -0.248689
    outer loop
      vertex -2.125 -5.89372 54.6257
      vertex -5.125 -5.70634 53.8959
      vertex -2.125 -5.70634 53.8959
    endloop
  endfacet
  facet normal -1 -7.25975e-08 3.80579e-07
    outer loop
      vertex -5.125 -5.42896 58.3047
      vertex -5.125 -1.49214 61.5615
      vertex -5.125 -0.751999 61.7027
    endloop
  endfacet
  facet normal 0 -0.309019 0.951056
    outer loop
      vertex -5.125 -1.49214 61.5615
      vertex -2.125 -2.20875 61.3287
      vertex -2.125 -1.49214 61.5615
    endloop
  endfacet
  facet normal 0 -0.309019 0.951056
    outer loop
      vertex -2.125 -2.20875 61.3287
      vertex -5.125 -1.49214 61.5615
      vertex -5.125 -2.20875 61.3287
    endloop
  endfacet
  facet normal -1 2.46679e-06 2.31647e-06
    outer loop
      vertex -5.125 5.42896 58.3047
      vertex -5.125 4.10728 60.1238
      vertex -5.125 4.62308 59.5745
    endloop
  endfacet
  facet normal -0 0.42578 0.904827
    outer loop
      vertex -5.125 2.89052 61.0078
      vertex -2.125 2.20875 61.3287
      vertex -2.125 2.89052 61.0078
    endloop
  endfacet
  facet normal 0 0.42578 0.904827
    outer loop
      vertex -2.125 2.20875 61.3287
      vertex -5.125 2.89052 61.0078
      vertex -5.125 2.20875 61.3287
    endloop
  endfacet
  facet normal 0 1 -0
    outer loop
      vertex -2.125 5.98816 55.3733
      vertex -5.125 5.98816 56.1267
      vertex -2.125 5.98816 56.1267
    endloop
  endfacet
  facet normal 0 1 0
    outer loop
      vertex -5.125 5.98816 56.1267
      vertex -2.125 5.98816 55.3733
      vertex -5.125 5.98816 55.3733
    endloop
  endfacet
  facet normal 0 0.187377 -0.982288
    outer loop
      vertex -5.125 0.751999 49.7973
      vertex -2.125 1.49214 49.9385
      vertex -2.125 0.751999 49.7973
    endloop
  endfacet
  facet normal 0 0.187377 -0.982288
    outer loop
      vertex -2.125 1.49214 49.9385
      vertex -5.125 0.751999 49.7973
      vertex -5.125 1.49214 49.9385
    endloop
  endfacet
  facet normal 0 0.809018 -0.587784
    outer loop
      vertex -2.125 4.62308 51.9255
      vertex -5.125 5.06597 52.535
      vertex -2.125 5.06597 52.535
    endloop
  endfacet
  facet normal 0 0.809018 -0.587784
    outer loop
      vertex -5.125 5.06597 52.535
      vertex -2.125 4.62308 51.9255
      vertex -5.125 4.62308 51.9255
    endloop
  endfacet
  facet normal -1 -1.08711e-06 1.31408e-06
    outer loop
      vertex -5.125 -5.42896 58.3047
      vertex -5.125 -4.10728 60.1238
      vertex -5.125 -3.52671 60.6041
    endloop
  endfacet
  facet normal 0 -0.309019 -0.951056
    outer loop
      vertex -5.125 -2.20875 50.1713
      vertex -2.125 -1.49214 49.9385
      vertex -2.125 -2.20875 50.1713
    endloop
  endfacet
  facet normal -0 -0.309019 -0.951056
    outer loop
      vertex -2.125 -1.49214 49.9385
      vertex -5.125 -2.20875 50.1713
      vertex -5.125 -1.49214 49.9385
    endloop
  endfacet
  facet normal 0 -0.992115 0.125333
    outer loop
      vertex -5.125 -5.98816 56.1267
      vertex -2.125 -5.89372 56.8743
      vertex -5.125 -5.89372 56.8743
    endloop
  endfacet
  facet normal 0 -0.992115 0.125333
    outer loop
      vertex -2.125 -5.89372 56.8743
      vertex -5.125 -5.98816 56.1267
      vertex -2.125 -5.98816 56.1267
    endloop
  endfacet
  facet normal 0 -0.187377 0.982288
    outer loop
      vertex -5.125 -0.751999 61.7027
      vertex -2.125 -1.49214 61.5615
      vertex -2.125 -0.751999 61.7027
    endloop
  endfacet
  facet normal 0 -0.187377 0.982288
    outer loop
      vertex -2.125 -1.49214 61.5615
      vertex -5.125 -0.751999 61.7027
      vertex -5.125 -1.49214 61.5615
    endloop
  endfacet
  facet normal -1 7.25975e-08 3.80579e-07
    outer loop
      vertex -5.125 5.42896 58.3047
      vertex -5.125 0.751999 61.7027
      vertex -5.125 1.49214 61.5615
    endloop
  endfacet
  facet normal -0 0.637427 0.770511
    outer loop
      vertex -5.125 4.10728 60.1238
      vertex -2.125 3.52671 60.6041
      vertex -2.125 4.10728 60.1238
    endloop
  endfacet
  facet normal 0 0.637427 0.770511
    outer loop
      vertex -2.125 3.52671 60.6041
      vertex -5.125 4.10728 60.1238
      vertex -5.125 3.52671 60.6041
    endloop
  endfacet
  facet normal -1 1.08711e-06 1.31408e-06
    outer loop
      vertex -5.125 5.42896 58.3047
      vertex -5.125 3.52671 60.6041
      vertex -5.125 4.10728 60.1238
    endloop
  endfacet
  facet normal -1 8.17021e-06 5.93598e-06
    outer loop
      vertex -5.125 5.42896 58.3047
      vertex -5.125 4.62308 59.5745
      vertex -5.125 5.06597 58.965
    endloop
  endfacet
  facet normal 0 0.309019 -0.951056
    outer loop
      vertex -5.125 1.49214 49.9385
      vertex -2.125 2.20875 50.1713
      vertex -2.125 1.49214 49.9385
    endloop
  endfacet
  facet normal 0 0.309019 -0.951056
    outer loop
      vertex -2.125 2.20875 50.1713
      vertex -5.125 1.49214 49.9385
      vertex -5.125 2.20875 50.1713
    endloop
  endfacet
  facet normal 0 -0.535825 0.844329
    outer loop
      vertex -5.125 -2.89052 61.0078
      vertex -2.125 -3.52671 60.6041
      vertex -2.125 -2.89052 61.0078
    endloop
  endfacet
  facet normal 0 -0.535825 0.844329
    outer loop
      vertex -2.125 -3.52671 60.6041
      vertex -5.125 -2.89052 61.0078
      vertex -5.125 -3.52671 60.6041
    endloop
  endfacet
  facet normal 0 -0.42578 0.904827
    outer loop
      vertex -5.125 -2.20875 61.3287
      vertex -2.125 -2.89052 61.0078
      vertex -2.125 -2.20875 61.3287
    endloop
  endfacet
  facet normal 0 -0.42578 0.904827
    outer loop
      vertex -2.125 -2.89052 61.0078
      vertex -5.125 -2.20875 61.3287
      vertex -5.125 -2.89052 61.0078
    endloop
  endfacet
  facet normal -1 -2.9746e-07 6.32133e-07
    outer loop
      vertex -5.125 -5.42896 58.3047
      vertex -5.125 -2.89052 61.0078
      vertex -5.125 -2.20875 61.3287
    endloop
  endfacet
  facet normal -1 -1.56684e-07 4.82222e-07
    outer loop
      vertex -5.125 -5.42896 58.3047
      vertex -5.125 -2.20875 61.3287
      vertex -5.125 -1.49214 61.5615
    endloop
  endfacet
  facet normal -1 0 0
    outer loop
      vertex -5.125 5.89372 54.6257
      vertex -5.125 4.91144 54.8131
      vertex -5.125 4.99013 55.436
    endloop
  endfacet
  facet normal -1 0 0
    outer loop
      vertex -5.125 5.42896 53.1953
      vertex -5.125 4.75528 54.2049
      vertex -5.125 4.91144 54.8131
    endloop
  endfacet
  facet normal -1 0 0
    outer loop
      vertex -5.125 4.22164 53.0709
      vertex -5.125 5.06597 52.535
      vertex -5.125 4.62308 51.9255
    endloop
  endfacet
  facet normal -1 0 0
    outer loop
      vertex -5.125 5.42896 53.1953
      vertex -5.125 4.52413 53.6211
      vertex -5.125 4.75528 54.2049
    endloop
  endfacet
  facet normal -1 0 0
    outer loop
      vertex -5.125 5.06597 52.535
      vertex -5.125 4.22164 53.0709
      vertex -5.125 4.52413 53.6211
    endloop
  endfacet
  facet normal -1 0 0
    outer loop
      vertex -5.125 3.85257 52.5629
      vertex -5.125 4.62308 51.9255
      vertex -5.125 4.10728 51.3762
    endloop
  endfacet
  facet normal -1 0 0
    outer loop
      vertex -5.125 4.62308 51.9255
      vertex -5.125 3.85257 52.5629
      vertex -5.125 4.22164 53.0709
    endloop
  endfacet
  facet normal -1 0 0
    outer loop
      vertex -5.125 3.42274 52.1052
      vertex -5.125 4.10728 51.3762
      vertex -5.125 3.52671 50.8959
    endloop
  endfacet
  facet normal -1 0 0
    outer loop
      vertex -5.125 4.10728 51.3762
      vertex -5.125 3.42274 52.1052
      vertex -5.125 3.85257 52.5629
    endloop
  endfacet
  facet normal -1 0 0
    outer loop
      vertex -5.125 3.52671 50.8959
      vertex -5.125 2.93893 51.7049
      vertex -5.125 3.42274 52.1052
    endloop
  endfacet
  facet normal -1 0 0
    outer loop
      vertex -5.125 2.89052 50.4922
      vertex -5.125 2.93893 51.7049
      vertex -5.125 3.52671 50.8959
    endloop
  endfacet
  facet normal -1 0 0
    outer loop
      vertex -5.125 2.89052 50.4922
      vertex -5.125 2.40877 51.3685
      vertex -5.125 2.93893 51.7049
    endloop
  endfacet
  facet normal -1 0 0
    outer loop
      vertex -5.125 2.20875 50.1713
      vertex -5.125 2.40877 51.3685
      vertex -5.125 2.89052 50.4922
    endloop
  endfacet
  facet normal -1 0 0
    outer loop
      vertex -5.125 2.20875 50.1713
      vertex -5.125 1.84062 51.1011
      vertex -5.125 2.40877 51.3685
    endloop
  endfacet
  facet normal -1 0 0
    outer loop
      vertex -5.125 1.49214 49.9385
      vertex -5.125 1.84062 51.1011
      vertex -5.125 2.20875 50.1713
    endloop
  endfacet
  facet normal -1 0 0
    outer loop
      vertex -5.125 1.49214 49.9385
      vertex -5.125 1.24345 50.9071
      vertex -5.125 1.84062 51.1011
    endloop
  endfacet
  facet normal -1 0 0
    outer loop
      vertex -5.125 0.751999 49.7973
      vertex -5.125 1.24345 50.9071
      vertex -5.125 1.49214 49.9385
    endloop
  endfacet
  facet normal -1 0 0
    outer loop
      vertex -5.125 0.751999 49.7973
      vertex -5.125 0.626666 50.7894
      vertex -5.125 1.24345 50.9071
    endloop
  endfacet
  facet normal -1 0 0
    outer loop
      vertex -5.125 0.751999 49.7973
      vertex -5.125 0.622403 50.7892
      vertex -5.125 0.626666 50.7894
    endloop
  endfacet
  facet normal -1 0 0
    outer loop
      vertex -5.125 0 49.75
      vertex -5.125 0.622403 50.7892
      vertex -5.125 0.751999 49.7973
    endloop
  endfacet
  facet normal -1 0 0
    outer loop
      vertex -5.125 0 49.75
      vertex -5.125 0 50.75
      vertex -5.125 0.622403 50.7892
    endloop
  endfacet
  facet normal -1 0 0
    outer loop
      vertex -5.125 0 49.75
      vertex -5.125 -0.622403 50.7892
      vertex -5.125 0 50.75
    endloop
  endfacet
  facet normal -1 0 0
    outer loop
      vertex -5.125 -0.751999 49.7973
      vertex -5.125 -0.622403 50.7892
      vertex -5.125 0 49.75
    endloop
  endfacet
  facet normal -1 -0 0
    outer loop
      vertex -5.125 -0.622403 50.7892
      vertex -5.125 -0.751999 49.7973
      vertex -5.125 -0.626666 50.7894
    endloop
  endfacet
  facet normal -1 0 0
    outer loop
      vertex -5.125 -0.751999 49.7973
      vertex -5.125 -1.24345 50.9071
      vertex -5.125 -0.626666 50.7894
    endloop
  endfacet
  facet normal -1 0 0
    outer loop
      vertex -5.125 -1.49214 49.9385
      vertex -5.125 -1.24345 50.9071
      vertex -5.125 -0.751999 49.7973
    endloop
  endfacet
  facet normal -1 0 0
    outer loop
      vertex -5.125 -1.49214 49.9385
      vertex -5.125 -1.84062 51.1011
      vertex -5.125 -1.24345 50.9071
    endloop
  endfacet
  facet normal -1 0 0
    outer loop
      vertex -5.125 -2.20875 50.1713
      vertex -5.125 -1.84062 51.1011
      vertex -5.125 -1.49214 49.9385
    endloop
  endfacet
  facet normal -1 0 0
    outer loop
      vertex -5.125 -2.20875 50.1713
      vertex -5.125 -2.40877 51.3685
      vertex -5.125 -1.84062 51.1011
    endloop
  endfacet
  facet normal -1 0 0
    outer loop
      vertex -5.125 -2.89052 50.4922
      vertex -5.125 -2.40877 51.3685
      vertex -5.125 -2.20875 50.1713
    endloop
  endfacet
  facet normal -1 0 0
    outer loop
      vertex -5.125 -2.89052 50.4922
      vertex -5.125 -2.93893 51.7049
      vertex -5.125 -2.40877 51.3685
    endloop
  endfacet
  facet normal -1 0 0
    outer loop
      vertex -5.125 -3.52671 50.8959
      vertex -5.125 -2.93893 51.7049
      vertex -5.125 -2.89052 50.4922
    endloop
  endfacet
  facet normal -1 -0 0
    outer loop
      vertex -5.125 -2.93893 51.7049
      vertex -5.125 -3.52671 50.8959
      vertex -5.125 -3.42274 52.1052
    endloop
  endfacet
  facet normal -1 0 0
    outer loop
      vertex -5.125 -4.10728 51.3762
      vertex -5.125 -3.42274 52.1052
      vertex -5.125 -3.52671 50.8959
    endloop
  endfacet
  facet normal -1 -0 0
    outer loop
      vertex -5.125 -3.42274 52.1052
      vertex -5.125 -4.10728 51.3762
      vertex -5.125 -3.85257 52.5629
    endloop
  endfacet
  facet normal -1 0 0
    outer loop
      vertex -5.125 -4.62308 51.9255
      vertex -5.125 -3.85257 52.5629
      vertex -5.125 -4.10728 51.3762
    endloop
  endfacet
  facet normal -1 -0 0
    outer loop
      vertex -5.125 -3.85257 52.5629
      vertex -5.125 -4.62308 51.9255
      vertex -5.125 -4.22164 53.0709
    endloop
  endfacet
  facet normal -1 0 0
    outer loop
      vertex -5.125 -5.06597 52.535
      vertex -5.125 -4.22164 53.0709
      vertex -5.125 -4.62308 51.9255
    endloop
  endfacet
  facet normal -1 -0 0
    outer loop
      vertex -5.125 -4.22164 53.0709
      vertex -5.125 -5.06597 52.535
      vertex -5.125 -4.52413 53.6211
    endloop
  endfacet
  facet normal -1 0 0
    outer loop
      vertex -5.125 -5.42896 53.1953
      vertex -5.125 -4.52413 53.6211
      vertex -5.125 -5.06597 52.535
    endloop
  endfacet
  facet normal -1 -0 0
    outer loop
      vertex -5.125 -4.52413 53.6211
      vertex -5.125 -5.42896 53.1953
      vertex -5.125 -4.75528 54.2049
    endloop
  endfacet
  facet normal -1 -0 0
    outer loop
      vertex -5.125 -4.75528 54.2049
      vertex -5.125 -5.70634 53.8959
      vertex -5.125 -4.91144 54.8131
    endloop
  endfacet
  facet normal -1 0 0
    outer loop
      vertex -5.125 -5.70634 53.8959
      vertex -5.125 -4.75528 54.2049
      vertex -5.125 -5.42896 53.1953
    endloop
  endfacet
  facet normal -1 0 0
    outer loop
      vertex -5.125 4.99013 55.436
      vertex -5.125 5.98816 55.3733
      vertex -5.125 5.89372 54.6257
    endloop
  endfacet
  facet normal -1 0 0
    outer loop
      vertex -5.125 5.98816 55.3733
      vertex -5.125 4.99013 55.436
      vertex -5.125 5.98816 56.1267
    endloop
  endfacet
  facet normal -1 0 0
    outer loop
      vertex -5.125 4.91144 54.8131
      vertex -5.125 5.89372 54.6257
      vertex -5.125 5.70634 53.8959
    endloop
  endfacet
  facet normal -1 0 0
    outer loop
      vertex -5.125 4.99013 56.064
      vertex -5.125 5.98816 56.1267
      vertex -5.125 4.99013 55.436
    endloop
  endfacet
  facet normal -1 0 0
    outer loop
      vertex -5.125 4.91144 54.8131
      vertex -5.125 5.70634 53.8959
      vertex -5.125 5.42896 53.1953
    endloop
  endfacet
  facet normal -1 -0 0
    outer loop
      vertex -5.125 5.98816 56.1267
      vertex -5.125 4.99013 56.064
      vertex -5.125 5.89372 56.8743
    endloop
  endfacet
  facet normal -1 0 0
    outer loop
      vertex -5.125 4.52413 53.6211
      vertex -5.125 5.42896 53.1953
      vertex -5.125 5.06597 52.535
    endloop
  endfacet
  facet normal -1 0 0
    outer loop
      vertex -5.125 4.91144 56.6869
      vertex -5.125 5.89372 56.8743
      vertex -5.125 4.99013 56.064
    endloop
  endfacet
  facet normal -1 -0 0
    outer loop
      vertex -5.125 5.89372 56.8743
      vertex -5.125 4.91144 56.6869
      vertex -5.125 5.70634 57.6041
    endloop
  endfacet
  facet normal -1 0 0
    outer loop
      vertex -5.125 4.75528 57.2951
      vertex -5.125 5.70634 57.6041
      vertex -5.125 4.91144 56.6869
    endloop
  endfacet
  facet normal -1 -0 0
    outer loop
      vertex -5.125 5.70634 57.6041
      vertex -5.125 4.75528 57.2951
      vertex -5.125 5.42896 58.3047
    endloop
  endfacet
  facet normal -1 0 0
    outer loop
      vertex -5.125 4.52413 57.8789
      vertex -5.125 5.42896 58.3047
      vertex -5.125 4.75528 57.2951
    endloop
  endfacet
  facet normal -1 -0 0
    outer loop
      vertex -5.125 5.42896 58.3047
      vertex -5.125 4.52413 57.8789
      vertex -5.125 4.29006 58.3047
    endloop
  endfacet
  facet normal -1 0 0
    outer loop
      vertex -5.125 -5.89372 54.6257
      vertex -5.125 -4.91144 54.8131
      vertex -5.125 -5.70634 53.8959
    endloop
  endfacet
  facet normal -1 -0 0
    outer loop
      vertex -5.125 -4.91144 54.8131
      vertex -5.125 -5.89372 54.6257
      vertex -5.125 -4.99013 55.436
    endloop
  endfacet
  facet normal -1 0 0
    outer loop
      vertex -5.125 -4.52413 57.8789
      vertex -5.125 -5.42896 58.3047
      vertex -5.125 -4.29006 58.3047
    endloop
  endfacet
  facet normal -1 0 0
    outer loop
      vertex -5.125 -4.75528 57.2951
      vertex -5.125 -5.42896 58.3047
      vertex -5.125 -4.52413 57.8789
    endloop
  endfacet
  facet normal -1 0 0
    outer loop
      vertex -5.125 -5.70634 57.6041
      vertex -5.125 -4.75528 57.2951
      vertex -5.125 -4.91144 56.6869
    endloop
  endfacet
  facet normal -1 0 0
    outer loop
      vertex -5.125 -5.98816 55.3733
      vertex -5.125 -4.99013 55.436
      vertex -5.125 -5.89372 54.6257
    endloop
  endfacet
  facet normal -1 -0 0
    outer loop
      vertex -5.125 -4.99013 55.436
      vertex -5.125 -5.98816 55.3733
      vertex -5.125 -4.99013 56.064
    endloop
  endfacet
  facet normal -1 0 0
    outer loop
      vertex -5.125 -4.75528 57.2951
      vertex -5.125 -5.70634 57.6041
      vertex -5.125 -5.42896 58.3047
    endloop
  endfacet
  facet normal -1 0 0
    outer loop
      vertex -5.125 -5.98816 56.1267
      vertex -5.125 -4.99013 56.064
      vertex -5.125 -5.98816 55.3733
    endloop
  endfacet
  facet normal -1 0 0
    outer loop
      vertex -5.125 -4.91144 56.6869
      vertex -5.125 -5.89372 56.8743
      vertex -5.125 -5.70634 57.6041
    endloop
  endfacet
  facet normal -1 0 0
    outer loop
      vertex -5.125 -4.99013 56.064
      vertex -5.125 -5.98816 56.1267
      vertex -5.125 -4.91144 56.6869
    endloop
  endfacet
  facet normal -1 -0 0
    outer loop
      vertex -5.125 -4.91144 56.6869
      vertex -5.125 -5.98816 56.1267
      vertex -5.125 -5.89372 56.8743
    endloop
  endfacet
  facet normal 0 -0.968583 0.248689
    outer loop
      vertex -5.125 -5.89372 56.8743
      vertex -2.125 -5.70634 57.6041
      vertex -5.125 -5.70634 57.6041
    endloop
  endfacet
  facet normal 0 -0.968583 0.248689
    outer loop
      vertex -2.125 -5.70634 57.6041
      vertex -5.125 -5.89372 56.8743
      vertex -2.125 -5.89372 56.8743
    endloop
  endfacet
  facet normal 0 -0.42578 -0.904827
    outer loop
      vertex -5.125 -2.89052 50.4922
      vertex -2.125 -2.20875 50.1713
      vertex -2.125 -2.89052 50.4922
    endloop
  endfacet
  facet normal -0 -0.42578 -0.904827
    outer loop
      vertex -2.125 -2.20875 50.1713
      vertex -5.125 -2.89052 50.4922
      vertex -5.125 -2.20875 50.1713
    endloop
  endfacet
  facet normal -0 0.0627931 0.998027
    outer loop
      vertex -5.125 0.751999 61.7027
      vertex -2.125 0 61.75
      vertex -2.125 0.751999 61.7027
    endloop
  endfacet
  facet normal 0 0.0627931 0.998027
    outer loop
      vertex -2.125 0 61.75
      vertex -5.125 0.751999 61.7027
      vertex -5.125 0 61.75
    endloop
  endfacet
  facet normal -1 0 0
    outer loop
      vertex -5.125 4.22164 58.4291
      vertex -5.125 5.42896 58.3047
      vertex -5.125 4.29006 58.3047
    endloop
  endfacet
  facet normal -1 0 0
    outer loop
      vertex -5.125 3.85257 58.9371
      vertex -5.125 5.42896 58.3047
      vertex -5.125 4.22164 58.4291
    endloop
  endfacet
  facet normal -1 6.70587e-07 1.67147e-06
    outer loop
      vertex -5.125 3.42274 59.3948
      vertex -5.125 5.42896 58.3047
      vertex -5.125 3.85257 58.9371
    endloop
  endfacet
  facet normal -1 -6.92635e-07 -8.37252e-07
    outer loop
      vertex -5.125 2.93893 59.7951
      vertex -5.125 5.42896 58.3047
      vertex -5.125 3.42274 59.3948
    endloop
  endfacet
  facet normal -1 -3.36987e-06 -5.31012e-06
    outer loop
      vertex -5.125 2.40877 60.1315
      vertex -5.125 5.42896 58.3047
      vertex -5.125 2.93893 59.7951
    endloop
  endfacet
  facet normal -1 2.03776e-07 5.97903e-07
    outer loop
      vertex -5.125 2.40877 60.1315
      vertex -5.125 0 61.75
      vertex -5.125 5.42896 58.3047
    endloop
  endfacet
  facet normal -1 4.62656e-07 9.83193e-07
    outer loop
      vertex -5.125 1.84062 60.3989
      vertex -5.125 0 61.75
      vertex -5.125 2.40877 60.1315
    endloop
  endfacet
  facet normal -1 2.0574e-07 6.33198e-07
    outer loop
      vertex -5.125 1.24345 60.5929
      vertex -5.125 0 61.75
      vertex -5.125 1.84062 60.3989
    endloop
  endfacet
  facet normal -1 9.88826e-08 5.18365e-07
    outer loop
      vertex -5.125 0.626666 60.7106
      vertex -5.125 0 61.75
      vertex -5.125 1.24345 60.5929
    endloop
  endfacet
  facet normal -1 3.00017e-08 4.76837e-07
    outer loop
      vertex -5.125 0 60.75
      vertex -5.125 0 61.75
      vertex -5.125 0.626666 60.7106
    endloop
  endfacet
  facet normal -1 -3.00017e-08 4.76837e-07
    outer loop
      vertex -5.125 -0.626666 60.7106
      vertex -5.125 0 61.75
      vertex -5.125 0 60.75
    endloop
  endfacet
  facet normal -1 -9.88826e-08 5.18365e-07
    outer loop
      vertex -5.125 -1.24345 60.5929
      vertex -5.125 0 61.75
      vertex -5.125 -0.626666 60.7106
    endloop
  endfacet
  facet normal -1 -2.0574e-07 6.33198e-07
    outer loop
      vertex -5.125 -1.84062 60.3989
      vertex -5.125 0 61.75
      vertex -5.125 -1.24345 60.5929
    endloop
  endfacet
  facet normal -1 -4.62656e-07 9.83193e-07
    outer loop
      vertex -5.125 -2.40877 60.1315
      vertex -5.125 0 61.75
      vertex -5.125 -1.84062 60.3989
    endloop
  endfacet
  facet normal -1 -3.36846e-06 5.3079e-06
    outer loop
      vertex -5.125 -2.93893 59.7951
      vertex -5.125 0 61.75
      vertex -5.125 -2.40877 60.1315
    endloop
  endfacet
  facet normal -1 4.54249e-07 -4.38979e-07
    outer loop
      vertex -5.125 -2.93893 59.7951
      vertex -5.125 -5.42896 58.3047
      vertex -5.125 0 61.75
    endloop
  endfacet
  facet normal -1 6.92635e-07 -8.37252e-07
    outer loop
      vertex -5.125 -3.42274 59.3948
      vertex -5.125 -5.42896 58.3047
      vertex -5.125 -2.93893 59.7951
    endloop
  endfacet
  facet normal -1 -6.70587e-07 1.67147e-06
    outer loop
      vertex -5.125 -3.85257 58.9371
      vertex -5.125 -5.42896 58.3047
      vertex -5.125 -3.42274 59.3948
    endloop
  endfacet
  facet normal -1 -0 0
    outer loop
      vertex -5.125 -4.22164 58.4291
      vertex -5.125 -5.42896 58.3047
      vertex -5.125 -3.85257 58.9371
    endloop
  endfacet
  facet normal -1 0 0
    outer loop
      vertex -5.125 -5.42896 58.3047
      vertex -5.125 -4.22164 58.4291
      vertex -5.125 -4.29006 58.3047
    endloop
  endfacet
  facet normal 0 0.929776 0.368125
    outer loop
      vertex -2.125 5.70634 57.6041
      vertex -5.125 5.42896 58.3047
      vertex -2.125 5.42896 58.3047
    endloop
  endfacet
  facet normal 0 0.929776 0.368125
    outer loop
      vertex -5.125 5.42896 58.3047
      vertex -2.125 5.70634 57.6041
      vertex -5.125 5.70634 57.6041
    endloop
  endfacet
  facet normal -1 5.54112e-07 8.73146e-07
    outer loop
      vertex -5.125 5.42896 58.3047
      vertex -5.125 2.89052 61.0078
      vertex -5.125 3.52671 60.6041
    endloop
  endfacet
  facet normal 0 0.728967 0.684548
    outer loop
      vertex -2.125 4.62308 59.5745
      vertex -5.125 4.10728 60.1238
      vertex -2.125 4.10728 60.1238
    endloop
  endfacet
  facet normal 0 0.728967 0.684548
    outer loop
      vertex -5.125 4.10728 60.1238
      vertex -2.125 4.62308 59.5745
      vertex -5.125 4.62308 59.5745
    endloop
  endfacet
  facet normal -0 0.535825 0.844329
    outer loop
      vertex -5.125 3.52671 60.6041
      vertex -2.125 2.89052 61.0078
      vertex -2.125 3.52671 60.6041
    endloop
  endfacet
  facet normal 0 0.535825 0.844329
    outer loop
      vertex -2.125 2.89052 61.0078
      vertex -5.125 3.52671 60.6041
      vertex -5.125 2.89052 61.0078
    endloop
  endfacet
  facet normal 0 0.728967 -0.684548
    outer loop
      vertex -2.125 4.10728 51.3762
      vertex -5.125 4.62308 51.9255
      vertex -2.125 4.62308 51.9255
    endloop
  endfacet
  facet normal 0 0.728967 -0.684548
    outer loop
      vertex -5.125 4.62308 51.9255
      vertex -2.125 4.10728 51.3762
      vertex -5.125 4.10728 51.3762
    endloop
  endfacet
  facet normal 0 0.535825 -0.844329
    outer loop
      vertex -5.125 2.89052 50.4922
      vertex -2.125 3.52671 50.8959
      vertex -2.125 2.89052 50.4922
    endloop
  endfacet
  facet normal 0 0.535825 -0.844329
    outer loop
      vertex -2.125 3.52671 50.8959
      vertex -5.125 2.89052 50.4922
      vertex -5.125 3.52671 50.8959
    endloop
  endfacet
  facet normal 0 0.929776 -0.368125
    outer loop
      vertex -2.125 5.42896 53.1953
      vertex -5.125 5.70634 53.8959
      vertex -2.125 5.70634 53.8959
    endloop
  endfacet
  facet normal 0 0.929776 -0.368125
    outer loop
      vertex -5.125 5.70634 53.8959
      vertex -2.125 5.42896 53.1953
      vertex -5.125 5.42896 53.1953
    endloop
  endfacet
  facet normal 0 0.992115 -0.125333
    outer loop
      vertex -2.125 5.89372 54.6257
      vertex -5.125 5.98816 55.3733
      vertex -2.125 5.98816 55.3733
    endloop
  endfacet
  facet normal 0 0.992115 -0.125333
    outer loop
      vertex -5.125 5.98816 55.3733
      vertex -2.125 5.89372 54.6257
      vertex -5.125 5.89372 54.6257
    endloop
  endfacet
  facet normal 0 0.876306 -0.481756
    outer loop
      vertex -2.125 5.06597 52.535
      vertex -5.125 5.42896 53.1953
      vertex -2.125 5.42896 53.1953
    endloop
  endfacet
  facet normal 0 0.876306 -0.481756
    outer loop
      vertex -5.125 5.42896 53.1953
      vertex -2.125 5.06597 52.535
      vertex -5.125 5.06597 52.535
    endloop
  endfacet
  facet normal 0 0.637427 -0.770511
    outer loop
      vertex -5.125 3.52671 50.8959
      vertex -2.125 4.10728 51.3762
      vertex -2.125 3.52671 50.8959
    endloop
  endfacet
  facet normal 0 0.637427 -0.770511
    outer loop
      vertex -2.125 4.10728 51.3762
      vertex -5.125 3.52671 50.8959
      vertex -5.125 4.10728 51.3762
    endloop
  endfacet
  facet normal -1 -1.93323e-08 3.07265e-07
    outer loop
      vertex -5.125 -5.42896 58.3047
      vertex -5.125 -0.751999 61.7027
      vertex -5.125 0 61.75
    endloop
  endfacet
  facet normal 0 -0.0627931 0.998027
    outer loop
      vertex -5.125 0 61.75
      vertex -2.125 -0.751999 61.7027
      vertex -2.125 0 61.75
    endloop
  endfacet
  facet normal 0 -0.0627931 0.998027
    outer loop
      vertex -2.125 -0.751999 61.7027
      vertex -5.125 0 61.75
      vertex -5.125 -0.751999 61.7027
    endloop
  endfacet
  facet normal 0 -0.637427 0.770511
    outer loop
      vertex -5.125 -3.52671 60.6041
      vertex -2.125 -4.10728 60.1238
      vertex -2.125 -3.52671 60.6041
    endloop
  endfacet
  facet normal 0 -0.637427 0.770511
    outer loop
      vertex -2.125 -4.10728 60.1238
      vertex -5.125 -3.52671 60.6041
      vertex -5.125 -4.10728 60.1238
    endloop
  endfacet
  facet normal -1 -5.54112e-07 8.73146e-07
    outer loop
      vertex -5.125 -5.42896 58.3047
      vertex -5.125 -3.52671 60.6041
      vertex -5.125 -2.89052 61.0078
    endloop
  endfacet
  facet normal -1 -2.46679e-06 2.31647e-06
    outer loop
      vertex -5.125 -5.42896 58.3047
      vertex -5.125 -4.62308 59.5745
      vertex -5.125 -4.10728 60.1238
    endloop
  endfacet
  facet normal 0 -0.728967 0.684548
    outer loop
      vertex -5.125 -4.62308 59.5745
      vertex -2.125 -4.10728 60.1238
      vertex -5.125 -4.10728 60.1238
    endloop
  endfacet
  facet normal 0 -0.728967 0.684548
    outer loop
      vertex -2.125 -4.10728 60.1238
      vertex -5.125 -4.62308 59.5745
      vertex -2.125 -4.62308 59.5745
    endloop
  endfacet
  facet normal -1 -8.17021e-06 5.93598e-06
    outer loop
      vertex -5.125 -5.42896 58.3047
      vertex -5.125 -5.06597 58.965
      vertex -5.125 -4.62308 59.5745
    endloop
  endfacet
  facet normal 0 -1 0
    outer loop
      vertex -5.125 -5.98816 55.3733
      vertex -2.125 -5.98816 56.1267
      vertex -5.125 -5.98816 56.1267
    endloop
  endfacet
  facet normal 0 -1 -0
    outer loop
      vertex -2.125 -5.98816 56.1267
      vertex -5.125 -5.98816 55.3733
      vertex -2.125 -5.98816 55.3733
    endloop
  endfacet
  facet normal 0 -0.0627931 -0.998027
    outer loop
      vertex -5.125 -0.751999 49.7973
      vertex -5.125 0 49.75
      vertex -2.125 0 49.75
    endloop
  endfacet
  facet normal 0 -0.929776 0.368125
    outer loop
      vertex -5.125 -5.70634 57.6041
      vertex -2.125 -5.42896 58.3047
      vertex -5.125 -5.42896 58.3047
    endloop
  endfacet
  facet normal 0 -0.929776 0.368125
    outer loop
      vertex -2.125 -5.42896 58.3047
      vertex -5.125 -5.70634 57.6041
      vertex -2.125 -5.70634 57.6041
    endloop
  endfacet
  facet normal 0 -0.929776 -0.368125
    outer loop
      vertex -5.125 -5.42896 53.1953
      vertex -2.125 -5.70634 53.8959
      vertex -5.125 -5.70634 53.8959
    endloop
  endfacet
  facet normal 0 -0.929776 -0.368125
    outer loop
      vertex -2.125 -5.70634 53.8959
      vertex -5.125 -5.42896 53.1953
      vertex -2.125 -5.42896 53.1953
    endloop
  endfacet
  facet normal 0 -0.809018 -0.587784
    outer loop
      vertex -5.125 -4.62308 51.9255
      vertex -2.125 -5.06597 52.535
      vertex -5.125 -5.06597 52.535
    endloop
  endfacet
  facet normal 0 -0.809018 -0.587784
    outer loop
      vertex -2.125 -5.06597 52.535
      vertex -5.125 -4.62308 51.9255
      vertex -2.125 -4.62308 51.9255
    endloop
  endfacet
  facet normal 0 -0.187377 -0.982288
    outer loop
      vertex -5.125 -1.49214 49.9385
      vertex -2.125 -0.751999 49.7973
      vertex -2.125 -1.49214 49.9385
    endloop
  endfacet
  facet normal -0 -0.187377 -0.982288
    outer loop
      vertex -2.125 -0.751999 49.7973
      vertex -5.125 -1.49214 49.9385
      vertex -5.125 -0.751999 49.7973
    endloop
  endfacet
  facet normal 0 -0.637427 -0.770511
    outer loop
      vertex -5.125 -4.10728 51.3762
      vertex -2.125 -3.52671 50.8959
      vertex -2.125 -4.10728 51.3762
    endloop
  endfacet
  facet normal -0 -0.637427 -0.770511
    outer loop
      vertex -2.125 -3.52671 50.8959
      vertex -5.125 -4.10728 51.3762
      vertex -5.125 -3.52671 50.8959
    endloop
  endfacet
  facet normal -1 1.93323e-08 3.07265e-07
    outer loop
      vertex -5.125 5.42896 58.3047
      vertex -5.125 0 61.75
      vertex -5.125 0.751999 61.7027
    endloop
  endfacet
  facet normal -0 0.187377 0.982288
    outer loop
      vertex -5.125 1.49214 61.5615
      vertex -2.125 0.751999 61.7027
      vertex -2.125 1.49214 61.5615
    endloop
  endfacet
  facet normal 0 0.187377 0.982288
    outer loop
      vertex -2.125 0.751999 61.7027
      vertex -5.125 1.49214 61.5615
      vertex -5.125 0.751999 61.7027
    endloop
  endfacet
  facet normal 0 0.809018 0.587784
    outer loop
      vertex -2.125 5.06597 58.965
      vertex -5.125 4.62308 59.5745
      vertex -2.125 4.62308 59.5745
    endloop
  endfacet
  facet normal 0 0.809018 0.587784
    outer loop
      vertex -5.125 4.62308 59.5745
      vertex -2.125 5.06597 58.965
      vertex -5.125 5.06597 58.965
    endloop
  endfacet
  facet normal 0 0.42578 -0.904827
    outer loop
      vertex -5.125 2.20875 50.1713
      vertex -2.125 2.89052 50.4922
      vertex -2.125 2.20875 50.1713
    endloop
  endfacet
  facet normal 0 0.42578 -0.904827
    outer loop
      vertex -2.125 2.89052 50.4922
      vertex -5.125 2.20875 50.1713
      vertex -5.125 2.89052 50.4922
    endloop
  endfacet
  facet normal 0 -0.876306 0.481756
    outer loop
      vertex -5.125 -5.42896 58.3047
      vertex -2.125 -5.06597 58.965
      vertex -5.125 -5.06597 58.965
    endloop
  endfacet
  facet normal 0 -0.876306 0.481756
    outer loop
      vertex -2.125 -5.06597 58.965
      vertex -5.125 -5.42896 58.3047
      vertex -2.125 -5.42896 58.3047
    endloop
  endfacet
  facet normal 0 -0.809018 0.587784
    outer loop
      vertex -5.125 -5.06597 58.965
      vertex -2.125 -4.62308 59.5745
      vertex -5.125 -4.62308 59.5745
    endloop
  endfacet
  facet normal 0 -0.809018 0.587784
    outer loop
      vertex -2.125 -4.62308 59.5745
      vertex -5.125 -5.06597 58.965
      vertex -2.125 -5.06597 58.965
    endloop
  endfacet
  facet normal 0 -0.876306 -0.481756
    outer loop
      vertex -5.125 -5.06597 52.535
      vertex -2.125 -5.42896 53.1953
      vertex -5.125 -5.42896 53.1953
    endloop
  endfacet
  facet normal 0 -0.876306 -0.481756
    outer loop
      vertex -2.125 -5.42896 53.1953
      vertex -5.125 -5.06597 52.535
      vertex -2.125 -5.06597 52.535
    endloop
  endfacet
  facet normal 0 -0.992115 -0.125333
    outer loop
      vertex -5.125 -5.89372 54.6257
      vertex -2.125 -5.98816 55.3733
      vertex -5.125 -5.98816 55.3733
    endloop
  endfacet
  facet normal 0 -0.992115 -0.125333
    outer loop
      vertex -2.125 -5.98816 55.3733
      vertex -5.125 -5.89372 54.6257
      vertex -2.125 -5.89372 54.6257
    endloop
  endfacet
  facet normal 0 -0.728967 -0.684548
    outer loop
      vertex -5.125 -4.10728 51.3762
      vertex -2.125 -4.62308 51.9255
      vertex -5.125 -4.62308 51.9255
    endloop
  endfacet
  facet normal 0 -0.728967 -0.684548
    outer loop
      vertex -2.125 -4.62308 51.9255
      vertex -5.125 -4.10728 51.3762
      vertex -2.125 -4.10728 51.3762
    endloop
  endfacet
  facet normal 0 -0.0627931 -0.998027
    outer loop
      vertex -5.125 -0.751999 49.7973
      vertex -2.125 0 49.75
      vertex -2.125 -0.751999 49.7973
    endloop
  endfacet
  facet normal 0 -0.535825 -0.844329
    outer loop
      vertex -5.125 -3.52671 50.8959
      vertex -2.125 -2.89052 50.4922
      vertex -2.125 -3.52671 50.8959
    endloop
  endfacet
  facet normal -0 -0.535825 -0.844329
    outer loop
      vertex -2.125 -2.89052 50.4922
      vertex -5.125 -3.52671 50.8959
      vertex -5.125 -2.89052 50.4922
    endloop
  endfacet
  facet normal -1 2.9746e-07 6.32133e-07
    outer loop
      vertex -5.125 5.42896 58.3047
      vertex -5.125 2.20875 61.3287
      vertex -5.125 2.89052 61.0078
    endloop
  endfacet
  facet normal -1 1.56684e-07 4.82222e-07
    outer loop
      vertex -5.125 5.42896 58.3047
      vertex -5.125 1.49214 61.5615
      vertex -5.125 2.20875 61.3287
    endloop
  endfacet
  facet normal 0 0.968583 0.248689
    outer loop
      vertex -2.125 5.89372 56.8743
      vertex -5.125 5.70634 57.6041
      vertex -2.125 5.70634 57.6041
    endloop
  endfacet
  facet normal 0 0.968583 0.248689
    outer loop
      vertex -5.125 5.70634 57.6041
      vertex -2.125 5.89372 56.8743
      vertex -5.125 5.89372 56.8743
    endloop
  endfacet
  facet normal 0 0.876306 0.481756
    outer loop
      vertex -2.125 5.42896 58.3047
      vertex -5.125 5.06597 58.965
      vertex -2.125 5.06597 58.965
    endloop
  endfacet
  facet normal 0 0.876306 0.481756
    outer loop
      vertex -5.125 5.06597 58.965
      vertex -2.125 5.42896 58.3047
      vertex -5.125 5.42896 58.3047
    endloop
  endfacet
  facet normal 0 -0.0634059 0.997988
    outer loop
      vertex -5.125 0.622403 50.7892
      vertex 2.125 0.626666 50.7894
      vertex -5.125 0.626666 50.7894
    endloop
  endfacet
  facet normal -3.60119e-07 -0.0627959 0.998026
    outer loop
      vertex 2.125 0.626666 50.7894
      vertex -5.125 0.622403 50.7892
      vertex 2.125 0.00426297 50.7503
    endloop
  endfacet
  facet normal 1.61295e-07 -0.0627899 0.998027
    outer loop
      vertex -5.125 0 50.75
      vertex 2.125 0.00426297 50.7503
      vertex -5.125 0.622403 50.7892
    endloop
  endfacet
  facet normal 0 -0.0625166 0.998044
    outer loop
      vertex 2.125 0.00426297 50.7503
      vertex -5.125 0 50.75
      vertex 2.125 0 50.75
    endloop
  endfacet
  facet normal 0 -0.062794 -0.998027
    outer loop
      vertex -5.125 0 60.75
      vertex 2.125 0.626666 60.7106
      vertex 2.125 0 60.75
    endloop
  endfacet
  facet normal -0 -0.062794 -0.998027
    outer loop
      vertex 2.125 0.626666 60.7106
      vertex -5.125 0 60.75
      vertex -5.125 0.626666 60.7106
    endloop
  endfacet
  facet normal 0 0.992115 -0.125333
    outer loop
      vertex 2.125 -4.99013 56.064
      vertex -5.125 -4.91144 56.6869
      vertex 2.125 -4.91144 56.6869
    endloop
  endfacet
  facet normal 0 0.992115 -0.125333
    outer loop
      vertex -5.125 -4.91144 56.6869
      vertex 2.125 -4.99013 56.064
      vertex -5.125 -4.99013 56.064
    endloop
  endfacet
  facet normal 0 0.637424 -0.770513
    outer loop
      vertex -5.125 -3.42274 59.3948
      vertex 2.125 -2.93893 59.7951
      vertex 2.125 -3.42274 59.3948
    endloop
  endfacet
  facet normal 0 0.637424 -0.770513
    outer loop
      vertex 2.125 -2.93893 59.7951
      vertex -5.125 -3.42274 59.3948
      vertex -5.125 -2.93893 59.7951
    endloop
  endfacet
  facet normal 0 -0.72897 -0.684545
    outer loop
      vertex -5.125 3.85257 58.9371
      vertex 2.125 3.42274 59.3948
      vertex -5.125 3.42274 59.3948
    endloop
  endfacet
  facet normal 0 -0.72897 -0.684545
    outer loop
      vertex 2.125 3.42274 59.3948
      vertex -5.125 3.85257 58.9371
      vertex 2.125 3.85257 58.9371
    endloop
  endfacet
  facet normal 0 -0.929776 -0.368127
    outer loop
      vertex -5.125 4.75528 57.2951
      vertex 2.125 4.52413 57.8789
      vertex -5.125 4.52413 57.8789
    endloop
  endfacet
  facet normal 0 -0.929776 -0.368127
    outer loop
      vertex 2.125 4.52413 57.8789
      vertex -5.125 4.75528 57.2951
      vertex 2.125 4.75528 57.2951
    endloop
  endfacet
  facet normal -0 0.637424 0.770513
    outer loop
      vertex -5.125 -2.93893 51.7049
      vertex 2.125 -3.42274 52.1052
      vertex 2.125 -2.93893 51.7049
    endloop
  endfacet
  facet normal 0 0.637424 0.770513
    outer loop
      vertex 2.125 -3.42274 52.1052
      vertex -5.125 -2.93893 51.7049
      vertex -5.125 -3.42274 52.1052
    endloop
  endfacet
  facet normal 0 0.309019 -0.951056
    outer loop
      vertex -5.125 -1.84062 60.3989
      vertex 2.125 -1.24345 60.5929
      vertex 2.125 -1.84062 60.3989
    endloop
  endfacet
  facet normal 0 0.309019 -0.951056
    outer loop
      vertex 2.125 -1.24345 60.5929
      vertex -5.125 -1.84062 60.3989
      vertex -5.125 -1.24345 60.5929
    endloop
  endfacet
  facet normal 0 -0.18738 0.982288
    outer loop
      vertex -5.125 1.24345 50.9071
      vertex 2.125 0.626666 50.7894
      vertex 2.125 1.24345 50.9071
    endloop
  endfacet
  facet normal 0 -0.18738 0.982288
    outer loop
      vertex 2.125 0.626666 50.7894
      vertex -5.125 1.24345 50.9071
      vertex -5.125 0.626666 50.7894
    endloop
  endfacet
  facet normal 0 -0.968583 0.248689
    outer loop
      vertex -5.125 4.75528 54.2049
      vertex 2.125 4.91144 54.8131
      vertex -5.125 4.91144 54.8131
    endloop
  endfacet
  facet normal 0 -0.968583 0.248689
    outer loop
      vertex 2.125 4.91144 54.8131
      vertex -5.125 4.75528 54.2049
      vertex 2.125 4.75528 54.2049
    endloop
  endfacet
  facet normal 0 -0.876307 0.481753
    outer loop
      vertex -5.125 4.22164 53.0709
      vertex 2.125 4.52413 53.6211
      vertex -5.125 4.52413 53.6211
    endloop
  endfacet
  facet normal 0 -0.876307 0.481753
    outer loop
      vertex 2.125 4.52413 53.6211
      vertex -5.125 4.22164 53.0709
      vertex 2.125 4.22164 53.0709
    endloop
  endfacet
  facet normal 0 -0.535823 -0.844331
    outer loop
      vertex -5.125 2.40877 60.1315
      vertex 2.125 2.93893 59.7951
      vertex 2.125 2.40877 60.1315
    endloop
  endfacet
  facet normal -0 -0.535823 -0.844331
    outer loop
      vertex 2.125 2.93893 59.7951
      vertex -5.125 2.40877 60.1315
      vertex -5.125 2.93893 59.7951
    endloop
  endfacet
  facet normal 0 -0.637424 -0.770513
    outer loop
      vertex -5.125 2.93893 59.7951
      vertex 2.125 3.42274 59.3948
      vertex 2.125 2.93893 59.7951
    endloop
  endfacet
  facet normal -0 -0.637424 -0.770513
    outer loop
      vertex 2.125 3.42274 59.3948
      vertex -5.125 2.93893 59.7951
      vertex -5.125 3.42274 59.3948
    endloop
  endfacet
  facet normal 0 -0.309019 -0.951056
    outer loop
      vertex -5.125 1.24345 60.5929
      vertex 2.125 1.84062 60.3989
      vertex 2.125 1.24345 60.5929
    endloop
  endfacet
  facet normal -0 -0.309019 -0.951056
    outer loop
      vertex 2.125 1.84062 60.3989
      vertex -5.125 1.24345 60.5929
      vertex -5.125 1.84062 60.3989
    endloop
  endfacet
  facet normal 0 -0.809016 -0.587786
    outer loop
      vertex -5.125 4.22164 58.4291
      vertex 2.125 3.85257 58.9371
      vertex -5.125 3.85257 58.9371
    endloop
  endfacet
  facet normal 0 -0.809016 -0.587786
    outer loop
      vertex 2.125 3.85257 58.9371
      vertex -5.125 4.22164 58.4291
      vertex 2.125 4.22164 58.4291
    endloop
  endfacet
  facet normal 0 -0.968583 -0.248689
    outer loop
      vertex -5.125 4.91144 56.6869
      vertex 2.125 4.75528 57.2951
      vertex -5.125 4.75528 57.2951
    endloop
  endfacet
  facet normal 0 -0.968583 -0.248689
    outer loop
      vertex 2.125 4.75528 57.2951
      vertex -5.125 4.91144 56.6869
      vertex 2.125 4.91144 56.6869
    endloop
  endfacet
  facet normal -3.60119e-07 0.0627959 0.998026
    outer loop
      vertex -5.125 -0.622403 50.7892
      vertex 2.125 -0.626666 50.7894
      vertex 2.125 -0.00426297 50.7503
    endloop
  endfacet
  facet normal 0 0.0634059 0.997988
    outer loop
      vertex 2.125 -0.626666 50.7894
      vertex -5.125 -0.622403 50.7892
      vertex -5.125 -0.626666 50.7894
    endloop
  endfacet
  facet normal 0 0.809016 -0.587786
    outer loop
      vertex 2.125 -4.22164 58.4291
      vertex -5.125 -3.85257 58.9371
      vertex 2.125 -3.85257 58.9371
    endloop
  endfacet
  facet normal 0 0.809016 -0.587786
    outer loop
      vertex -5.125 -3.85257 58.9371
      vertex 2.125 -4.22164 58.4291
      vertex -5.125 -4.22164 58.4291
    endloop
  endfacet
  facet normal 0 0.72897 -0.684545
    outer loop
      vertex 2.125 -3.85257 58.9371
      vertex -5.125 -3.42274 59.3948
      vertex 2.125 -3.42274 59.3948
    endloop
  endfacet
  facet normal 0 0.72897 -0.684545
    outer loop
      vertex -5.125 -3.42274 59.3948
      vertex 2.125 -3.85257 58.9371
      vertex -5.125 -3.85257 58.9371
    endloop
  endfacet
  facet normal 0 0.929776 -0.368127
    outer loop
      vertex 2.125 -4.75528 57.2951
      vertex -5.125 -4.52413 57.8789
      vertex 2.125 -4.52413 57.8789
    endloop
  endfacet
  facet normal 0 0.929776 -0.368127
    outer loop
      vertex -5.125 -4.52413 57.8789
      vertex 2.125 -4.75528 57.2951
      vertex -5.125 -4.75528 57.2951
    endloop
  endfacet
  facet normal 0 0.535823 -0.844331
    outer loop
      vertex -5.125 -2.93893 59.7951
      vertex 2.125 -2.40877 60.1315
      vertex 2.125 -2.93893 59.7951
    endloop
  endfacet
  facet normal 0 0.535823 -0.844331
    outer loop
      vertex 2.125 -2.40877 60.1315
      vertex -5.125 -2.93893 59.7951
      vertex -5.125 -2.40877 60.1315
    endloop
  endfacet
  facet normal 0 0.18738 -0.982288
    outer loop
      vertex -5.125 -1.24345 60.5929
      vertex 2.125 -0.626666 60.7106
      vertex 2.125 -1.24345 60.5929
    endloop
  endfacet
  facet normal 0 0.18738 -0.982288
    outer loop
      vertex 2.125 -0.626666 60.7106
      vertex -5.125 -1.24345 60.5929
      vertex -5.125 -0.626666 60.7106
    endloop
  endfacet
  facet normal 0 -0.309019 0.951056
    outer loop
      vertex -5.125 1.84062 51.1011
      vertex 2.125 1.24345 50.9071
      vertex 2.125 1.84062 51.1011
    endloop
  endfacet
  facet normal 0 -0.309019 0.951056
    outer loop
      vertex 2.125 1.24345 50.9071
      vertex -5.125 1.84062 51.1011
      vertex -5.125 1.24345 50.9071
    endloop
  endfacet
  facet normal 0 -0.637424 0.770513
    outer loop
      vertex -5.125 3.42274 52.1052
      vertex 2.125 2.93893 51.7049
      vertex 2.125 3.42274 52.1052
    endloop
  endfacet
  facet normal 0 -0.637424 0.770513
    outer loop
      vertex 2.125 2.93893 51.7049
      vertex -5.125 3.42274 52.1052
      vertex -5.125 2.93893 51.7049
    endloop
  endfacet
  facet normal 0 -0.72897 0.684545
    outer loop
      vertex -5.125 3.42274 52.1052
      vertex 2.125 3.85257 52.5629
      vertex -5.125 3.85257 52.5629
    endloop
  endfacet
  facet normal 0 -0.72897 0.684545
    outer loop
      vertex 2.125 3.85257 52.5629
      vertex -5.125 3.42274 52.1052
      vertex 2.125 3.42274 52.1052
    endloop
  endfacet
  facet normal 0 -0.535823 0.844331
    outer loop
      vertex -5.125 2.93893 51.7049
      vertex 2.125 2.40877 51.3685
      vertex 2.125 2.93893 51.7049
    endloop
  endfacet
  facet normal 0 -0.535823 0.844331
    outer loop
      vertex 2.125 2.40877 51.3685
      vertex -5.125 2.93893 51.7049
      vertex -5.125 2.40877 51.3685
    endloop
  endfacet
  facet normal 0 -0.992115 0.125333
    outer loop
      vertex -5.125 4.91144 54.8131
      vertex 2.125 4.99013 55.436
      vertex -5.125 4.99013 55.436
    endloop
  endfacet
  facet normal 0 -0.992115 0.125333
    outer loop
      vertex 2.125 4.99013 55.436
      vertex -5.125 4.91144 54.8131
      vertex 2.125 4.91144 54.8131
    endloop
  endfacet
  facet normal 0 -0.929776 0.368127
    outer loop
      vertex -5.125 4.52413 53.6211
      vertex 2.125 4.75528 54.2049
      vertex -5.125 4.75528 54.2049
    endloop
  endfacet
  facet normal 0 -0.929776 0.368127
    outer loop
      vertex 2.125 4.75528 54.2049
      vertex -5.125 4.52413 53.6211
      vertex 2.125 4.52413 53.6211
    endloop
  endfacet
  facet normal 0 -0.809016 0.587786
    outer loop
      vertex -5.125 3.85257 52.5629
      vertex 2.125 4.22164 53.0709
      vertex -5.125 4.22164 53.0709
    endloop
  endfacet
  facet normal 0 -0.809016 0.587786
    outer loop
      vertex 2.125 4.22164 53.0709
      vertex -5.125 3.85257 52.5629
      vertex 2.125 3.85257 52.5629
    endloop
  endfacet
  facet normal 0 -0.425779 -0.904827
    outer loop
      vertex -5.125 1.84062 60.3989
      vertex 2.125 2.40877 60.1315
      vertex 2.125 1.84062 60.3989
    endloop
  endfacet
  facet normal -0 -0.425779 -0.904827
    outer loop
      vertex 2.125 2.40877 60.1315
      vertex -5.125 1.84062 60.3989
      vertex -5.125 2.40877 60.1315
    endloop
  endfacet
  facet normal 0 -0.18738 -0.982288
    outer loop
      vertex -5.125 0.626666 60.7106
      vertex 2.125 1.24345 60.5929
      vertex 2.125 0.626666 60.7106
    endloop
  endfacet
  facet normal -0 -0.18738 -0.982288
    outer loop
      vertex 2.125 1.24345 60.5929
      vertex -5.125 0.626666 60.7106
      vertex -5.125 1.24345 60.5929
    endloop
  endfacet
  facet normal 0 -0.876307 -0.481753
    outer loop
      vertex -5.125 4.29006 58.3047
      vertex 2.125 4.22164 58.4291
      vertex -5.125 4.22164 58.4291
    endloop
  endfacet
  facet normal -0 -0.876307 -0.481753
    outer loop
      vertex 2.125 4.52413 57.8789
      vertex -5.125 4.29006 58.3047
      vertex -5.125 4.52413 57.8789
    endloop
  endfacet
  facet normal -1.07885e-09 -0.876307 -0.481753
    outer loop
      vertex -5.125 4.29006 58.3047
      vertex 2.125 4.52413 57.8789
      vertex 2.125 4.22164 58.4291
    endloop
  endfacet
  facet normal 0 -0.992115 -0.125333
    outer loop
      vertex -5.125 4.99013 56.064
      vertex 2.125 4.91144 56.6869
      vertex -5.125 4.91144 56.6869
    endloop
  endfacet
  facet normal 0 -0.992115 -0.125333
    outer loop
      vertex 2.125 4.91144 56.6869
      vertex -5.125 4.99013 56.064
      vertex 2.125 4.99013 56.064
    endloop
  endfacet
  facet normal 0 0.968583 0.248689
    outer loop
      vertex 2.125 -4.75528 54.2049
      vertex -5.125 -4.91144 54.8131
      vertex 2.125 -4.91144 54.8131
    endloop
  endfacet
  facet normal 0 0.968583 0.248689
    outer loop
      vertex -5.125 -4.91144 54.8131
      vertex 2.125 -4.75528 54.2049
      vertex -5.125 -4.75528 54.2049
    endloop
  endfacet
  facet normal -0 0.0625166 0.998044
    outer loop
      vertex -5.125 0 50.75
      vertex 2.125 -0.00426297 50.7503
      vertex 2.125 0 50.75
    endloop
  endfacet
  facet normal 1.61295e-07 0.0627899 0.998027
    outer loop
      vertex 2.125 -0.00426297 50.7503
      vertex -5.125 0 50.75
      vertex -5.125 -0.622403 50.7892
    endloop
  endfacet
  facet normal 0 0.876307 -0.481753
    outer loop
      vertex 2.125 -4.22164 58.4291
      vertex -5.125 -4.29006 58.3047
      vertex -5.125 -4.22164 58.4291
    endloop
  endfacet
  facet normal -1.07885e-09 0.876307 -0.481753
    outer loop
      vertex 2.125 -4.52413 57.8789
      vertex -5.125 -4.29006 58.3047
      vertex 2.125 -4.22164 58.4291
    endloop
  endfacet
  facet normal 0 0.876307 -0.481753
    outer loop
      vertex -5.125 -4.29006 58.3047
      vertex 2.125 -4.52413 57.8789
      vertex -5.125 -4.52413 57.8789
    endloop
  endfacet
  facet normal 0 0.968583 -0.248689
    outer loop
      vertex 2.125 -4.91144 56.6869
      vertex -5.125 -4.75528 57.2951
      vertex 2.125 -4.75528 57.2951
    endloop
  endfacet
  facet normal 0 0.968583 -0.248689
    outer loop
      vertex -5.125 -4.75528 57.2951
      vertex 2.125 -4.91144 56.6869
      vertex -5.125 -4.91144 56.6869
    endloop
  endfacet
  facet normal 0 0.425779 -0.904827
    outer loop
      vertex -5.125 -2.40877 60.1315
      vertex 2.125 -1.84062 60.3989
      vertex 2.125 -2.40877 60.1315
    endloop
  endfacet
  facet normal 0 0.425779 -0.904827
    outer loop
      vertex 2.125 -1.84062 60.3989
      vertex -5.125 -2.40877 60.1315
      vertex -5.125 -1.84062 60.3989
    endloop
  endfacet
  facet normal 0 0.062794 -0.998027
    outer loop
      vertex -5.125 -0.626666 60.7106
      vertex 2.125 0 60.75
      vertex 2.125 -0.626666 60.7106
    endloop
  endfacet
  facet normal 0 0.062794 -0.998027
    outer loop
      vertex 2.125 0 60.75
      vertex -5.125 -0.626666 60.7106
      vertex -5.125 0 60.75
    endloop
  endfacet
  facet normal 0 -0.425779 0.904827
    outer loop
      vertex -5.125 2.40877 51.3685
      vertex 2.125 1.84062 51.1011
      vertex 2.125 2.40877 51.3685
    endloop
  endfacet
  facet normal 0 -0.425779 0.904827
    outer loop
      vertex 2.125 1.84062 51.1011
      vertex -5.125 2.40877 51.3685
      vertex -5.125 1.84062 51.1011
    endloop
  endfacet
  facet normal 0 -1 0
    outer loop
      vertex -5.125 4.99013 55.436
      vertex 2.125 4.99013 56.064
      vertex -5.125 4.99013 56.064
    endloop
  endfacet
  facet normal 0 -1 -0
    outer loop
      vertex 2.125 4.99013 56.064
      vertex -5.125 4.99013 55.436
      vertex 2.125 4.99013 55.436
    endloop
  endfacet
  facet normal 0 0.809016 0.587786
    outer loop
      vertex 2.125 -3.85257 52.5629
      vertex -5.125 -4.22164 53.0709
      vertex 2.125 -4.22164 53.0709
    endloop
  endfacet
  facet normal 0 0.809016 0.587786
    outer loop
      vertex -5.125 -4.22164 53.0709
      vertex 2.125 -3.85257 52.5629
      vertex -5.125 -3.85257 52.5629
    endloop
  endfacet
  facet normal -0 0.425779 0.904827
    outer loop
      vertex -5.125 -1.84062 51.1011
      vertex 2.125 -2.40877 51.3685
      vertex 2.125 -1.84062 51.1011
    endloop
  endfacet
  facet normal 0 0.425779 0.904827
    outer loop
      vertex 2.125 -2.40877 51.3685
      vertex -5.125 -1.84062 51.1011
      vertex -5.125 -2.40877 51.3685
    endloop
  endfacet
  facet normal -0 0.535823 0.844331
    outer loop
      vertex -5.125 -2.40877 51.3685
      vertex 2.125 -2.93893 51.7049
      vertex 2.125 -2.40877 51.3685
    endloop
  endfacet
  facet normal 0 0.535823 0.844331
    outer loop
      vertex 2.125 -2.93893 51.7049
      vertex -5.125 -2.40877 51.3685
      vertex -5.125 -2.93893 51.7049
    endloop
  endfacet
  facet normal -0 0.309019 0.951056
    outer loop
      vertex -5.125 -1.24345 50.9071
      vertex 2.125 -1.84062 51.1011
      vertex 2.125 -1.24345 50.9071
    endloop
  endfacet
  facet normal 0 0.309019 0.951056
    outer loop
      vertex 2.125 -1.84062 51.1011
      vertex -5.125 -1.24345 50.9071
      vertex -5.125 -1.84062 51.1011
    endloop
  endfacet
  facet normal -0 0.18738 0.982288
    outer loop
      vertex -5.125 -0.626666 50.7894
      vertex 2.125 -1.24345 50.9071
      vertex 2.125 -0.626666 50.7894
    endloop
  endfacet
  facet normal 0 0.18738 0.982288
    outer loop
      vertex 2.125 -1.24345 50.9071
      vertex -5.125 -0.626666 50.7894
      vertex -5.125 -1.24345 50.9071
    endloop
  endfacet
  facet normal 0 0.72897 0.684545
    outer loop
      vertex 2.125 -3.42274 52.1052
      vertex -5.125 -3.85257 52.5629
      vertex 2.125 -3.85257 52.5629
    endloop
  endfacet
  facet normal 0 0.72897 0.684545
    outer loop
      vertex -5.125 -3.85257 52.5629
      vertex 2.125 -3.42274 52.1052
      vertex -5.125 -3.42274 52.1052
    endloop
  endfacet
  facet normal 0 0.876307 0.481753
    outer loop
      vertex 2.125 -4.22164 53.0709
      vertex -5.125 -4.52413 53.6211
      vertex 2.125 -4.52413 53.6211
    endloop
  endfacet
  facet normal 0 0.876307 0.481753
    outer loop
      vertex -5.125 -4.52413 53.6211
      vertex 2.125 -4.22164 53.0709
      vertex -5.125 -4.22164 53.0709
    endloop
  endfacet
  facet normal 0 0.929776 0.368127
    outer loop
      vertex 2.125 -4.52413 53.6211
      vertex -5.125 -4.75528 54.2049
      vertex 2.125 -4.75528 54.2049
    endloop
  endfacet
  facet normal 0 0.929776 0.368127
    outer loop
      vertex -5.125 -4.75528 54.2049
      vertex 2.125 -4.52413 53.6211
      vertex -5.125 -4.52413 53.6211
    endloop
  endfacet
  facet normal 0 0.992115 0.125333
    outer loop
      vertex 2.125 -4.91144 54.8131
      vertex -5.125 -4.99013 55.436
      vertex 2.125 -4.99013 55.436
    endloop
  endfacet
  facet normal 0 0.992115 0.125333
    outer loop
      vertex -5.125 -4.99013 55.436
      vertex 2.125 -4.91144 54.8131
      vertex -5.125 -4.91144 54.8131
    endloop
  endfacet
  facet normal 0 1 -0
    outer loop
      vertex 2.125 -4.99013 55.436
      vertex -5.125 -4.99013 56.064
      vertex 2.125 -4.99013 56.064
    endloop
  endfacet
  facet normal 0 1 0
    outer loop
      vertex -5.125 -4.99013 56.064
      vertex 2.125 -4.99013 55.436
      vertex -5.125 -4.99013 55.436
    endloop
  endfacet
endsolid OpenSCAD_Model
