solid OpenSCAD_Model
  facet normal 1 0 0
    outer loop
      vertex 2.125 20 70
      vertex 2.125 4.99013 56.5765
      vertex 2.125 20 42.525
    endloop
  endfacet
  facet normal 1 0 0
    outer loop
      vertex 2.125 20 70
      vertex 2.125 4.91144 57.1994
      vertex 2.125 4.99013 56.5765
    endloop
  endfacet
  facet normal 1 0 0
    outer loop
      vertex 2.125 20 70
      vertex 2.125 4.75528 57.8076
      vertex 2.125 4.91144 57.1994
    endloop
  endfacet
  facet normal 1 0 0
    outer loop
      vertex 2.125 20 70
      vertex 2.125 4.52413 58.3914
      vertex 2.125 4.75528 57.8076
    endloop
  endfacet
  facet normal 1 0 0
    outer loop
      vertex 2.125 20 70
      vertex 2.125 4.22164 58.9416
      vertex 2.125 4.52413 58.3914
    endloop
  endfacet
  facet normal 1 0 0
    outer loop
      vertex 2.125 20 70
      vertex 2.125 3.85257 59.4496
      vertex 2.125 4.22164 58.9416
    endloop
  endfacet
  facet normal 1 0 0
    outer loop
      vertex 2.125 20 70
      vertex 2.125 3.42274 59.9073
      vertex 2.125 3.85257 59.4496
    endloop
  endfacet
  facet normal 1 0 0
    outer loop
      vertex 2.125 20 70
      vertex 2.125 2.93893 60.3076
      vertex 2.125 3.42274 59.9073
    endloop
  endfacet
  facet normal 1 0 0
    outer loop
      vertex 2.125 20 70
      vertex 2.125 2.40877 60.644
      vertex 2.125 2.93893 60.3076
    endloop
  endfacet
  facet normal 1 0 0
    outer loop
      vertex 2.125 20 70
      vertex 2.125 1.84062 60.9114
      vertex 2.125 2.40877 60.644
    endloop
  endfacet
  facet normal 1 0 0
    outer loop
      vertex 2.125 20 70
      vertex 2.125 1.24345 61.1054
      vertex 2.125 1.84062 60.9114
    endloop
  endfacet
  facet normal 1 0 0
    outer loop
      vertex 2.125 20 70
      vertex 2.125 0.626666 61.2231
      vertex 2.125 1.24345 61.1054
    endloop
  endfacet
  facet normal 1 0 0
    outer loop
      vertex 2.125 20 70
      vertex 2.125 0 61.2625
      vertex 2.125 0.626666 61.2231
    endloop
  endfacet
  facet normal 1 -0 0
    outer loop
      vertex 2.125 -20 70
      vertex 2.125 0 61.2625
      vertex 2.125 20 70
    endloop
  endfacet
  facet normal 1 0 0
    outer loop
      vertex 2.125 0 61.2625
      vertex 2.125 -20 70
      vertex 2.125 -0.626666 61.2231
    endloop
  endfacet
  facet normal 1 0 0
    outer loop
      vertex 2.125 -0.626666 61.2231
      vertex 2.125 -20 70
      vertex 2.125 -1.24345 61.1054
    endloop
  endfacet
  facet normal 1 0 0
    outer loop
      vertex 2.125 -4.99013 56.5765
      vertex 2.125 -20 70
      vertex 2.125 -4.99013 55.9485
    endloop
  endfacet
  facet normal 1 0 0
    outer loop
      vertex 2.125 -4.91144 57.1994
      vertex 2.125 -20 70
      vertex 2.125 -4.99013 56.5765
    endloop
  endfacet
  facet normal 1 0 0
    outer loop
      vertex 2.125 -4.75528 57.8076
      vertex 2.125 -20 70
      vertex 2.125 -4.91144 57.1994
    endloop
  endfacet
  facet normal 1 0 0
    outer loop
      vertex 2.125 -4.52413 58.3914
      vertex 2.125 -20 70
      vertex 2.125 -4.75528 57.8076
    endloop
  endfacet
  facet normal 1 0 0
    outer loop
      vertex 2.125 -4.22164 58.9416
      vertex 2.125 -20 70
      vertex 2.125 -4.52413 58.3914
    endloop
  endfacet
  facet normal 1 0 0
    outer loop
      vertex 2.125 -3.85257 59.4496
      vertex 2.125 -20 70
      vertex 2.125 -4.22164 58.9416
    endloop
  endfacet
  facet normal 1 0 0
    outer loop
      vertex 2.125 -3.42274 59.9073
      vertex 2.125 -20 70
      vertex 2.125 -3.85257 59.4496
    endloop
  endfacet
  facet normal 1 0 0
    outer loop
      vertex 2.125 -2.93893 60.3076
      vertex 2.125 -20 70
      vertex 2.125 -3.42274 59.9073
    endloop
  endfacet
  facet normal 1 0 0
    outer loop
      vertex 2.125 -2.40877 60.644
      vertex 2.125 -20 70
      vertex 2.125 -2.93893 60.3076
    endloop
  endfacet
  facet normal 1 0 0
    outer loop
      vertex 2.125 -1.84062 60.9114
      vertex 2.125 -20 70
      vertex 2.125 -2.40877 60.644
    endloop
  endfacet
  facet normal 1 0 0
    outer loop
      vertex 2.125 -1.24345 61.1054
      vertex 2.125 -20 70
      vertex 2.125 -1.84062 60.9114
    endloop
  endfacet
  facet normal 1 -0 0
    outer loop
      vertex 2.125 4.99013 55.9485
      vertex 2.125 20 42.525
      vertex 2.125 4.99013 56.5765
    endloop
  endfacet
  facet normal 1 -0 0
    outer loop
      vertex 2.125 4.91144 55.3256
      vertex 2.125 20 42.525
      vertex 2.125 4.99013 55.9485
    endloop
  endfacet
  facet normal 1 -0 0
    outer loop
      vertex 2.125 4.75528 54.7174
      vertex 2.125 20 42.525
      vertex 2.125 4.91144 55.3256
    endloop
  endfacet
  facet normal 1 -0 0
    outer loop
      vertex 2.125 4.52413 54.1336
      vertex 2.125 20 42.525
      vertex 2.125 4.75528 54.7174
    endloop
  endfacet
  facet normal 1 -0 0
    outer loop
      vertex 2.125 4.22164 53.5834
      vertex 2.125 20 42.525
      vertex 2.125 4.52413 54.1336
    endloop
  endfacet
  facet normal 1 -0 0
    outer loop
      vertex 2.125 3.85257 53.0754
      vertex 2.125 20 42.525
      vertex 2.125 4.22164 53.5834
    endloop
  endfacet
  facet normal 1 -0 0
    outer loop
      vertex 2.125 3.42274 52.6177
      vertex 2.125 20 42.525
      vertex 2.125 3.85257 53.0754
    endloop
  endfacet
  facet normal 1 -0 0
    outer loop
      vertex 2.125 2.93893 52.2174
      vertex 2.125 20 42.525
      vertex 2.125 3.42274 52.6177
    endloop
  endfacet
  facet normal 1 -0 0
    outer loop
      vertex 2.125 2.40877 51.881
      vertex 2.125 20 42.525
      vertex 2.125 2.93893 52.2174
    endloop
  endfacet
  facet normal 1 -0 0
    outer loop
      vertex 2.125 1.84062 51.6136
      vertex 2.125 20 42.525
      vertex 2.125 2.40877 51.881
    endloop
  endfacet
  facet normal 1 -0 0
    outer loop
      vertex 2.125 1.24345 51.4196
      vertex 2.125 20 42.525
      vertex 2.125 1.84062 51.6136
    endloop
  endfacet
  facet normal 1 -0 0
    outer loop
      vertex 2.125 0.626666 51.3019
      vertex 2.125 20 42.525
      vertex 2.125 1.24345 51.4196
    endloop
  endfacet
  facet normal 1 -0 0
    outer loop
      vertex 2.125 0.00426297 51.2628
      vertex 2.125 20 42.525
      vertex 2.125 0.626666 51.3019
    endloop
  endfacet
  facet normal 1 -0 0
    outer loop
      vertex 2.125 0 51.2625
      vertex 2.125 20 42.525
      vertex 2.125 0.00426297 51.2628
    endloop
  endfacet
  facet normal 1 0 0
    outer loop
      vertex 2.125 -20 42.525
      vertex 2.125 0 51.2625
      vertex 2.125 -0.00426297 51.2628
    endloop
  endfacet
  facet normal 1 0 0
    outer loop
      vertex 2.125 -20 42.525
      vertex 2.125 -0.00426297 51.2628
      vertex 2.125 -0.626666 51.3019
    endloop
  endfacet
  facet normal 1 0 0
    outer loop
      vertex 2.125 -20 42.525
      vertex 2.125 -0.626666 51.3019
      vertex 2.125 -1.24345 51.4196
    endloop
  endfacet
  facet normal 1 0 0
    outer loop
      vertex 2.125 -20 42.525
      vertex 2.125 -1.24345 51.4196
      vertex 2.125 -1.84062 51.6136
    endloop
  endfacet
  facet normal 1 0 0
    outer loop
      vertex 2.125 -20 42.525
      vertex 2.125 -4.99013 55.9485
      vertex 2.125 -20 70
    endloop
  endfacet
  facet normal 1 0 0
    outer loop
      vertex 2.125 -4.99013 55.9485
      vertex 2.125 -20 42.525
      vertex 2.125 -4.91144 55.3256
    endloop
  endfacet
  facet normal 1 0 0
    outer loop
      vertex 2.125 -4.91144 55.3256
      vertex 2.125 -20 42.525
      vertex 2.125 -4.75528 54.7174
    endloop
  endfacet
  facet normal 1 0 0
    outer loop
      vertex 2.125 -4.75528 54.7174
      vertex 2.125 -20 42.525
      vertex 2.125 -4.52413 54.1336
    endloop
  endfacet
  facet normal 1 0 0
    outer loop
      vertex 2.125 -4.52413 54.1336
      vertex 2.125 -20 42.525
      vertex 2.125 -4.22164 53.5834
    endloop
  endfacet
  facet normal 1 0 0
    outer loop
      vertex 2.125 -4.22164 53.5834
      vertex 2.125 -20 42.525
      vertex 2.125 -3.85257 53.0754
    endloop
  endfacet
  facet normal 1 0 0
    outer loop
      vertex 2.125 0 51.2625
      vertex 2.125 -20 42.525
      vertex 2.125 20 42.525
    endloop
  endfacet
  facet normal 1 0 0
    outer loop
      vertex 2.125 -2.40877 51.881
      vertex 2.125 -20 42.525
      vertex 2.125 -1.84062 51.6136
    endloop
  endfacet
  facet normal 1 0 0
    outer loop
      vertex 2.125 -2.93893 52.2174
      vertex 2.125 -20 42.525
      vertex 2.125 -2.40877 51.881
    endloop
  endfacet
  facet normal 1 0 0
    outer loop
      vertex 2.125 -3.42274 52.6177
      vertex 2.125 -20 42.525
      vertex 2.125 -2.93893 52.2174
    endloop
  endfacet
  facet normal 1 0 0
    outer loop
      vertex 2.125 -3.85257 53.0754
      vertex 2.125 -20 42.525
      vertex 2.125 -3.42274 52.6177
    endloop
  endfacet
  facet normal -0 0 1
    outer loop
      vertex -2.125 20 70
      vertex -0.65 -20 70
      vertex -0.65 20 70
    endloop
  endfacet
  facet normal 0 0 1
    outer loop
      vertex -0.65 -20 70
      vertex -2.125 20 70
      vertex -2.125 -20 70
    endloop
  endfacet
  facet normal 0 0 1
    outer loop
      vertex -0.65 20 70
      vertex 0.65 20 70
      vertex 0.65 23.9 70
    endloop
  endfacet
  facet normal 0 0 1
    outer loop
      vertex 0.65 20 70
      vertex -0.65 20 70
      vertex 0.65 -20 70
    endloop
  endfacet
  facet normal 0 0 1
    outer loop
      vertex -0.65 20 70
      vertex 0.65 23.9 70
      vertex -0.65 23.9 70
    endloop
  endfacet
  facet normal 0 0 1
    outer loop
      vertex -0.65 -20 70
      vertex 0.65 -20 70
      vertex -0.65 20 70
    endloop
  endfacet
  facet normal 0 0 1
    outer loop
      vertex 0.65 -20 70
      vertex -0.65 -20 70
      vertex 0.65 -23.9 70
    endloop
  endfacet
  facet normal 0 0 1
    outer loop
      vertex 0.65 -23.9 70
      vertex -0.65 -20 70
      vertex -0.65 -23.9 70
    endloop
  endfacet
  facet normal -0 0 1
    outer loop
      vertex 0.65 20 70
      vertex 2.125 -20 70
      vertex 2.125 20 70
    endloop
  endfacet
  facet normal 0 0 1
    outer loop
      vertex 2.125 -20 70
      vertex 0.65 20 70
      vertex 0.65 -20 70
    endloop
  endfacet
  facet normal -1 0 0
    outer loop
      vertex -2.125 20 42.525
      vertex -2.125 5.98816 55.8858
      vertex -2.125 20 70
    endloop
  endfacet
  facet normal -1 0 0
    outer loop
      vertex -2.125 20 42.525
      vertex -2.125 5.89372 55.1382
      vertex -2.125 5.98816 55.8858
    endloop
  endfacet
  facet normal -1 0 0
    outer loop
      vertex -2.125 20 42.525
      vertex -2.125 5.70634 54.4084
      vertex -2.125 5.89372 55.1382
    endloop
  endfacet
  facet normal -1 0 0
    outer loop
      vertex -2.125 20 42.525
      vertex -2.125 5.42896 53.7078
      vertex -2.125 5.70634 54.4084
    endloop
  endfacet
  facet normal -1 0 0
    outer loop
      vertex -2.125 20 42.525
      vertex -2.125 5.06597 53.0475
      vertex -2.125 5.42896 53.7078
    endloop
  endfacet
  facet normal -1 0 0
    outer loop
      vertex -2.125 20 42.525
      vertex -2.125 4.62308 52.438
      vertex -2.125 5.06597 53.0475
    endloop
  endfacet
  facet normal -1 0 0
    outer loop
      vertex -2.125 20 42.525
      vertex -2.125 4.10728 51.8887
      vertex -2.125 4.62308 52.438
    endloop
  endfacet
  facet normal -1 0 0
    outer loop
      vertex -2.125 20 42.525
      vertex -2.125 3.52671 51.4084
      vertex -2.125 4.10728 51.8887
    endloop
  endfacet
  facet normal -1 0 0
    outer loop
      vertex -2.125 20 42.525
      vertex -2.125 2.89052 51.0047
      vertex -2.125 3.52671 51.4084
    endloop
  endfacet
  facet normal -1 0 0
    outer loop
      vertex -2.125 20 42.525
      vertex -2.125 2.20875 50.6838
      vertex -2.125 2.89052 51.0047
    endloop
  endfacet
  facet normal -1 0 0
    outer loop
      vertex -2.125 20 42.525
      vertex -2.125 1.49214 50.451
      vertex -2.125 2.20875 50.6838
    endloop
  endfacet
  facet normal -1 0 0
    outer loop
      vertex -2.125 20 42.525
      vertex -2.125 0.751999 50.3098
      vertex -2.125 1.49214 50.451
    endloop
  endfacet
  facet normal -1 0 0
    outer loop
      vertex -2.125 20 42.525
      vertex -2.125 0 50.2625
      vertex -2.125 0.751999 50.3098
    endloop
  endfacet
  facet normal -1 0 0
    outer loop
      vertex -2.125 -20 42.525
      vertex -2.125 0 50.2625
      vertex -2.125 20 42.525
    endloop
  endfacet
  facet normal -1 -0 0
    outer loop
      vertex -2.125 0 50.2625
      vertex -2.125 -20 42.525
      vertex -2.125 -0.751999 50.3098
    endloop
  endfacet
  facet normal -1 -0 0
    outer loop
      vertex -2.125 -0.751999 50.3098
      vertex -2.125 -20 42.525
      vertex -2.125 -1.49214 50.451
    endloop
  endfacet
  facet normal -1 -0 0
    outer loop
      vertex -2.125 -5.98816 55.8858
      vertex -2.125 -20 42.525
      vertex -2.125 -5.98816 56.6392
    endloop
  endfacet
  facet normal -1 -0 0
    outer loop
      vertex -2.125 -5.89372 55.1382
      vertex -2.125 -20 42.525
      vertex -2.125 -5.98816 55.8858
    endloop
  endfacet
  facet normal -1 -0 0
    outer loop
      vertex -2.125 -5.70634 54.4084
      vertex -2.125 -20 42.525
      vertex -2.125 -5.89372 55.1382
    endloop
  endfacet
  facet normal -1 -0 0
    outer loop
      vertex -2.125 -5.42896 53.7078
      vertex -2.125 -20 42.525
      vertex -2.125 -5.70634 54.4084
    endloop
  endfacet
  facet normal -1 -0 0
    outer loop
      vertex -2.125 -5.06597 53.0475
      vertex -2.125 -20 42.525
      vertex -2.125 -5.42896 53.7078
    endloop
  endfacet
  facet normal -1 -0 0
    outer loop
      vertex -2.125 -4.62308 52.438
      vertex -2.125 -20 42.525
      vertex -2.125 -5.06597 53.0475
    endloop
  endfacet
  facet normal -1 -0 0
    outer loop
      vertex -2.125 -4.10728 51.8887
      vertex -2.125 -20 42.525
      vertex -2.125 -4.62308 52.438
    endloop
  endfacet
  facet normal -1 -0 0
    outer loop
      vertex -2.125 -3.52671 51.4084
      vertex -2.125 -20 42.525
      vertex -2.125 -4.10728 51.8887
    endloop
  endfacet
  facet normal -1 -0 0
    outer loop
      vertex -2.125 -2.89052 51.0047
      vertex -2.125 -20 42.525
      vertex -2.125 -3.52671 51.4084
    endloop
  endfacet
  facet normal -1 -0 0
    outer loop
      vertex -2.125 -2.20875 50.6838
      vertex -2.125 -20 42.525
      vertex -2.125 -2.89052 51.0047
    endloop
  endfacet
  facet normal -1 -0 0
    outer loop
      vertex -2.125 -1.49214 50.451
      vertex -2.125 -20 42.525
      vertex -2.125 -2.20875 50.6838
    endloop
  endfacet
  facet normal -1 0 0
    outer loop
      vertex -2.125 5.98816 56.6392
      vertex -2.125 20 70
      vertex -2.125 5.98816 55.8858
    endloop
  endfacet
  facet normal -1 0 0
    outer loop
      vertex -2.125 5.89372 57.3868
      vertex -2.125 20 70
      vertex -2.125 5.98816 56.6392
    endloop
  endfacet
  facet normal -1 0 0
    outer loop
      vertex -2.125 5.70634 58.1166
      vertex -2.125 20 70
      vertex -2.125 5.89372 57.3868
    endloop
  endfacet
  facet normal -1 0 0
    outer loop
      vertex -2.125 5.42896 58.8172
      vertex -2.125 20 70
      vertex -2.125 5.70634 58.1166
    endloop
  endfacet
  facet normal -1 0 0
    outer loop
      vertex -2.125 5.06597 59.4775
      vertex -2.125 20 70
      vertex -2.125 5.42896 58.8172
    endloop
  endfacet
  facet normal -1 0 0
    outer loop
      vertex -2.125 4.62308 60.087
      vertex -2.125 20 70
      vertex -2.125 5.06597 59.4775
    endloop
  endfacet
  facet normal -1 0 0
    outer loop
      vertex -2.125 4.10728 60.6363
      vertex -2.125 20 70
      vertex -2.125 4.62308 60.087
    endloop
  endfacet
  facet normal -1 0 0
    outer loop
      vertex -2.125 3.52671 61.1166
      vertex -2.125 20 70
      vertex -2.125 4.10728 60.6363
    endloop
  endfacet
  facet normal -1 0 0
    outer loop
      vertex -2.125 2.89052 61.5203
      vertex -2.125 20 70
      vertex -2.125 3.52671 61.1166
    endloop
  endfacet
  facet normal -1 0 0
    outer loop
      vertex -2.125 2.20875 61.8412
      vertex -2.125 20 70
      vertex -2.125 2.89052 61.5203
    endloop
  endfacet
  facet normal -1 0 0
    outer loop
      vertex -2.125 1.49214 62.074
      vertex -2.125 20 70
      vertex -2.125 2.20875 61.8412
    endloop
  endfacet
  facet normal -1 0 0
    outer loop
      vertex -2.125 0.751999 62.2152
      vertex -2.125 20 70
      vertex -2.125 1.49214 62.074
    endloop
  endfacet
  facet normal -1 0 0
    outer loop
      vertex -2.125 0 62.2625
      vertex -2.125 20 70
      vertex -2.125 0.751999 62.2152
    endloop
  endfacet
  facet normal -1 0 0
    outer loop
      vertex -2.125 -20 70
      vertex -2.125 0 62.2625
      vertex -2.125 -0.751999 62.2152
    endloop
  endfacet
  facet normal -1 0 0
    outer loop
      vertex -2.125 -20 70
      vertex -2.125 -0.751999 62.2152
      vertex -2.125 -1.49214 62.074
    endloop
  endfacet
  facet normal -1 0 0
    outer loop
      vertex -2.125 -20 70
      vertex -2.125 -1.49214 62.074
      vertex -2.125 -2.20875 61.8412
    endloop
  endfacet
  facet normal -1 0 0
    outer loop
      vertex -2.125 -20 70
      vertex -2.125 -5.98816 56.6392
      vertex -2.125 -20 42.525
    endloop
  endfacet
  facet normal -1 0 0
    outer loop
      vertex -2.125 -5.98816 56.6392
      vertex -2.125 -20 70
      vertex -2.125 -5.89372 57.3868
    endloop
  endfacet
  facet normal -1 0 0
    outer loop
      vertex -2.125 -5.89372 57.3868
      vertex -2.125 -20 70
      vertex -2.125 -5.70634 58.1166
    endloop
  endfacet
  facet normal -1 0 0
    outer loop
      vertex -2.125 -5.70634 58.1166
      vertex -2.125 -20 70
      vertex -2.125 -5.42896 58.8172
    endloop
  endfacet
  facet normal -1 0 0
    outer loop
      vertex -2.125 -5.42896 58.8172
      vertex -2.125 -20 70
      vertex -2.125 -5.06597 59.4775
    endloop
  endfacet
  facet normal -1 0 0
    outer loop
      vertex -2.125 0 62.2625
      vertex -2.125 -20 70
      vertex -2.125 20 70
    endloop
  endfacet
  facet normal -1 0 0
    outer loop
      vertex -2.125 -2.89052 61.5203
      vertex -2.125 -20 70
      vertex -2.125 -2.20875 61.8412
    endloop
  endfacet
  facet normal -1 0 0
    outer loop
      vertex -2.125 -3.52671 61.1166
      vertex -2.125 -20 70
      vertex -2.125 -2.89052 61.5203
    endloop
  endfacet
  facet normal -1 0 0
    outer loop
      vertex -2.125 -4.10728 60.6363
      vertex -2.125 -20 70
      vertex -2.125 -3.52671 61.1166
    endloop
  endfacet
  facet normal -1 0 0
    outer loop
      vertex -2.125 -4.62308 60.087
      vertex -2.125 -20 70
      vertex -2.125 -4.10728 60.6363
    endloop
  endfacet
  facet normal -1 0 0
    outer loop
      vertex -2.125 -5.06597 59.4775
      vertex -2.125 -20 70
      vertex -2.125 -4.62308 60.087
    endloop
  endfacet
  facet normal 0 0 -1
    outer loop
      vertex 0.65 -20 42.525
      vertex 2.125 20 42.525
      vertex 2.125 -20 42.525
    endloop
  endfacet
  facet normal -0 0 -1
    outer loop
      vertex 2.125 20 42.525
      vertex 0.65 -20 42.525
      vertex 0.65 20 42.525
    endloop
  endfacet
  facet normal 0 0 -1
    outer loop
      vertex -2.125 -20 42.525
      vertex -0.65 20 42.525
      vertex -0.65 -20 42.525
    endloop
  endfacet
  facet normal -0 0 -1
    outer loop
      vertex -0.65 20 42.525
      vertex -2.125 -20 42.525
      vertex -2.125 20 42.525
    endloop
  endfacet
  facet normal 0 -1 0
    outer loop
      vertex 0.65 -20 42.525
      vertex 2.125 -20 70
      vertex 0.65 -20 70
    endloop
  endfacet
  facet normal 0 -1 -0
    outer loop
      vertex 2.125 -20 70
      vertex 0.65 -20 42.525
      vertex 2.125 -20 42.525
    endloop
  endfacet
  facet normal 0 -1 0
    outer loop
      vertex -2.125 -20 42.525
      vertex -0.65 -20 70
      vertex -2.125 -20 70
    endloop
  endfacet
  facet normal 0 -1 -0
    outer loop
      vertex -0.65 -20 70
      vertex -2.125 -20 42.525
      vertex -0.65 -20 42.525
    endloop
  endfacet
  facet normal 0 1 -0
    outer loop
      vertex -0.65 20 42.525
      vertex -2.125 20 70
      vertex -0.65 20 70
    endloop
  endfacet
  facet normal 0 1 0
    outer loop
      vertex -2.125 20 70
      vertex -0.65 20 42.525
      vertex -2.125 20 42.525
    endloop
  endfacet
  facet normal 0 1 -0
    outer loop
      vertex 2.125 20 42.525
      vertex 0.65 20 70
      vertex 2.125 20 70
    endloop
  endfacet
  facet normal 0 1 0
    outer loop
      vertex 0.65 20 70
      vertex 2.125 20 42.525
      vertex 0.65 20 42.525
    endloop
  endfacet
  facet normal 1 0 0
    outer loop
      vertex 0.65 -20 70
      vertex 0.65 -23.9 70
      vertex 0.65 -20 42.525
    endloop
  endfacet
  facet normal 1 0 0
    outer loop
      vertex 0.65 20 42.525
      vertex 0.65 23.9 70
      vertex 0.65 20 70
    endloop
  endfacet
  facet normal 1 0 0
    outer loop
      vertex 0.65 23.9 70
      vertex 0.65 20 42.525
      vertex 0.65 23.9 40.525
    endloop
  endfacet
  facet normal 1 -0 0
    outer loop
      vertex 0.65 -20 42.525
      vertex 0.65 23.9 40.525
      vertex 0.65 20 42.525
    endloop
  endfacet
  facet normal 1 0 0
    outer loop
      vertex 0.65 -20 42.525
      vertex 0.65 -23.9 40.525
      vertex 0.65 23.9 40.525
    endloop
  endfacet
  facet normal 1 0 0
    outer loop
      vertex 0.65 -23.9 40.525
      vertex 0.65 -20 42.525
      vertex 0.65 -23.9 70
    endloop
  endfacet
  facet normal -1 0 0
    outer loop
      vertex -0.65 23.9 40.525
      vertex -0.65 20 42.525
      vertex -0.65 23.9 70
    endloop
  endfacet
  facet normal -1 0 0
    outer loop
      vertex -0.65 23.9 40.525
      vertex -0.65 -20 42.525
      vertex -0.65 20 42.525
    endloop
  endfacet
  facet normal -1 0 0
    outer loop
      vertex -0.65 -23.9 40.525
      vertex -0.65 -20 42.525
      vertex -0.65 23.9 40.525
    endloop
  endfacet
  facet normal -1 0 0
    outer loop
      vertex -0.65 -23.9 70
      vertex -0.65 -20 42.525
      vertex -0.65 -23.9 40.525
    endloop
  endfacet
  facet normal -1 0 0
    outer loop
      vertex -0.65 -20 42.525
      vertex -0.65 -23.9 70
      vertex -0.65 -20 70
    endloop
  endfacet
  facet normal -1 -0 0
    outer loop
      vertex -0.65 23.9 70
      vertex -0.65 20 42.525
      vertex -0.65 20 70
    endloop
  endfacet
  facet normal 0 0 -1
    outer loop
      vertex -0.65 -23.9 40.525
      vertex 0.65 23.9 40.525
      vertex 0.65 -23.9 40.525
    endloop
  endfacet
  facet normal -0 0 -1
    outer loop
      vertex 0.65 23.9 40.525
      vertex -0.65 -23.9 40.525
      vertex -0.65 23.9 40.525
    endloop
  endfacet
  facet normal 0 -1 0
    outer loop
      vertex -0.65 -23.9 40.525
      vertex 0.65 -23.9 70
      vertex -0.65 -23.9 70
    endloop
  endfacet
  facet normal 0 -1 -0
    outer loop
      vertex 0.65 -23.9 70
      vertex -0.65 -23.9 40.525
      vertex 0.65 -23.9 40.525
    endloop
  endfacet
  facet normal 0 1 -0
    outer loop
      vertex 0.65 23.9 40.525
      vertex -0.65 23.9 70
      vertex 0.65 23.9 70
    endloop
  endfacet
  facet normal 0 1 0
    outer loop
      vertex -0.65 23.9 70
      vertex 0.65 23.9 40.525
      vertex -0.65 23.9 40.525
    endloop
  endfacet
  facet normal 0 0.0627931 -0.998027
    outer loop
      vertex -5.125 0.751999 50.3098
      vertex -2.125 0.751999 50.3098
      vertex -2.125 0 50.2625
    endloop
  endfacet
  facet normal 0 0.0627931 -0.998027
    outer loop
      vertex -5.125 0 50.2625
      vertex -5.125 0.751999 50.3098
      vertex -2.125 0 50.2625
    endloop
  endfacet
  facet normal -0 0.0627931 0.998027
    outer loop
      vertex -5.125 0.751999 62.2152
      vertex -2.125 0 62.2625
      vertex -2.125 0.751999 62.2152
    endloop
  endfacet
  facet normal 0 0.0627931 0.998027
    outer loop
      vertex -2.125 0 62.2625
      vertex -5.125 0.751999 62.2152
      vertex -5.125 0 62.2625
    endloop
  endfacet
  facet normal -1 0 0
    outer loop
      vertex -5.125 4.22164 58.9416
      vertex -5.125 5.42896 58.8172
      vertex -5.125 4.29006 58.8172
    endloop
  endfacet
  facet normal -1 0 0
    outer loop
      vertex -5.125 3.85257 59.4496
      vertex -5.125 5.42896 58.8172
      vertex -5.125 4.22164 58.9416
    endloop
  endfacet
  facet normal -1 6.70587e-07 1.67147e-06
    outer loop
      vertex -5.125 3.42274 59.9073
      vertex -5.125 5.42896 58.8172
      vertex -5.125 3.85257 59.4496
    endloop
  endfacet
  facet normal -1 -6.92635e-07 -8.37252e-07
    outer loop
      vertex -5.125 2.93893 60.3076
      vertex -5.125 5.42896 58.8172
      vertex -5.125 3.42274 59.9073
    endloop
  endfacet
  facet normal -1 -3.36987e-06 -5.31012e-06
    outer loop
      vertex -5.125 2.40877 60.644
      vertex -5.125 5.42896 58.8172
      vertex -5.125 2.93893 60.3076
    endloop
  endfacet
  facet normal -1 2.03776e-07 5.97903e-07
    outer loop
      vertex -5.125 2.40877 60.644
      vertex -5.125 0 62.2625
      vertex -5.125 5.42896 58.8172
    endloop
  endfacet
  facet normal -1 4.62656e-07 9.83193e-07
    outer loop
      vertex -5.125 1.84062 60.9114
      vertex -5.125 0 62.2625
      vertex -5.125 2.40877 60.644
    endloop
  endfacet
  facet normal -1 2.0574e-07 6.33198e-07
    outer loop
      vertex -5.125 1.24345 61.1054
      vertex -5.125 0 62.2625
      vertex -5.125 1.84062 60.9114
    endloop
  endfacet
  facet normal -1 9.88826e-08 5.18365e-07
    outer loop
      vertex -5.125 0.626666 61.2231
      vertex -5.125 0 62.2625
      vertex -5.125 1.24345 61.1054
    endloop
  endfacet
  facet normal -1 3.00017e-08 4.76837e-07
    outer loop
      vertex -5.125 0 61.2625
      vertex -5.125 0 62.2625
      vertex -5.125 0.626666 61.2231
    endloop
  endfacet
  facet normal -1 -3.00017e-08 4.76837e-07
    outer loop
      vertex -5.125 -0.626666 61.2231
      vertex -5.125 0 62.2625
      vertex -5.125 0 61.2625
    endloop
  endfacet
  facet normal -1 -9.88826e-08 5.18365e-07
    outer loop
      vertex -5.125 -1.24345 61.1054
      vertex -5.125 0 62.2625
      vertex -5.125 -0.626666 61.2231
    endloop
  endfacet
  facet normal -1 -2.0574e-07 6.33198e-07
    outer loop
      vertex -5.125 -1.84062 60.9114
      vertex -5.125 0 62.2625
      vertex -5.125 -1.24345 61.1054
    endloop
  endfacet
  facet normal -1 -4.62656e-07 9.83193e-07
    outer loop
      vertex -5.125 -2.40877 60.644
      vertex -5.125 0 62.2625
      vertex -5.125 -1.84062 60.9114
    endloop
  endfacet
  facet normal -1 -3.36846e-06 5.3079e-06
    outer loop
      vertex -5.125 -2.93893 60.3076
      vertex -5.125 0 62.2625
      vertex -5.125 -2.40877 60.644
    endloop
  endfacet
  facet normal -1 4.54249e-07 -4.38979e-07
    outer loop
      vertex -5.125 -2.93893 60.3076
      vertex -5.125 -5.42896 58.8172
      vertex -5.125 0 62.2625
    endloop
  endfacet
  facet normal -1 6.92635e-07 -8.37252e-07
    outer loop
      vertex -5.125 -3.42274 59.9073
      vertex -5.125 -5.42896 58.8172
      vertex -5.125 -2.93893 60.3076
    endloop
  endfacet
  facet normal -1 -6.70587e-07 1.67147e-06
    outer loop
      vertex -5.125 -3.85257 59.4496
      vertex -5.125 -5.42896 58.8172
      vertex -5.125 -3.42274 59.9073
    endloop
  endfacet
  facet normal -1 -0 0
    outer loop
      vertex -5.125 -4.22164 58.9416
      vertex -5.125 -5.42896 58.8172
      vertex -5.125 -3.85257 59.4496
    endloop
  endfacet
  facet normal -1 0 0
    outer loop
      vertex -5.125 -5.42896 58.8172
      vertex -5.125 -4.22164 58.9416
      vertex -5.125 -4.29006 58.8172
    endloop
  endfacet
  facet normal 0 -0.0627931 -0.998027
    outer loop
      vertex -5.125 -0.751999 50.3098
      vertex -2.125 0 50.2625
      vertex -2.125 -0.751999 50.3098
    endloop
  endfacet
  facet normal 0 -0.187382 0.982287
    outer loop
      vertex -5.125 -0.751999 62.2152
      vertex -2.125 -1.49214 62.074
      vertex -2.125 -0.751999 62.2152
    endloop
  endfacet
  facet normal 0 -0.187382 0.982287
    outer loop
      vertex -2.125 -1.49214 62.074
      vertex -5.125 -0.751999 62.2152
      vertex -5.125 -1.49214 62.074
    endloop
  endfacet
  facet normal 0 0.992115 0.125333
    outer loop
      vertex -2.125 5.98816 56.6392
      vertex -5.125 5.89372 57.3868
      vertex -2.125 5.89372 57.3868
    endloop
  endfacet
  facet normal 0 0.992115 0.125333
    outer loop
      vertex -5.125 5.89372 57.3868
      vertex -2.125 5.98816 56.6392
      vertex -5.125 5.98816 56.6392
    endloop
  endfacet
  facet normal 0 -0.42578 0.904827
    outer loop
      vertex -5.125 -2.20875 61.8412
      vertex -2.125 -2.89052 61.5203
      vertex -2.125 -2.20875 61.8412
    endloop
  endfacet
  facet normal 0 -0.42578 0.904827
    outer loop
      vertex -2.125 -2.89052 61.5203
      vertex -5.125 -2.20875 61.8412
      vertex -5.125 -2.89052 61.5203
    endloop
  endfacet
  facet normal 0 -0.809016 -0.587786
    outer loop
      vertex -5.125 -4.62308 52.438
      vertex -2.125 -5.06597 53.0475
      vertex -5.125 -5.06597 53.0475
    endloop
  endfacet
  facet normal 0 -0.809016 -0.587786
    outer loop
      vertex -2.125 -5.06597 53.0475
      vertex -5.125 -4.62308 52.438
      vertex -2.125 -4.62308 52.438
    endloop
  endfacet
  facet normal 0 -0.309019 -0.951056
    outer loop
      vertex -5.125 -2.20875 50.6838
      vertex -2.125 -1.49214 50.451
      vertex -2.125 -2.20875 50.6838
    endloop
  endfacet
  facet normal -0 -0.309019 -0.951056
    outer loop
      vertex -2.125 -1.49214 50.451
      vertex -5.125 -2.20875 50.6838
      vertex -5.125 -1.49214 50.451
    endloop
  endfacet
  facet normal 0 -0.992115 0.125333
    outer loop
      vertex -5.125 -5.98816 56.6392
      vertex -2.125 -5.89372 57.3868
      vertex -5.125 -5.89372 57.3868
    endloop
  endfacet
  facet normal 0 -0.992115 0.125333
    outer loop
      vertex -2.125 -5.89372 57.3868
      vertex -5.125 -5.98816 56.6392
      vertex -2.125 -5.98816 56.6392
    endloop
  endfacet
  facet normal 0 -0.929777 0.368124
    outer loop
      vertex -5.125 -5.70634 58.1166
      vertex -2.125 -5.42896 58.8172
      vertex -5.125 -5.42896 58.8172
    endloop
  endfacet
  facet normal 0 -0.929777 0.368124
    outer loop
      vertex -2.125 -5.42896 58.8172
      vertex -5.125 -5.70634 58.1166
      vertex -2.125 -5.70634 58.1166
    endloop
  endfacet
  facet normal 0 -0.309014 0.951057
    outer loop
      vertex -5.125 -1.49214 62.074
      vertex -2.125 -2.20875 61.8412
      vertex -2.125 -1.49214 62.074
    endloop
  endfacet
  facet normal 0 -0.309014 0.951057
    outer loop
      vertex -2.125 -2.20875 61.8412
      vertex -5.125 -1.49214 62.074
      vertex -5.125 -2.20875 61.8412
    endloop
  endfacet
  facet normal -1 1.93323e-08 3.07265e-07
    outer loop
      vertex -5.125 5.42896 58.8172
      vertex -5.125 0 62.2625
      vertex -5.125 0.751999 62.2152
    endloop
  endfacet
  facet normal -1 5.54125e-07 8.73158e-07
    outer loop
      vertex -5.125 5.42896 58.8172
      vertex -5.125 2.89052 61.5203
      vertex -5.125 3.52671 61.1166
    endloop
  endfacet
  facet normal -0 0.309014 0.951057
    outer loop
      vertex -5.125 2.20875 61.8412
      vertex -2.125 1.49214 62.074
      vertex -2.125 2.20875 61.8412
    endloop
  endfacet
  facet normal 0 0.309014 0.951057
    outer loop
      vertex -2.125 1.49214 62.074
      vertex -5.125 2.20875 61.8412
      vertex -5.125 1.49214 62.074
    endloop
  endfacet
  facet normal 0 0.187377 -0.982288
    outer loop
      vertex -5.125 0.751999 50.3098
      vertex -2.125 1.49214 50.451
      vertex -2.125 0.751999 50.3098
    endloop
  endfacet
  facet normal 0 0.187377 -0.982288
    outer loop
      vertex -2.125 1.49214 50.451
      vertex -5.125 0.751999 50.3098
      vertex -5.125 1.49214 50.451
    endloop
  endfacet
  facet normal 0 0.637424 -0.770513
    outer loop
      vertex -5.125 3.52671 51.4084
      vertex -2.125 4.10728 51.8887
      vertex -2.125 3.52671 51.4084
    endloop
  endfacet
  facet normal 0 0.637424 -0.770513
    outer loop
      vertex -2.125 4.10728 51.8887
      vertex -5.125 3.52671 51.4084
      vertex -5.125 4.10728 51.8887
    endloop
  endfacet
  facet normal 0 0.929776 -0.368125
    outer loop
      vertex -2.125 5.42896 53.7078
      vertex -5.125 5.70634 54.4084
      vertex -2.125 5.70634 54.4084
    endloop
  endfacet
  facet normal 0 0.929776 -0.368125
    outer loop
      vertex -5.125 5.70634 54.4084
      vertex -2.125 5.42896 53.7078
      vertex -5.125 5.42896 53.7078
    endloop
  endfacet
  facet normal 0 0.968583 -0.248689
    outer loop
      vertex -2.125 5.70634 54.4084
      vertex -5.125 5.89372 55.1382
      vertex -2.125 5.89372 55.1382
    endloop
  endfacet
  facet normal 0 0.968583 -0.248689
    outer loop
      vertex -5.125 5.89372 55.1382
      vertex -2.125 5.70634 54.4084
      vertex -5.125 5.70634 54.4084
    endloop
  endfacet
  facet normal -1 -2.46679e-06 2.31647e-06
    outer loop
      vertex -5.125 -5.42896 58.8172
      vertex -5.125 -4.62308 60.087
      vertex -5.125 -4.10728 60.6363
    endloop
  endfacet
  facet normal 0 -0.968583 -0.248689
    outer loop
      vertex -5.125 -5.70634 54.4084
      vertex -2.125 -5.89372 55.1382
      vertex -5.125 -5.89372 55.1382
    endloop
  endfacet
  facet normal 0 -0.968583 -0.248689
    outer loop
      vertex -2.125 -5.89372 55.1382
      vertex -5.125 -5.70634 54.4084
      vertex -2.125 -5.70634 54.4084
    endloop
  endfacet
  facet normal 0 -0.187377 -0.982288
    outer loop
      vertex -5.125 -1.49214 50.451
      vertex -2.125 -0.751999 50.3098
      vertex -2.125 -1.49214 50.451
    endloop
  endfacet
  facet normal -0 -0.187377 -0.982288
    outer loop
      vertex -2.125 -0.751999 50.3098
      vertex -5.125 -1.49214 50.451
      vertex -5.125 -0.751999 50.3098
    endloop
  endfacet
  facet normal 0 -0.876307 -0.481754
    outer loop
      vertex -5.125 -5.06597 53.0475
      vertex -2.125 -5.42896 53.7078
      vertex -5.125 -5.42896 53.7078
    endloop
  endfacet
  facet normal 0 -0.876307 -0.481754
    outer loop
      vertex -2.125 -5.42896 53.7078
      vertex -5.125 -5.06597 53.0475
      vertex -2.125 -5.06597 53.0475
    endloop
  endfacet
  facet normal 0 -0.968583 0.248691
    outer loop
      vertex -5.125 -5.89372 57.3868
      vertex -2.125 -5.70634 58.1166
      vertex -5.125 -5.70634 58.1166
    endloop
  endfacet
  facet normal 0 -0.968583 0.248691
    outer loop
      vertex -2.125 -5.70634 58.1166
      vertex -5.125 -5.89372 57.3868
      vertex -2.125 -5.89372 57.3868
    endloop
  endfacet
  facet normal 0 -0.0627931 0.998027
    outer loop
      vertex -5.125 0 62.2625
      vertex -2.125 -0.751999 62.2152
      vertex -2.125 0 62.2625
    endloop
  endfacet
  facet normal 0 -0.0627931 0.998027
    outer loop
      vertex -2.125 -0.751999 62.2152
      vertex -5.125 0 62.2625
      vertex -5.125 -0.751999 62.2152
    endloop
  endfacet
  facet normal -1 1.56681e-07 4.82218e-07
    outer loop
      vertex -5.125 5.42896 58.8172
      vertex -5.125 1.49214 62.074
      vertex -5.125 2.20875 61.8412
    endloop
  endfacet
  facet normal -0 0.187382 0.982287
    outer loop
      vertex -5.125 1.49214 62.074
      vertex -2.125 0.751999 62.2152
      vertex -2.125 1.49214 62.074
    endloop
  endfacet
  facet normal 0 0.187382 0.982287
    outer loop
      vertex -2.125 0.751999 62.2152
      vertex -5.125 1.49214 62.074
      vertex -5.125 0.751999 62.2152
    endloop
  endfacet
  facet normal -1 7.26001e-08 3.80582e-07
    outer loop
      vertex -5.125 5.42896 58.8172
      vertex -5.125 0.751999 62.2152
      vertex -5.125 1.49214 62.074
    endloop
  endfacet
  facet normal -1 2.46679e-06 2.31647e-06
    outer loop
      vertex -5.125 5.42896 58.8172
      vertex -5.125 4.10728 60.6363
      vertex -5.125 4.62308 60.087
    endloop
  endfacet
  facet normal 0 0.728967 0.684548
    outer loop
      vertex -2.125 4.62308 60.087
      vertex -5.125 4.10728 60.6363
      vertex -2.125 4.10728 60.6363
    endloop
  endfacet
  facet normal 0 0.728967 0.684548
    outer loop
      vertex -5.125 4.10728 60.6363
      vertex -2.125 4.62308 60.087
      vertex -5.125 4.62308 60.087
    endloop
  endfacet
  facet normal -0 0.535829 0.844327
    outer loop
      vertex -5.125 3.52671 61.1166
      vertex -2.125 2.89052 61.5203
      vertex -2.125 3.52671 61.1166
    endloop
  endfacet
  facet normal 0 0.535829 0.844327
    outer loop
      vertex -2.125 2.89052 61.5203
      vertex -5.125 3.52671 61.1166
      vertex -5.125 2.89052 61.5203
    endloop
  endfacet
  facet normal -0 0.637424 0.770513
    outer loop
      vertex -5.125 4.10728 60.6363
      vertex -2.125 3.52671 61.1166
      vertex -2.125 4.10728 60.6363
    endloop
  endfacet
  facet normal 0 0.637424 0.770513
    outer loop
      vertex -2.125 3.52671 61.1166
      vertex -5.125 4.10728 60.6363
      vertex -5.125 3.52671 61.1166
    endloop
  endfacet
  facet normal 0 0.309019 -0.951056
    outer loop
      vertex -5.125 1.49214 50.451
      vertex -2.125 2.20875 50.6838
      vertex -2.125 1.49214 50.451
    endloop
  endfacet
  facet normal 0 0.309019 -0.951056
    outer loop
      vertex -2.125 2.20875 50.6838
      vertex -5.125 1.49214 50.451
      vertex -5.125 2.20875 50.6838
    endloop
  endfacet
  facet normal 0 0.42578 -0.904827
    outer loop
      vertex -5.125 2.20875 50.6838
      vertex -2.125 2.89052 51.0047
      vertex -2.125 2.20875 50.6838
    endloop
  endfacet
  facet normal 0 0.42578 -0.904827
    outer loop
      vertex -2.125 2.89052 51.0047
      vertex -5.125 2.20875 50.6838
      vertex -5.125 2.89052 51.0047
    endloop
  endfacet
  facet normal 0 0.535825 -0.844329
    outer loop
      vertex -5.125 2.89052 51.0047
      vertex -2.125 3.52671 51.4084
      vertex -2.125 2.89052 51.0047
    endloop
  endfacet
  facet normal 0 0.535825 -0.844329
    outer loop
      vertex -2.125 3.52671 51.4084
      vertex -5.125 2.89052 51.0047
      vertex -5.125 3.52671 51.4084
    endloop
  endfacet
  facet normal 0 0.809016 -0.587786
    outer loop
      vertex -2.125 4.62308 52.438
      vertex -5.125 5.06597 53.0475
      vertex -2.125 5.06597 53.0475
    endloop
  endfacet
  facet normal 0 0.809016 -0.587786
    outer loop
      vertex -5.125 5.06597 53.0475
      vertex -2.125 4.62308 52.438
      vertex -5.125 4.62308 52.438
    endloop
  endfacet
  facet normal 0 0.876307 -0.481754
    outer loop
      vertex -2.125 5.06597 53.0475
      vertex -5.125 5.42896 53.7078
      vertex -2.125 5.42896 53.7078
    endloop
  endfacet
  facet normal 0 0.876307 -0.481754
    outer loop
      vertex -5.125 5.42896 53.7078
      vertex -2.125 5.06597 53.0475
      vertex -5.125 5.06597 53.0475
    endloop
  endfacet
  facet normal 0 0.992115 -0.125333
    outer loop
      vertex -2.125 5.89372 55.1382
      vertex -5.125 5.98816 55.8858
      vertex -2.125 5.98816 55.8858
    endloop
  endfacet
  facet normal 0 0.992115 -0.125333
    outer loop
      vertex -5.125 5.98816 55.8858
      vertex -2.125 5.89372 55.1382
      vertex -5.125 5.89372 55.1382
    endloop
  endfacet
  facet normal 0 -0.535829 0.844327
    outer loop
      vertex -5.125 -2.89052 61.5203
      vertex -2.125 -3.52671 61.1166
      vertex -2.125 -2.89052 61.5203
    endloop
  endfacet
  facet normal 0 -0.535829 0.844327
    outer loop
      vertex -2.125 -3.52671 61.1166
      vertex -5.125 -2.89052 61.5203
      vertex -5.125 -3.52671 61.1166
    endloop
  endfacet
  facet normal 0 -0.728967 0.684548
    outer loop
      vertex -5.125 -4.62308 60.087
      vertex -2.125 -4.10728 60.6363
      vertex -5.125 -4.10728 60.6363
    endloop
  endfacet
  facet normal 0 -0.728967 0.684548
    outer loop
      vertex -2.125 -4.10728 60.6363
      vertex -5.125 -4.62308 60.087
      vertex -2.125 -4.62308 60.087
    endloop
  endfacet
  facet normal -1 -8.17021e-06 5.93598e-06
    outer loop
      vertex -5.125 -5.42896 58.8172
      vertex -5.125 -5.06597 59.4775
      vertex -5.125 -4.62308 60.087
    endloop
  endfacet
  facet normal -1 -1.08709e-06 1.31406e-06
    outer loop
      vertex -5.125 -5.42896 58.8172
      vertex -5.125 -4.10728 60.6363
      vertex -5.125 -3.52671 61.1166
    endloop
  endfacet
  facet normal 0 -0.637424 0.770513
    outer loop
      vertex -5.125 -3.52671 61.1166
      vertex -2.125 -4.10728 60.6363
      vertex -2.125 -3.52671 61.1166
    endloop
  endfacet
  facet normal 0 -0.637424 0.770513
    outer loop
      vertex -2.125 -4.10728 60.6363
      vertex -5.125 -3.52671 61.1166
      vertex -5.125 -4.10728 60.6363
    endloop
  endfacet
  facet normal -1 0 0
    outer loop
      vertex -5.125 5.89372 55.1382
      vertex -5.125 4.91144 55.3256
      vertex -5.125 4.99013 55.9485
    endloop
  endfacet
  facet normal -1 0 0
    outer loop
      vertex -5.125 5.42896 53.7078
      vertex -5.125 4.75528 54.7174
      vertex -5.125 4.91144 55.3256
    endloop
  endfacet
  facet normal -1 0 0
    outer loop
      vertex -5.125 4.22164 53.5834
      vertex -5.125 5.06597 53.0475
      vertex -5.125 4.62308 52.438
    endloop
  endfacet
  facet normal -1 0 0
    outer loop
      vertex -5.125 5.42896 53.7078
      vertex -5.125 4.52413 54.1336
      vertex -5.125 4.75528 54.7174
    endloop
  endfacet
  facet normal -1 0 0
    outer loop
      vertex -5.125 5.06597 53.0475
      vertex -5.125 4.22164 53.5834
      vertex -5.125 4.52413 54.1336
    endloop
  endfacet
  facet normal -1 0 0
    outer loop
      vertex -5.125 3.85257 53.0754
      vertex -5.125 4.62308 52.438
      vertex -5.125 4.10728 51.8887
    endloop
  endfacet
  facet normal -1 0 0
    outer loop
      vertex -5.125 4.62308 52.438
      vertex -5.125 3.85257 53.0754
      vertex -5.125 4.22164 53.5834
    endloop
  endfacet
  facet normal -1 0 0
    outer loop
      vertex -5.125 3.42274 52.6177
      vertex -5.125 4.10728 51.8887
      vertex -5.125 3.52671 51.4084
    endloop
  endfacet
  facet normal -1 0 0
    outer loop
      vertex -5.125 4.10728 51.8887
      vertex -5.125 3.42274 52.6177
      vertex -5.125 3.85257 53.0754
    endloop
  endfacet
  facet normal -1 0 0
    outer loop
      vertex -5.125 3.52671 51.4084
      vertex -5.125 2.93893 52.2174
      vertex -5.125 3.42274 52.6177
    endloop
  endfacet
  facet normal -1 0 0
    outer loop
      vertex -5.125 2.89052 51.0047
      vertex -5.125 2.93893 52.2174
      vertex -5.125 3.52671 51.4084
    endloop
  endfacet
  facet normal -1 0 0
    outer loop
      vertex -5.125 2.89052 51.0047
      vertex -5.125 2.40877 51.881
      vertex -5.125 2.93893 52.2174
    endloop
  endfacet
  facet normal -1 0 0
    outer loop
      vertex -5.125 2.20875 50.6838
      vertex -5.125 2.40877 51.881
      vertex -5.125 2.89052 51.0047
    endloop
  endfacet
  facet normal -1 0 0
    outer loop
      vertex -5.125 2.20875 50.6838
      vertex -5.125 1.84062 51.6136
      vertex -5.125 2.40877 51.881
    endloop
  endfacet
  facet normal -1 0 0
    outer loop
      vertex -5.125 1.49214 50.451
      vertex -5.125 1.84062 51.6136
      vertex -5.125 2.20875 50.6838
    endloop
  endfacet
  facet normal -1 0 0
    outer loop
      vertex -5.125 1.49214 50.451
      vertex -5.125 1.24345 51.4196
      vertex -5.125 1.84062 51.6136
    endloop
  endfacet
  facet normal -1 0 0
    outer loop
      vertex -5.125 0.751999 50.3098
      vertex -5.125 1.24345 51.4196
      vertex -5.125 1.49214 50.451
    endloop
  endfacet
  facet normal -1 0 0
    outer loop
      vertex -5.125 0.751999 50.3098
      vertex -5.125 0.626666 51.3019
      vertex -5.125 1.24345 51.4196
    endloop
  endfacet
  facet normal -1 0 0
    outer loop
      vertex -5.125 0.751999 50.3098
      vertex -5.125 0.622403 51.3017
      vertex -5.125 0.626666 51.3019
    endloop
  endfacet
  facet normal -1 0 0
    outer loop
      vertex -5.125 0 50.2625
      vertex -5.125 0.622403 51.3017
      vertex -5.125 0.751999 50.3098
    endloop
  endfacet
  facet normal -1 0 0
    outer loop
      vertex -5.125 0 50.2625
      vertex -5.125 0 51.2625
      vertex -5.125 0.622403 51.3017
    endloop
  endfacet
  facet normal -1 0 0
    outer loop
      vertex -5.125 0 50.2625
      vertex -5.125 -0.622403 51.3017
      vertex -5.125 0 51.2625
    endloop
  endfacet
  facet normal -1 0 0
    outer loop
      vertex -5.125 -0.751999 50.3098
      vertex -5.125 -0.622403 51.3017
      vertex -5.125 0 50.2625
    endloop
  endfacet
  facet normal -1 -0 0
    outer loop
      vertex -5.125 -0.622403 51.3017
      vertex -5.125 -0.751999 50.3098
      vertex -5.125 -0.626666 51.3019
    endloop
  endfacet
  facet normal -1 0 0
    outer loop
      vertex -5.125 -0.751999 50.3098
      vertex -5.125 -1.24345 51.4196
      vertex -5.125 -0.626666 51.3019
    endloop
  endfacet
  facet normal -1 0 0
    outer loop
      vertex -5.125 -1.49214 50.451
      vertex -5.125 -1.24345 51.4196
      vertex -5.125 -0.751999 50.3098
    endloop
  endfacet
  facet normal -1 0 0
    outer loop
      vertex -5.125 -1.49214 50.451
      vertex -5.125 -1.84062 51.6136
      vertex -5.125 -1.24345 51.4196
    endloop
  endfacet
  facet normal -1 0 0
    outer loop
      vertex -5.125 -2.20875 50.6838
      vertex -5.125 -1.84062 51.6136
      vertex -5.125 -1.49214 50.451
    endloop
  endfacet
  facet normal -1 0 0
    outer loop
      vertex -5.125 -2.20875 50.6838
      vertex -5.125 -2.40877 51.881
      vertex -5.125 -1.84062 51.6136
    endloop
  endfacet
  facet normal -1 0 0
    outer loop
      vertex -5.125 -2.89052 51.0047
      vertex -5.125 -2.40877 51.881
      vertex -5.125 -2.20875 50.6838
    endloop
  endfacet
  facet normal -1 0 0
    outer loop
      vertex -5.125 -2.89052 51.0047
      vertex -5.125 -2.93893 52.2174
      vertex -5.125 -2.40877 51.881
    endloop
  endfacet
  facet normal -1 0 0
    outer loop
      vertex -5.125 -3.52671 51.4084
      vertex -5.125 -2.93893 52.2174
      vertex -5.125 -2.89052 51.0047
    endloop
  endfacet
  facet normal -1 -0 0
    outer loop
      vertex -5.125 -2.93893 52.2174
      vertex -5.125 -3.52671 51.4084
      vertex -5.125 -3.42274 52.6177
    endloop
  endfacet
  facet normal -1 0 0
    outer loop
      vertex -5.125 -4.10728 51.8887
      vertex -5.125 -3.42274 52.6177
      vertex -5.125 -3.52671 51.4084
    endloop
  endfacet
  facet normal -1 -0 0
    outer loop
      vertex -5.125 -3.42274 52.6177
      vertex -5.125 -4.10728 51.8887
      vertex -5.125 -3.85257 53.0754
    endloop
  endfacet
  facet normal -1 0 0
    outer loop
      vertex -5.125 -4.62308 52.438
      vertex -5.125 -3.85257 53.0754
      vertex -5.125 -4.10728 51.8887
    endloop
  endfacet
  facet normal -1 -0 0
    outer loop
      vertex -5.125 -3.85257 53.0754
      vertex -5.125 -4.62308 52.438
      vertex -5.125 -4.22164 53.5834
    endloop
  endfacet
  facet normal -1 0 0
    outer loop
      vertex -5.125 -5.06597 53.0475
      vertex -5.125 -4.22164 53.5834
      vertex -5.125 -4.62308 52.438
    endloop
  endfacet
  facet normal -1 -0 0
    outer loop
      vertex -5.125 -4.22164 53.5834
      vertex -5.125 -5.06597 53.0475
      vertex -5.125 -4.52413 54.1336
    endloop
  endfacet
  facet normal -1 0 0
    outer loop
      vertex -5.125 -5.42896 53.7078
      vertex -5.125 -4.52413 54.1336
      vertex -5.125 -5.06597 53.0475
    endloop
  endfacet
  facet normal -1 -0 0
    outer loop
      vertex -5.125 -4.52413 54.1336
      vertex -5.125 -5.42896 53.7078
      vertex -5.125 -4.75528 54.7174
    endloop
  endfacet
  facet normal -1 -0 0
    outer loop
      vertex -5.125 -4.75528 54.7174
      vertex -5.125 -5.70634 54.4084
      vertex -5.125 -4.91144 55.3256
    endloop
  endfacet
  facet normal -1 0 0
    outer loop
      vertex -5.125 -5.70634 54.4084
      vertex -5.125 -4.75528 54.7174
      vertex -5.125 -5.42896 53.7078
    endloop
  endfacet
  facet normal -1 0 0
    outer loop
      vertex -5.125 4.99013 55.9485
      vertex -5.125 5.98816 55.8858
      vertex -5.125 5.89372 55.1382
    endloop
  endfacet
  facet normal -1 0 0
    outer loop
      vertex -5.125 5.98816 55.8858
      vertex -5.125 4.99013 55.9485
      vertex -5.125 5.98816 56.6392
    endloop
  endfacet
  facet normal -1 0 0
    outer loop
      vertex -5.125 4.91144 55.3256
      vertex -5.125 5.89372 55.1382
      vertex -5.125 5.70634 54.4084
    endloop
  endfacet
  facet normal -1 0 0
    outer loop
      vertex -5.125 4.99013 56.5765
      vertex -5.125 5.98816 56.6392
      vertex -5.125 4.99013 55.9485
    endloop
  endfacet
  facet normal -1 0 0
    outer loop
      vertex -5.125 4.91144 55.3256
      vertex -5.125 5.70634 54.4084
      vertex -5.125 5.42896 53.7078
    endloop
  endfacet
  facet normal -1 -0 0
    outer loop
      vertex -5.125 5.98816 56.6392
      vertex -5.125 4.99013 56.5765
      vertex -5.125 5.89372 57.3868
    endloop
  endfacet
  facet normal -1 0 0
    outer loop
      vertex -5.125 4.52413 54.1336
      vertex -5.125 5.42896 53.7078
      vertex -5.125 5.06597 53.0475
    endloop
  endfacet
  facet normal -1 0 0
    outer loop
      vertex -5.125 4.91144 57.1994
      vertex -5.125 5.89372 57.3868
      vertex -5.125 4.99013 56.5765
    endloop
  endfacet
  facet normal -1 -0 0
    outer loop
      vertex -5.125 5.89372 57.3868
      vertex -5.125 4.91144 57.1994
      vertex -5.125 5.70634 58.1166
    endloop
  endfacet
  facet normal -1 0 0
    outer loop
      vertex -5.125 4.75528 57.8076
      vertex -5.125 5.70634 58.1166
      vertex -5.125 4.91144 57.1994
    endloop
  endfacet
  facet normal -1 -0 0
    outer loop
      vertex -5.125 5.70634 58.1166
      vertex -5.125 4.75528 57.8076
      vertex -5.125 5.42896 58.8172
    endloop
  endfacet
  facet normal -1 0 0
    outer loop
      vertex -5.125 4.52413 58.3914
      vertex -5.125 5.42896 58.8172
      vertex -5.125 4.75528 57.8076
    endloop
  endfacet
  facet normal -1 -0 0
    outer loop
      vertex -5.125 5.42896 58.8172
      vertex -5.125 4.52413 58.3914
      vertex -5.125 4.29006 58.8172
    endloop
  endfacet
  facet normal -1 0 0
    outer loop
      vertex -5.125 -5.89372 55.1382
      vertex -5.125 -4.91144 55.3256
      vertex -5.125 -5.70634 54.4084
    endloop
  endfacet
  facet normal -1 -0 0
    outer loop
      vertex -5.125 -4.91144 55.3256
      vertex -5.125 -5.89372 55.1382
      vertex -5.125 -4.99013 55.9485
    endloop
  endfacet
  facet normal -1 0 0
    outer loop
      vertex -5.125 -4.52413 58.3914
      vertex -5.125 -5.42896 58.8172
      vertex -5.125 -4.29006 58.8172
    endloop
  endfacet
  facet normal -1 0 0
    outer loop
      vertex -5.125 -4.75528 57.8076
      vertex -5.125 -5.42896 58.8172
      vertex -5.125 -4.52413 58.3914
    endloop
  endfacet
  facet normal -1 0 0
    outer loop
      vertex -5.125 -5.70634 58.1166
      vertex -5.125 -4.75528 57.8076
      vertex -5.125 -4.91144 57.1994
    endloop
  endfacet
  facet normal -1 0 0
    outer loop
      vertex -5.125 -5.98816 55.8858
      vertex -5.125 -4.99013 55.9485
      vertex -5.125 -5.89372 55.1382
    endloop
  endfacet
  facet normal -1 -0 0
    outer loop
      vertex -5.125 -4.99013 55.9485
      vertex -5.125 -5.98816 55.8858
      vertex -5.125 -4.99013 56.5765
    endloop
  endfacet
  facet normal -1 0 0
    outer loop
      vertex -5.125 -4.75528 57.8076
      vertex -5.125 -5.70634 58.1166
      vertex -5.125 -5.42896 58.8172
    endloop
  endfacet
  facet normal -1 0 0
    outer loop
      vertex -5.125 -5.98816 56.6392
      vertex -5.125 -4.99013 56.5765
      vertex -5.125 -5.98816 55.8858
    endloop
  endfacet
  facet normal -1 0 0
    outer loop
      vertex -5.125 -4.91144 57.1994
      vertex -5.125 -5.89372 57.3868
      vertex -5.125 -5.70634 58.1166
    endloop
  endfacet
  facet normal -1 0 0
    outer loop
      vertex -5.125 -4.99013 56.5765
      vertex -5.125 -5.98816 56.6392
      vertex -5.125 -4.91144 57.1994
    endloop
  endfacet
  facet normal -1 -0 0
    outer loop
      vertex -5.125 -4.91144 57.1994
      vertex -5.125 -5.98816 56.6392
      vertex -5.125 -5.89372 57.3868
    endloop
  endfacet
  facet normal 0 -0.0627931 -0.998027
    outer loop
      vertex -5.125 -0.751999 50.3098
      vertex -5.125 0 50.2625
      vertex -2.125 0 50.2625
    endloop
  endfacet
  facet normal 0 -0.637424 -0.770513
    outer loop
      vertex -5.125 -4.10728 51.8887
      vertex -2.125 -3.52671 51.4084
      vertex -2.125 -4.10728 51.8887
    endloop
  endfacet
  facet normal -0 -0.637424 -0.770513
    outer loop
      vertex -2.125 -3.52671 51.4084
      vertex -5.125 -4.10728 51.8887
      vertex -5.125 -3.52671 51.4084
    endloop
  endfacet
  facet normal 0 -0.42578 -0.904827
    outer loop
      vertex -5.125 -2.89052 51.0047
      vertex -2.125 -2.20875 50.6838
      vertex -2.125 -2.89052 51.0047
    endloop
  endfacet
  facet normal -0 -0.42578 -0.904827
    outer loop
      vertex -2.125 -2.20875 50.6838
      vertex -5.125 -2.89052 51.0047
      vertex -5.125 -2.20875 50.6838
    endloop
  endfacet
  facet normal 0 -0.72897 -0.684546
    outer loop
      vertex -5.125 -4.10728 51.8887
      vertex -2.125 -4.62308 52.438
      vertex -5.125 -4.62308 52.438
    endloop
  endfacet
  facet normal 0 -0.72897 -0.684546
    outer loop
      vertex -2.125 -4.62308 52.438
      vertex -5.125 -4.10728 51.8887
      vertex -2.125 -4.10728 51.8887
    endloop
  endfacet
  facet normal 0 -0.929776 -0.368125
    outer loop
      vertex -5.125 -5.42896 53.7078
      vertex -2.125 -5.70634 54.4084
      vertex -5.125 -5.70634 54.4084
    endloop
  endfacet
  facet normal 0 -0.929776 -0.368125
    outer loop
      vertex -2.125 -5.70634 54.4084
      vertex -5.125 -5.42896 53.7078
      vertex -2.125 -5.42896 53.7078
    endloop
  endfacet
  facet normal -1 -1.56681e-07 4.82218e-07
    outer loop
      vertex -5.125 -5.42896 58.8172
      vertex -5.125 -2.20875 61.8412
      vertex -5.125 -1.49214 62.074
    endloop
  endfacet
  facet normal -1 -7.26001e-08 3.80582e-07
    outer loop
      vertex -5.125 -5.42896 58.8172
      vertex -5.125 -1.49214 62.074
      vertex -5.125 -0.751999 62.2152
    endloop
  endfacet
  facet normal -1 -1.93323e-08 3.07265e-07
    outer loop
      vertex -5.125 -5.42896 58.8172
      vertex -5.125 -0.751999 62.2152
      vertex -5.125 0 62.2625
    endloop
  endfacet
  facet normal -0 0.42578 0.904827
    outer loop
      vertex -5.125 2.89052 61.5203
      vertex -2.125 2.20875 61.8412
      vertex -2.125 2.89052 61.5203
    endloop
  endfacet
  facet normal 0 0.42578 0.904827
    outer loop
      vertex -2.125 2.20875 61.8412
      vertex -5.125 2.89052 61.5203
      vertex -5.125 2.20875 61.8412
    endloop
  endfacet
  facet normal -1 2.9746e-07 6.32133e-07
    outer loop
      vertex -5.125 5.42896 58.8172
      vertex -5.125 2.20875 61.8412
      vertex -5.125 2.89052 61.5203
    endloop
  endfacet
  facet normal -1 8.17021e-06 5.93598e-06
    outer loop
      vertex -5.125 5.42896 58.8172
      vertex -5.125 4.62308 60.087
      vertex -5.125 5.06597 59.4775
    endloop
  endfacet
  facet normal 0 0.72897 -0.684546
    outer loop
      vertex -2.125 4.10728 51.8887
      vertex -5.125 4.62308 52.438
      vertex -2.125 4.62308 52.438
    endloop
  endfacet
  facet normal 0 0.72897 -0.684546
    outer loop
      vertex -5.125 4.62308 52.438
      vertex -2.125 4.10728 51.8887
      vertex -5.125 4.10728 51.8887
    endloop
  endfacet
  facet normal 0 1 -0
    outer loop
      vertex -2.125 5.98816 55.8858
      vertex -5.125 5.98816 56.6392
      vertex -2.125 5.98816 56.6392
    endloop
  endfacet
  facet normal 0 1 0
    outer loop
      vertex -5.125 5.98816 56.6392
      vertex -2.125 5.98816 55.8858
      vertex -5.125 5.98816 55.8858
    endloop
  endfacet
  facet normal 0 -0.876306 0.481756
    outer loop
      vertex -5.125 -5.42896 58.8172
      vertex -2.125 -5.06597 59.4775
      vertex -5.125 -5.06597 59.4775
    endloop
  endfacet
  facet normal 0 -0.876306 0.481756
    outer loop
      vertex -2.125 -5.06597 59.4775
      vertex -5.125 -5.42896 58.8172
      vertex -2.125 -5.42896 58.8172
    endloop
  endfacet
  facet normal 0 -0.809018 0.587784
    outer loop
      vertex -5.125 -5.06597 59.4775
      vertex -2.125 -4.62308 60.087
      vertex -5.125 -4.62308 60.087
    endloop
  endfacet
  facet normal 0 -0.809018 0.587784
    outer loop
      vertex -2.125 -4.62308 60.087
      vertex -5.125 -5.06597 59.4775
      vertex -2.125 -5.06597 59.4775
    endloop
  endfacet
  facet normal 0 -0.535825 -0.844329
    outer loop
      vertex -5.125 -3.52671 51.4084
      vertex -2.125 -2.89052 51.0047
      vertex -2.125 -3.52671 51.4084
    endloop
  endfacet
  facet normal -0 -0.535825 -0.844329
    outer loop
      vertex -2.125 -2.89052 51.0047
      vertex -5.125 -3.52671 51.4084
      vertex -5.125 -2.89052 51.0047
    endloop
  endfacet
  facet normal 0 -0.992115 -0.125333
    outer loop
      vertex -5.125 -5.89372 55.1382
      vertex -2.125 -5.98816 55.8858
      vertex -5.125 -5.98816 55.8858
    endloop
  endfacet
  facet normal 0 -0.992115 -0.125333
    outer loop
      vertex -2.125 -5.98816 55.8858
      vertex -5.125 -5.89372 55.1382
      vertex -2.125 -5.89372 55.1382
    endloop
  endfacet
  facet normal 0 -1 0
    outer loop
      vertex -5.125 -5.98816 55.8858
      vertex -2.125 -5.98816 56.6392
      vertex -5.125 -5.98816 56.6392
    endloop
  endfacet
  facet normal 0 -1 -0
    outer loop
      vertex -2.125 -5.98816 56.6392
      vertex -5.125 -5.98816 55.8858
      vertex -2.125 -5.98816 55.8858
    endloop
  endfacet
  facet normal -1 -5.54125e-07 8.73158e-07
    outer loop
      vertex -5.125 -5.42896 58.8172
      vertex -5.125 -3.52671 61.1166
      vertex -5.125 -2.89052 61.5203
    endloop
  endfacet
  facet normal -1 -2.9746e-07 6.32133e-07
    outer loop
      vertex -5.125 -5.42896 58.8172
      vertex -5.125 -2.89052 61.5203
      vertex -5.125 -2.20875 61.8412
    endloop
  endfacet
  facet normal -1 1.08709e-06 1.31406e-06
    outer loop
      vertex -5.125 5.42896 58.8172
      vertex -5.125 3.52671 61.1166
      vertex -5.125 4.10728 60.6363
    endloop
  endfacet
  facet normal 0 0.929777 0.368124
    outer loop
      vertex -2.125 5.70634 58.1166
      vertex -5.125 5.42896 58.8172
      vertex -2.125 5.42896 58.8172
    endloop
  endfacet
  facet normal 0 0.929777 0.368124
    outer loop
      vertex -5.125 5.42896 58.8172
      vertex -2.125 5.70634 58.1166
      vertex -5.125 5.70634 58.1166
    endloop
  endfacet
  facet normal 0 0.968583 0.248691
    outer loop
      vertex -2.125 5.89372 57.3868
      vertex -5.125 5.70634 58.1166
      vertex -2.125 5.70634 58.1166
    endloop
  endfacet
  facet normal 0 0.968583 0.248691
    outer loop
      vertex -5.125 5.70634 58.1166
      vertex -2.125 5.89372 57.3868
      vertex -5.125 5.89372 57.3868
    endloop
  endfacet
  facet normal 0 0.809018 0.587784
    outer loop
      vertex -2.125 5.06597 59.4775
      vertex -5.125 4.62308 60.087
      vertex -2.125 4.62308 60.087
    endloop
  endfacet
  facet normal 0 0.809018 0.587784
    outer loop
      vertex -5.125 4.62308 60.087
      vertex -2.125 5.06597 59.4775
      vertex -5.125 5.06597 59.4775
    endloop
  endfacet
  facet normal 0 0.876306 0.481756
    outer loop
      vertex -2.125 5.42896 58.8172
      vertex -5.125 5.06597 59.4775
      vertex -2.125 5.06597 59.4775
    endloop
  endfacet
  facet normal 0 0.876306 0.481756
    outer loop
      vertex -5.125 5.06597 59.4775
      vertex -2.125 5.42896 58.8172
      vertex -5.125 5.42896 58.8172
    endloop
  endfacet
  facet normal 0 -0.0625164 0.998044
    outer loop
      vertex -5.125 0.622403 51.3017
      vertex 2.125 0.626666 51.3019
      vertex -5.125 0.626666 51.3019
    endloop
  endfacet
  facet normal 1.61411e-07 -0.0627899 0.998027
    outer loop
      vertex 2.125 0.626666 51.3019
      vertex -5.125 0.622403 51.3017
      vertex 2.125 0.00426297 51.2628
    endloop
  endfacet
  facet normal 1.61295e-07 -0.0627899 0.998027
    outer loop
      vertex -5.125 0 51.2625
      vertex 2.125 0.00426297 51.2628
      vertex -5.125 0.622403 51.3017
    endloop
  endfacet
  facet normal 0 -0.0625166 0.998044
    outer loop
      vertex 2.125 0.00426297 51.2628
      vertex -5.125 0 51.2625
      vertex 2.125 0 51.2625
    endloop
  endfacet
  facet normal 0 -0.809016 0.587786
    outer loop
      vertex -5.125 3.85257 53.0754
      vertex 2.125 4.22164 53.5834
      vertex -5.125 4.22164 53.5834
    endloop
  endfacet
  facet normal 0 -0.809016 0.587786
    outer loop
      vertex 2.125 4.22164 53.5834
      vertex -5.125 3.85257 53.0754
      vertex 2.125 3.85257 53.0754
    endloop
  endfacet
  facet normal 0 -0.309019 -0.951056
    outer loop
      vertex -5.125 1.24345 61.1054
      vertex 2.125 1.84062 60.9114
      vertex 2.125 1.24345 61.1054
    endloop
  endfacet
  facet normal -0 -0.309019 -0.951056
    outer loop
      vertex 2.125 1.84062 60.9114
      vertex -5.125 1.24345 61.1054
      vertex -5.125 1.84062 60.9114
    endloop
  endfacet
  facet normal 0 0.929776 -0.368127
    outer loop
      vertex 2.125 -4.75528 57.8076
      vertex -5.125 -4.52413 58.3914
      vertex 2.125 -4.52413 58.3914
    endloop
  endfacet
  facet normal 0 0.929776 -0.368127
    outer loop
      vertex -5.125 -4.52413 58.3914
      vertex 2.125 -4.75528 57.8076
      vertex -5.125 -4.75528 57.8076
    endloop
  endfacet
  facet normal 0 -0.929776 -0.368127
    outer loop
      vertex -5.125 4.75528 57.8076
      vertex 2.125 4.52413 58.3914
      vertex -5.125 4.52413 58.3914
    endloop
  endfacet
  facet normal 0 -0.929776 -0.368127
    outer loop
      vertex 2.125 4.52413 58.3914
      vertex -5.125 4.75528 57.8076
      vertex 2.125 4.75528 57.8076
    endloop
  endfacet
  facet normal 0 -0.425779 -0.904827
    outer loop
      vertex -5.125 1.84062 60.9114
      vertex 2.125 2.40877 60.644
      vertex 2.125 1.84062 60.9114
    endloop
  endfacet
  facet normal -0 -0.425779 -0.904827
    outer loop
      vertex 2.125 2.40877 60.644
      vertex -5.125 1.84062 60.9114
      vertex -5.125 2.40877 60.644
    endloop
  endfacet
  facet normal -0 0.637424 0.770513
    outer loop
      vertex -5.125 -2.93893 52.2174
      vertex 2.125 -3.42274 52.6177
      vertex 2.125 -2.93893 52.2174
    endloop
  endfacet
  facet normal 0 0.637424 0.770513
    outer loop
      vertex 2.125 -3.42274 52.6177
      vertex -5.125 -2.93893 52.2174
      vertex -5.125 -3.42274 52.6177
    endloop
  endfacet
  facet normal 0 0.309019 -0.951056
    outer loop
      vertex -5.125 -1.84062 60.9114
      vertex 2.125 -1.24345 61.1054
      vertex 2.125 -1.84062 60.9114
    endloop
  endfacet
  facet normal 0 0.309019 -0.951056
    outer loop
      vertex 2.125 -1.24345 61.1054
      vertex -5.125 -1.84062 60.9114
      vertex -5.125 -1.24345 61.1054
    endloop
  endfacet
  facet normal 0 0.876307 -0.481753
    outer loop
      vertex 2.125 -4.22164 58.9416
      vertex -5.125 -4.29006 58.8172
      vertex -5.125 -4.22164 58.9416
    endloop
  endfacet
  facet normal -1.07885e-09 0.876307 -0.481753
    outer loop
      vertex 2.125 -4.52413 58.3914
      vertex -5.125 -4.29006 58.8172
      vertex 2.125 -4.22164 58.9416
    endloop
  endfacet
  facet normal 0 0.876307 -0.481753
    outer loop
      vertex -5.125 -4.29006 58.8172
      vertex 2.125 -4.52413 58.3914
      vertex -5.125 -4.52413 58.3914
    endloop
  endfacet
  facet normal 0 -0.187386 0.982286
    outer loop
      vertex -5.125 1.24345 51.4196
      vertex 2.125 0.626666 51.3019
      vertex 2.125 1.24345 51.4196
    endloop
  endfacet
  facet normal 0 -0.187386 0.982286
    outer loop
      vertex 2.125 0.626666 51.3019
      vertex -5.125 1.24345 51.4196
      vertex -5.125 0.626666 51.3019
    endloop
  endfacet
  facet normal 0 -0.309014 0.951058
    outer loop
      vertex -5.125 1.84062 51.6136
      vertex 2.125 1.24345 51.4196
      vertex 2.125 1.84062 51.6136
    endloop
  endfacet
  facet normal 0 -0.309014 0.951058
    outer loop
      vertex 2.125 1.24345 51.4196
      vertex -5.125 1.84062 51.6136
      vertex -5.125 1.24345 51.4196
    endloop
  endfacet
  facet normal 0 -0.968583 0.248689
    outer loop
      vertex -5.125 4.75528 54.7174
      vertex 2.125 4.91144 55.3256
      vertex -5.125 4.91144 55.3256
    endloop
  endfacet
  facet normal 0 -0.968583 0.248689
    outer loop
      vertex 2.125 4.91144 55.3256
      vertex -5.125 4.75528 54.7174
      vertex 2.125 4.75528 54.7174
    endloop
  endfacet
  facet normal 0 -1 0
    outer loop
      vertex -5.125 4.99013 55.9485
      vertex 2.125 4.99013 56.5765
      vertex -5.125 4.99013 56.5765
    endloop
  endfacet
  facet normal 0 -1 -0
    outer loop
      vertex 2.125 4.99013 56.5765
      vertex -5.125 4.99013 55.9485
      vertex 2.125 4.99013 55.9485
    endloop
  endfacet
  facet normal 0 -0.637424 -0.770513
    outer loop
      vertex -5.125 2.93893 60.3076
      vertex 2.125 3.42274 59.9073
      vertex 2.125 2.93893 60.3076
    endloop
  endfacet
  facet normal -0 -0.637424 -0.770513
    outer loop
      vertex 2.125 3.42274 59.9073
      vertex -5.125 2.93893 60.3076
      vertex -5.125 3.42274 59.9073
    endloop
  endfacet
  facet normal 0 -0.72897 -0.684545
    outer loop
      vertex -5.125 3.85257 59.4496
      vertex 2.125 3.42274 59.9073
      vertex -5.125 3.42274 59.9073
    endloop
  endfacet
  facet normal 0 -0.72897 -0.684545
    outer loop
      vertex 2.125 3.42274 59.9073
      vertex -5.125 3.85257 59.4496
      vertex 2.125 3.85257 59.4496
    endloop
  endfacet
  facet normal 0 0.72897 -0.684545
    outer loop
      vertex 2.125 -3.85257 59.4496
      vertex -5.125 -3.42274 59.9073
      vertex 2.125 -3.42274 59.9073
    endloop
  endfacet
  facet normal 0 0.72897 -0.684545
    outer loop
      vertex -5.125 -3.42274 59.9073
      vertex 2.125 -3.85257 59.4496
      vertex -5.125 -3.85257 59.4496
    endloop
  endfacet
  facet normal 0 0.637424 -0.770513
    outer loop
      vertex -5.125 -3.42274 59.9073
      vertex 2.125 -2.93893 60.3076
      vertex 2.125 -3.42274 59.9073
    endloop
  endfacet
  facet normal 0 0.637424 -0.770513
    outer loop
      vertex 2.125 -2.93893 60.3076
      vertex -5.125 -3.42274 59.9073
      vertex -5.125 -2.93893 60.3076
    endloop
  endfacet
  facet normal 0 -0.535827 0.844328
    outer loop
      vertex -5.125 2.93893 52.2174
      vertex 2.125 2.40877 51.881
      vertex 2.125 2.93893 52.2174
    endloop
  endfacet
  facet normal 0 -0.535827 0.844328
    outer loop
      vertex 2.125 2.40877 51.881
      vertex -5.125 2.93893 52.2174
      vertex -5.125 2.40877 51.881
    endloop
  endfacet
  facet normal 0 -0.72897 0.684545
    outer loop
      vertex -5.125 3.42274 52.6177
      vertex 2.125 3.85257 53.0754
      vertex -5.125 3.85257 53.0754
    endloop
  endfacet
  facet normal 0 -0.72897 0.684545
    outer loop
      vertex 2.125 3.85257 53.0754
      vertex -5.125 3.42274 52.6177
      vertex 2.125 3.42274 52.6177
    endloop
  endfacet
  facet normal 0 -0.637424 0.770513
    outer loop
      vertex -5.125 3.42274 52.6177
      vertex 2.125 2.93893 52.2174
      vertex 2.125 3.42274 52.6177
    endloop
  endfacet
  facet normal 0 -0.637424 0.770513
    outer loop
      vertex 2.125 2.93893 52.2174
      vertex -5.125 3.42274 52.6177
      vertex -5.125 2.93893 52.2174
    endloop
  endfacet
  facet normal 0 -0.929776 0.368127
    outer loop
      vertex -5.125 4.52413 54.1336
      vertex 2.125 4.75528 54.7174
      vertex -5.125 4.75528 54.7174
    endloop
  endfacet
  facet normal 0 -0.929776 0.368127
    outer loop
      vertex 2.125 4.75528 54.7174
      vertex -5.125 4.52413 54.1336
      vertex 2.125 4.52413 54.1336
    endloop
  endfacet
  facet normal 0 -0.876307 0.481753
    outer loop
      vertex -5.125 4.22164 53.5834
      vertex 2.125 4.52413 54.1336
      vertex -5.125 4.52413 54.1336
    endloop
  endfacet
  facet normal 0 -0.876307 0.481753
    outer loop
      vertex 2.125 4.52413 54.1336
      vertex -5.125 4.22164 53.5834
      vertex 2.125 4.22164 53.5834
    endloop
  endfacet
  facet normal 0 -0.992115 0.125333
    outer loop
      vertex -5.125 4.91144 55.3256
      vertex 2.125 4.99013 55.9485
      vertex -5.125 4.99013 55.9485
    endloop
  endfacet
  facet normal 0 -0.992115 0.125333
    outer loop
      vertex 2.125 4.99013 55.9485
      vertex -5.125 4.91144 55.3256
      vertex 2.125 4.91144 55.3256
    endloop
  endfacet
  facet normal 0 -0.062794 -0.998027
    outer loop
      vertex -5.125 0 61.2625
      vertex 2.125 0.626666 61.2231
      vertex 2.125 0 61.2625
    endloop
  endfacet
  facet normal -0 -0.062794 -0.998027
    outer loop
      vertex 2.125 0.626666 61.2231
      vertex -5.125 0 61.2625
      vertex -5.125 0.626666 61.2231
    endloop
  endfacet
  facet normal 0 -0.992115 -0.125333
    outer loop
      vertex -5.125 4.99013 56.5765
      vertex 2.125 4.91144 57.1994
      vertex -5.125 4.91144 57.1994
    endloop
  endfacet
  facet normal 0 -0.992115 -0.125333
    outer loop
      vertex 2.125 4.91144 57.1994
      vertex -5.125 4.99013 56.5765
      vertex 2.125 4.99013 56.5765
    endloop
  endfacet
  facet normal 0 -0.968583 -0.248689
    outer loop
      vertex -5.125 4.91144 57.1994
      vertex 2.125 4.75528 57.8076
      vertex -5.125 4.75528 57.8076
    endloop
  endfacet
  facet normal 0 -0.968583 -0.248689
    outer loop
      vertex 2.125 4.75528 57.8076
      vertex -5.125 4.91144 57.1994
      vertex 2.125 4.91144 57.1994
    endloop
  endfacet
  facet normal 0 -0.876307 -0.481753
    outer loop
      vertex -5.125 4.29006 58.8172
      vertex 2.125 4.22164 58.9416
      vertex -5.125 4.22164 58.9416
    endloop
  endfacet
  facet normal -0 -0.876307 -0.481753
    outer loop
      vertex 2.125 4.52413 58.3914
      vertex -5.125 4.29006 58.8172
      vertex -5.125 4.52413 58.3914
    endloop
  endfacet
  facet normal -1.07885e-09 -0.876307 -0.481753
    outer loop
      vertex -5.125 4.29006 58.8172
      vertex 2.125 4.52413 58.3914
      vertex 2.125 4.22164 58.9416
    endloop
  endfacet
  facet normal 0 -0.809016 -0.587786
    outer loop
      vertex -5.125 4.22164 58.9416
      vertex 2.125 3.85257 59.4496
      vertex -5.125 3.85257 59.4496
    endloop
  endfacet
  facet normal 0 -0.809016 -0.587786
    outer loop
      vertex 2.125 3.85257 59.4496
      vertex -5.125 4.22164 58.9416
      vertex 2.125 4.22164 58.9416
    endloop
  endfacet
  facet normal -0 0.0625166 0.998044
    outer loop
      vertex -5.125 0 51.2625
      vertex 2.125 -0.00426297 51.2628
      vertex 2.125 0 51.2625
    endloop
  endfacet
  facet normal 1.61295e-07 0.0627899 0.998027
    outer loop
      vertex 2.125 -0.00426297 51.2628
      vertex -5.125 0 51.2625
      vertex -5.125 -0.622403 51.3017
    endloop
  endfacet
  facet normal -0 0.535827 0.844328
    outer loop
      vertex -5.125 -2.40877 51.881
      vertex 2.125 -2.93893 52.2174
      vertex 2.125 -2.40877 51.881
    endloop
  endfacet
  facet normal 0 0.535827 0.844328
    outer loop
      vertex 2.125 -2.93893 52.2174
      vertex -5.125 -2.40877 51.881
      vertex -5.125 -2.93893 52.2174
    endloop
  endfacet
  facet normal 0 0.992115 -0.125333
    outer loop
      vertex 2.125 -4.99013 56.5765
      vertex -5.125 -4.91144 57.1994
      vertex 2.125 -4.91144 57.1994
    endloop
  endfacet
  facet normal 0 0.992115 -0.125333
    outer loop
      vertex -5.125 -4.91144 57.1994
      vertex 2.125 -4.99013 56.5765
      vertex -5.125 -4.99013 56.5765
    endloop
  endfacet
  facet normal 0 0.968583 -0.248689
    outer loop
      vertex 2.125 -4.91144 57.1994
      vertex -5.125 -4.75528 57.8076
      vertex 2.125 -4.75528 57.8076
    endloop
  endfacet
  facet normal 0 0.968583 -0.248689
    outer loop
      vertex -5.125 -4.75528 57.8076
      vertex 2.125 -4.91144 57.1994
      vertex -5.125 -4.91144 57.1994
    endloop
  endfacet
  facet normal 0 0.809016 -0.587786
    outer loop
      vertex 2.125 -4.22164 58.9416
      vertex -5.125 -3.85257 59.4496
      vertex 2.125 -3.85257 59.4496
    endloop
  endfacet
  facet normal 0 0.809016 -0.587786
    outer loop
      vertex -5.125 -3.85257 59.4496
      vertex 2.125 -4.22164 58.9416
      vertex -5.125 -4.22164 58.9416
    endloop
  endfacet
  facet normal 0 0.062794 -0.998027
    outer loop
      vertex -5.125 -0.626666 61.2231
      vertex 2.125 0 61.2625
      vertex 2.125 -0.626666 61.2231
    endloop
  endfacet
  facet normal 0 0.062794 -0.998027
    outer loop
      vertex 2.125 0 61.2625
      vertex -5.125 -0.626666 61.2231
      vertex -5.125 0 61.2625
    endloop
  endfacet
  facet normal 0 0.18738 -0.982288
    outer loop
      vertex -5.125 -1.24345 61.1054
      vertex 2.125 -0.626666 61.2231
      vertex 2.125 -1.24345 61.1054
    endloop
  endfacet
  facet normal 0 0.18738 -0.982288
    outer loop
      vertex 2.125 -0.626666 61.2231
      vertex -5.125 -1.24345 61.1054
      vertex -5.125 -0.626666 61.2231
    endloop
  endfacet
  facet normal 0 0.425779 -0.904827
    outer loop
      vertex -5.125 -2.40877 60.644
      vertex 2.125 -1.84062 60.9114
      vertex 2.125 -2.40877 60.644
    endloop
  endfacet
  facet normal 0 0.425779 -0.904827
    outer loop
      vertex 2.125 -1.84062 60.9114
      vertex -5.125 -2.40877 60.644
      vertex -5.125 -1.84062 60.9114
    endloop
  endfacet
  facet normal 0 0.535823 -0.844331
    outer loop
      vertex -5.125 -2.93893 60.3076
      vertex 2.125 -2.40877 60.644
      vertex 2.125 -2.93893 60.3076
    endloop
  endfacet
  facet normal 0 0.535823 -0.844331
    outer loop
      vertex 2.125 -2.40877 60.644
      vertex -5.125 -2.93893 60.3076
      vertex -5.125 -2.40877 60.644
    endloop
  endfacet
  facet normal 0 -0.425779 0.904827
    outer loop
      vertex -5.125 2.40877 51.881
      vertex 2.125 1.84062 51.6136
      vertex 2.125 2.40877 51.881
    endloop
  endfacet
  facet normal 0 -0.425779 0.904827
    outer loop
      vertex 2.125 1.84062 51.6136
      vertex -5.125 2.40877 51.881
      vertex -5.125 1.84062 51.6136
    endloop
  endfacet
  facet normal 0 -0.18738 -0.982288
    outer loop
      vertex -5.125 0.626666 61.2231
      vertex 2.125 1.24345 61.1054
      vertex 2.125 0.626666 61.2231
    endloop
  endfacet
  facet normal -0 -0.18738 -0.982288
    outer loop
      vertex 2.125 1.24345 61.1054
      vertex -5.125 0.626666 61.2231
      vertex -5.125 1.24345 61.1054
    endloop
  endfacet
  facet normal 0 -0.535823 -0.844331
    outer loop
      vertex -5.125 2.40877 60.644
      vertex 2.125 2.93893 60.3076
      vertex 2.125 2.40877 60.644
    endloop
  endfacet
  facet normal -0 -0.535823 -0.844331
    outer loop
      vertex 2.125 2.93893 60.3076
      vertex -5.125 2.40877 60.644
      vertex -5.125 2.93893 60.3076
    endloop
  endfacet
  facet normal 0 1 -0
    outer loop
      vertex 2.125 -4.99013 55.9485
      vertex -5.125 -4.99013 56.5765
      vertex 2.125 -4.99013 56.5765
    endloop
  endfacet
  facet normal 0 1 0
    outer loop
      vertex -5.125 -4.99013 56.5765
      vertex 2.125 -4.99013 55.9485
      vertex -5.125 -4.99013 55.9485
    endloop
  endfacet
  facet normal 0 0.968583 0.248689
    outer loop
      vertex 2.125 -4.75528 54.7174
      vertex -5.125 -4.91144 55.3256
      vertex 2.125 -4.91144 55.3256
    endloop
  endfacet
  facet normal 0 0.968583 0.248689
    outer loop
      vertex -5.125 -4.91144 55.3256
      vertex 2.125 -4.75528 54.7174
      vertex -5.125 -4.75528 54.7174
    endloop
  endfacet
  facet normal 0 0.809016 0.587786
    outer loop
      vertex 2.125 -3.85257 53.0754
      vertex -5.125 -4.22164 53.5834
      vertex 2.125 -4.22164 53.5834
    endloop
  endfacet
  facet normal 0 0.809016 0.587786
    outer loop
      vertex -5.125 -4.22164 53.5834
      vertex 2.125 -3.85257 53.0754
      vertex -5.125 -3.85257 53.0754
    endloop
  endfacet
  facet normal -0 0.425779 0.904827
    outer loop
      vertex -5.125 -1.84062 51.6136
      vertex 2.125 -2.40877 51.881
      vertex 2.125 -1.84062 51.6136
    endloop
  endfacet
  facet normal 0 0.425779 0.904827
    outer loop
      vertex 2.125 -2.40877 51.881
      vertex -5.125 -1.84062 51.6136
      vertex -5.125 -2.40877 51.881
    endloop
  endfacet
  facet normal -0 0.309014 0.951058
    outer loop
      vertex -5.125 -1.24345 51.4196
      vertex 2.125 -1.84062 51.6136
      vertex 2.125 -1.24345 51.4196
    endloop
  endfacet
  facet normal 0 0.309014 0.951058
    outer loop
      vertex 2.125 -1.84062 51.6136
      vertex -5.125 -1.24345 51.4196
      vertex -5.125 -1.84062 51.6136
    endloop
  endfacet
  facet normal 0 0.992115 0.125333
    outer loop
      vertex 2.125 -4.91144 55.3256
      vertex -5.125 -4.99013 55.9485
      vertex 2.125 -4.99013 55.9485
    endloop
  endfacet
  facet normal 0 0.992115 0.125333
    outer loop
      vertex -5.125 -4.99013 55.9485
      vertex 2.125 -4.91144 55.3256
      vertex -5.125 -4.91144 55.3256
    endloop
  endfacet
  facet normal 0 0.72897 0.684545
    outer loop
      vertex 2.125 -3.42274 52.6177
      vertex -5.125 -3.85257 53.0754
      vertex 2.125 -3.85257 53.0754
    endloop
  endfacet
  facet normal 0 0.72897 0.684545
    outer loop
      vertex -5.125 -3.85257 53.0754
      vertex 2.125 -3.42274 52.6177
      vertex -5.125 -3.42274 52.6177
    endloop
  endfacet
  facet normal 0 0.876307 0.481753
    outer loop
      vertex 2.125 -4.22164 53.5834
      vertex -5.125 -4.52413 54.1336
      vertex 2.125 -4.52413 54.1336
    endloop
  endfacet
  facet normal 0 0.876307 0.481753
    outer loop
      vertex -5.125 -4.52413 54.1336
      vertex 2.125 -4.22164 53.5834
      vertex -5.125 -4.22164 53.5834
    endloop
  endfacet
  facet normal 0 0.929776 0.368127
    outer loop
      vertex 2.125 -4.52413 54.1336
      vertex -5.125 -4.75528 54.7174
      vertex 2.125 -4.75528 54.7174
    endloop
  endfacet
  facet normal 0 0.929776 0.368127
    outer loop
      vertex -5.125 -4.75528 54.7174
      vertex 2.125 -4.52413 54.1336
      vertex -5.125 -4.52413 54.1336
    endloop
  endfacet
  facet normal 1.61411e-07 0.0627899 0.998027
    outer loop
      vertex -5.125 -0.622403 51.3017
      vertex 2.125 -0.626666 51.3019
      vertex 2.125 -0.00426297 51.2628
    endloop
  endfacet
  facet normal 0 0.0625164 0.998044
    outer loop
      vertex 2.125 -0.626666 51.3019
      vertex -5.125 -0.622403 51.3017
      vertex -5.125 -0.626666 51.3019
    endloop
  endfacet
  facet normal -0 0.187386 0.982286
    outer loop
      vertex -5.125 -0.626666 51.3019
      vertex 2.125 -1.24345 51.4196
      vertex 2.125 -0.626666 51.3019
    endloop
  endfacet
  facet normal 0 0.187386 0.982286
    outer loop
      vertex 2.125 -1.24345 51.4196
      vertex -5.125 -0.626666 51.3019
      vertex -5.125 -1.24345 51.4196
    endloop
  endfacet
endsolid OpenSCAD_Model
