solid OpenSCAD_Model
  facet normal -0 0 1
    outer loop
      vertex -5 -3 8
      vertex -2.125 -7 8
      vertex -2.125 3 8
    endloop
  endfacet
  facet normal 0 0 1
    outer loop
      vertex -2.125 -7 8
      vertex -2.94686 -14.5621 8
      vertex -2.18691 -16.0536 8
    endloop
  endfacet
  facet normal 0 0 1
    outer loop
      vertex -2.18691 -16.0536 8
      vertex -2.94686 -14.5621 8
      vertex -2.31154 -15.9123 8
    endloop
  endfacet
  facet normal 0 0 1
    outer loop
      vertex -2.31154 -15.9123 8
      vertex -2.94686 -14.5621 8
      vertex -2.42705 -15.7634 8
    endloop
  endfacet
  facet normal 0 0 1
    outer loop
      vertex -2.42705 -15.7634 8
      vertex -2.94686 -14.5621 8
      vertex -2.53298 -15.6075 8
    endloop
  endfacet
  facet normal 0 0 1
    outer loop
      vertex -2.53298 -15.6075 8
      vertex -2.94686 -14.5621 8
      vertex -2.62892 -15.4453 8
    endloop
  endfacet
  facet normal 0 0 1
    outer loop
      vertex -2.62892 -15.4453 8
      vertex -2.94686 -14.5621 8
      vertex -2.71448 -15.2773 8
    endloop
  endfacet
  facet normal 0 0 1
    outer loop
      vertex -2.71448 -15.2773 8
      vertex -2.94686 -14.5621 8
      vertex -2.78933 -15.1044 8
    endloop
  endfacet
  facet normal 0 0 1
    outer loop
      vertex -2.78933 -15.1044 8
      vertex -2.94686 -14.5621 8
      vertex -2.85317 -14.9271 8
    endloop
  endfacet
  facet normal 0 0 1
    outer loop
      vertex -2.85317 -14.9271 8
      vertex -2.94686 -14.5621 8
      vertex -2.90575 -14.7461 8
    endloop
  endfacet
  facet normal 0 0 1
    outer loop
      vertex -5 -3 8
      vertex -2.125 3 8
      vertex -5 3 8
    endloop
  endfacet
  facet normal 0 0 1
    outer loop
      vertex -2.125 -7 8
      vertex -5 -3 8
      vertex -2.94686 -14.5621 8
    endloop
  endfacet
  facet normal -0 0 1
    outer loop
      vertex 2.125 3 8
      vertex 5 -3 8
      vertex 5 3 8
    endloop
  endfacet
  facet normal 0 0 1
    outer loop
      vertex 5 -3 8
      vertex 2.125 -7 8
      vertex 2.94686 -14.5621 8
    endloop
  endfacet
  facet normal -0 0 1
    outer loop
      vertex 1.21352 -13.1183 8
      vertex 2.94686 -14.5621 8
      vertex 2.125 -7 8
    endloop
  endfacet
  facet normal -0 -0 1
    outer loop
      vertex 1.31446 -13.2774 8
      vertex 2.94686 -14.5621 8
      vertex 1.21352 -13.1183 8
    endloop
  endfacet
  facet normal -0 -0 1
    outer loop
      vertex 1.45287 -13.627 8
      vertex 2.94686 -14.5621 8
      vertex 1.39466 -13.4478 8
    endloop
  endfacet
  facet normal -0 -0 1
    outer loop
      vertex 1.48817 -13.812 8
      vertex 2.94686 -14.5621 8
      vertex 1.45287 -13.627 8
    endloop
  endfacet
  facet normal -0 0 1
    outer loop
      vertex 1.48817 -14.188 8
      vertex 2.94686 -14.5621 8
      vertex 1.5 -14 8
    endloop
  endfacet
  facet normal -0 0 1
    outer loop
      vertex 1.45287 -14.373 8
      vertex 2.94686 -14.5621 8
      vertex 1.48817 -14.188 8
    endloop
  endfacet
  facet normal 0 0 1
    outer loop
      vertex 2.94686 -14.5621 8
      vertex 1.45287 -14.373 8
      vertex 2.90575 -14.7461 8
    endloop
  endfacet
  facet normal -0 0 1
    outer loop
      vertex 1.39466 -14.5522 8
      vertex 2.85317 -14.9271 8
      vertex 1.45287 -14.373 8
    endloop
  endfacet
  facet normal 0 0 1
    outer loop
      vertex 5 -3 8
      vertex 2.125 3 8
      vertex 2.125 -7 8
    endloop
  endfacet
  facet normal 0 0 1
    outer loop
      vertex 2.85317 -14.9271 8
      vertex 1.39466 -14.5522 8
      vertex 2.78933 -15.1044 8
    endloop
  endfacet
  facet normal -0 0 1
    outer loop
      vertex 1.31446 -14.7226 8
      vertex 2.71448 -15.2773 8
      vertex 1.39466 -14.5522 8
    endloop
  endfacet
  facet normal 0 0 1
    outer loop
      vertex 2.71448 -15.2773 8
      vertex 1.31446 -14.7226 8
      vertex 2.62892 -15.4453 8
    endloop
  endfacet
  facet normal 0 0 1
    outer loop
      vertex 2.62892 -15.4453 8
      vertex 1.31446 -14.7226 8
      vertex 2.53298 -15.6075 8
    endloop
  endfacet
  facet normal 0 0 1
    outer loop
      vertex 2.53298 -15.6075 8
      vertex 1.21352 -14.8817 8
      vertex 2.42705 -15.7634 8
    endloop
  endfacet
  facet normal 0 0 1
    outer loop
      vertex 2.42705 -15.7634 8
      vertex 1.21352 -14.8817 8
      vertex 2.31154 -15.9123 8
    endloop
  endfacet
  facet normal -0 0 1
    outer loop
      vertex 1.21352 -14.8817 8
      vertex 2.53298 -15.6075 8
      vertex 1.31446 -14.7226 8
    endloop
  endfacet
  facet normal 0 0 1
    outer loop
      vertex 2.78933 -15.1044 8
      vertex 1.39466 -14.5522 8
      vertex 2.71448 -15.2773 8
    endloop
  endfacet
  facet normal 0 0 1
    outer loop
      vertex 2.90575 -14.7461 8
      vertex 1.45287 -14.373 8
      vertex 2.85317 -14.9271 8
    endloop
  endfacet
  facet normal -0 -0 1
    outer loop
      vertex 1.5 -14 8
      vertex 2.94686 -14.5621 8
      vertex 1.48817 -13.812 8
    endloop
  endfacet
  facet normal -0 -0 1
    outer loop
      vertex 1.39466 -13.4478 8
      vertex 2.94686 -14.5621 8
      vertex 1.31446 -13.2774 8
    endloop
  endfacet
  facet normal 0 0 1
    outer loop
      vertex 2.125 -7 8
      vertex 1.09345 -12.9732 8
      vertex 1.21352 -13.1183 8
    endloop
  endfacet
  facet normal 0 0 1
    outer loop
      vertex 2.125 -7 8
      vertex 0.956136 -12.8442 8
      vertex 1.09345 -12.9732 8
    endloop
  endfacet
  facet normal 0 0 1
    outer loop
      vertex 2.125 -7 8
      vertex 0.80374 -12.7335 8
      vertex 0.956136 -12.8442 8
    endloop
  endfacet
  facet normal 0 0 1
    outer loop
      vertex 2.125 -7 8
      vertex 0.638668 -12.6428 8
      vertex 0.80374 -12.7335 8
    endloop
  endfacet
  facet normal 0 0 1
    outer loop
      vertex 2.125 -7 8
      vertex 0.463525 -12.5734 8
      vertex 0.638668 -12.6428 8
    endloop
  endfacet
  facet normal 0 0 1
    outer loop
      vertex 2.125 -7 8
      vertex 0.281072 -12.5266 8
      vertex 0.463525 -12.5734 8
    endloop
  endfacet
  facet normal 0 0 1
    outer loop
      vertex 2.125 -7 8
      vertex 0.0941849 -12.503 8
      vertex 0.281072 -12.5266 8
    endloop
  endfacet
  facet normal 0 0 1
    outer loop
      vertex 2.125 -7 8
      vertex -0.0941849 -12.503 8
      vertex 0.0941849 -12.503 8
    endloop
  endfacet
  facet normal -0 0 1
    outer loop
      vertex -2.125 -7 8
      vertex -0.0941849 -12.503 8
      vertex 2.125 -7 8
    endloop
  endfacet
  facet normal 0 0 1
    outer loop
      vertex -0.0941849 -12.503 8
      vertex -2.125 -7 8
      vertex -0.281072 -12.5266 8
    endloop
  endfacet
  facet normal 0 0 1
    outer loop
      vertex -0.281072 -12.5266 8
      vertex -2.125 -7 8
      vertex -0.463525 -12.5734 8
    endloop
  endfacet
  facet normal 0 0 1
    outer loop
      vertex -0.463525 -12.5734 8
      vertex -2.125 -7 8
      vertex -0.638668 -12.6428 8
    endloop
  endfacet
  facet normal 0 0 1
    outer loop
      vertex -0.638668 -12.6428 8
      vertex -2.125 -7 8
      vertex -0.80374 -12.7335 8
    endloop
  endfacet
  facet normal 0 0 1
    outer loop
      vertex -0.80374 -12.7335 8
      vertex -2.125 -7 8
      vertex -0.956136 -12.8442 8
    endloop
  endfacet
  facet normal 0 0 1
    outer loop
      vertex -0.956136 -12.8442 8
      vertex -2.125 -7 8
      vertex -1.09345 -12.9732 8
    endloop
  endfacet
  facet normal 0 0 1
    outer loop
      vertex -1.09345 -12.9732 8
      vertex -2.125 -7 8
      vertex -1.21352 -13.1183 8
    endloop
  endfacet
  facet normal 0 0 1
    outer loop
      vertex -0.80374 -15.2665 8
      vertex -1.76336 -16.4271 8
      vertex -1.60748 -16.533 8
    endloop
  endfacet
  facet normal 0 0 1
    outer loop
      vertex -2.18691 -16.0536 8
      vertex -1.5 -14 8
      vertex -1.48817 -13.812 8
    endloop
  endfacet
  facet normal 0 0 1
    outer loop
      vertex -1.48817 -14.188 8
      vertex -1.91227 -16.3115 8
      vertex -1.76336 -16.4271 8
    endloop
  endfacet
  facet normal 0 0 1
    outer loop
      vertex -1.48817 -14.188 8
      vertex -2.05364 -16.1869 8
      vertex -1.91227 -16.3115 8
    endloop
  endfacet
  facet normal 0 0 1
    outer loop
      vertex -2.18691 -16.0536 8
      vertex -1.48817 -13.812 8
      vertex -1.45287 -13.627 8
    endloop
  endfacet
  facet normal 0 0 1
    outer loop
      vertex -1.21352 -13.1183 8
      vertex -2.125 -7 8
      vertex -1.31446 -13.2774 8
    endloop
  endfacet
  facet normal 0 0 1
    outer loop
      vertex -2.125 -7 8
      vertex -1.39466 -13.4478 8
      vertex -1.31446 -13.2774 8
    endloop
  endfacet
  facet normal 0 0 1
    outer loop
      vertex -2.125 -7 8
      vertex -1.45287 -13.627 8
      vertex -1.39466 -13.4478 8
    endloop
  endfacet
  facet normal 0 0 1
    outer loop
      vertex -2.18691 -16.0536 8
      vertex -1.45287 -13.627 8
      vertex -2.125 -7 8
    endloop
  endfacet
  facet normal 0 0 1
    outer loop
      vertex -1.48817 -14.188 8
      vertex -2.18691 -16.0536 8
      vertex -2.05364 -16.1869 8
    endloop
  endfacet
  facet normal -0 0 1
    outer loop
      vertex 1.09345 -15.0268 8
      vertex 2.31154 -15.9123 8
      vertex 1.21352 -14.8817 8
    endloop
  endfacet
  facet normal 0 0 1
    outer loop
      vertex 2.31154 -15.9123 8
      vertex 1.09345 -15.0268 8
      vertex 2.18691 -16.0536 8
    endloop
  endfacet
  facet normal 0 0 1
    outer loop
      vertex 2.18691 -16.0536 8
      vertex 1.09345 -15.0268 8
      vertex 2.05364 -16.1869 8
    endloop
  endfacet
  facet normal -0 0 1
    outer loop
      vertex 0.956136 -15.1558 8
      vertex 2.05364 -16.1869 8
      vertex 1.09345 -15.0268 8
    endloop
  endfacet
  facet normal 0 0 1
    outer loop
      vertex 2.05364 -16.1869 8
      vertex 0.956136 -15.1558 8
      vertex 1.91227 -16.3115 8
    endloop
  endfacet
  facet normal 0 0 1
    outer loop
      vertex 1.91227 -16.3115 8
      vertex 0.956136 -15.1558 8
      vertex 1.76336 -16.4271 8
    endloop
  endfacet
  facet normal -0 0 1
    outer loop
      vertex 0.80374 -15.2665 8
      vertex 1.76336 -16.4271 8
      vertex 0.956136 -15.1558 8
    endloop
  endfacet
  facet normal 0 0 1
    outer loop
      vertex 1.76336 -16.4271 8
      vertex 0.80374 -15.2665 8
      vertex 1.60748 -16.533 8
    endloop
  endfacet
  facet normal 0 0 1
    outer loop
      vertex 1.60748 -16.533 8
      vertex 0.80374 -15.2665 8
      vertex 1.44526 -16.6289 8
    endloop
  endfacet
  facet normal -0 0 1
    outer loop
      vertex 0.638668 -15.3572 8
      vertex 1.44526 -16.6289 8
      vertex 0.80374 -15.2665 8
    endloop
  endfacet
  facet normal 0 0 1
    outer loop
      vertex 1.44526 -16.6289 8
      vertex 0.638668 -15.3572 8
      vertex 1.27734 -16.7145 8
    endloop
  endfacet
  facet normal 0 0 1
    outer loop
      vertex 1.27734 -16.7145 8
      vertex 0.638668 -15.3572 8
      vertex 1.10437 -16.7893 8
    endloop
  endfacet
  facet normal -0 0 1
    outer loop
      vertex 0.463525 -15.4266 8
      vertex 1.10437 -16.7893 8
      vertex 0.638668 -15.3572 8
    endloop
  endfacet
  facet normal 0 0 1
    outer loop
      vertex 1.10437 -16.7893 8
      vertex 0.463525 -15.4266 8
      vertex 0.927051 -16.8532 8
    endloop
  endfacet
  facet normal 0 0 1
    outer loop
      vertex 0.927051 -16.8532 8
      vertex 0.463525 -15.4266 8
      vertex 0.746069 -16.9058 8
    endloop
  endfacet
  facet normal -0 0 1
    outer loop
      vertex 0.281072 -15.4734 8
      vertex 0.746069 -16.9058 8
      vertex 0.463525 -15.4266 8
    endloop
  endfacet
  facet normal 0 0 1
    outer loop
      vertex 0.746069 -16.9058 8
      vertex 0.281072 -15.4734 8
      vertex 0.562143 -16.9469 8
    endloop
  endfacet
  facet normal 0 0 1
    outer loop
      vertex 0.562143 -16.9469 8
      vertex 0.281072 -15.4734 8
      vertex 0.375999 -16.9763 8
    endloop
  endfacet
  facet normal -0 0 1
    outer loop
      vertex 0.0941849 -15.497 8
      vertex 0.375999 -16.9763 8
      vertex 0.281072 -15.4734 8
    endloop
  endfacet
  facet normal 0 0 1
    outer loop
      vertex 0.375999 -16.9763 8
      vertex 0.0941849 -15.497 8
      vertex 0.188371 -16.9941 8
    endloop
  endfacet
  facet normal 0 0 1
    outer loop
      vertex 0.0941849 -15.497 8
      vertex 0 -17 8
      vertex 0.188371 -16.9941 8
    endloop
  endfacet
  facet normal -0 0 1
    outer loop
      vertex -0.0941849 -15.497 8
      vertex 0 -17 8
      vertex 0.0941849 -15.497 8
    endloop
  endfacet
  facet normal 0 0 1
    outer loop
      vertex -0.0941849 -15.497 8
      vertex -0.188371 -16.9941 8
      vertex 0 -17 8
    endloop
  endfacet
  facet normal 0 0 1
    outer loop
      vertex -0.375999 -16.9763 8
      vertex -0.0941849 -15.497 8
      vertex -0.281072 -15.4734 8
    endloop
  endfacet
  facet normal 0 0 1
    outer loop
      vertex -0.0941849 -15.497 8
      vertex -0.375999 -16.9763 8
      vertex -0.188371 -16.9941 8
    endloop
  endfacet
  facet normal 0 0 1
    outer loop
      vertex -0.746069 -16.9058 8
      vertex -0.281072 -15.4734 8
      vertex -0.463525 -15.4266 8
    endloop
  endfacet
  facet normal 0 0 1
    outer loop
      vertex -0.281072 -15.4734 8
      vertex -0.562143 -16.9469 8
      vertex -0.375999 -16.9763 8
    endloop
  endfacet
  facet normal 0 0 1
    outer loop
      vertex -1.10437 -16.7893 8
      vertex -0.463525 -15.4266 8
      vertex -0.638668 -15.3572 8
    endloop
  endfacet
  facet normal 0 0 1
    outer loop
      vertex -0.281072 -15.4734 8
      vertex -0.746069 -16.9058 8
      vertex -0.562143 -16.9469 8
    endloop
  endfacet
  facet normal 0 0 1
    outer loop
      vertex -1.44526 -16.6289 8
      vertex -0.638668 -15.3572 8
      vertex -0.80374 -15.2665 8
    endloop
  endfacet
  facet normal 0 0 1
    outer loop
      vertex -0.463525 -15.4266 8
      vertex -0.927051 -16.8532 8
      vertex -0.746069 -16.9058 8
    endloop
  endfacet
  facet normal 0 0 1
    outer loop
      vertex -1.76336 -16.4271 8
      vertex -0.80374 -15.2665 8
      vertex -0.956136 -15.1558 8
    endloop
  endfacet
  facet normal 0 0 1
    outer loop
      vertex -1.76336 -16.4271 8
      vertex -0.956136 -15.1558 8
      vertex -1.09345 -15.0268 8
    endloop
  endfacet
  facet normal 0 0 1
    outer loop
      vertex -0.463525 -15.4266 8
      vertex -1.10437 -16.7893 8
      vertex -0.927051 -16.8532 8
    endloop
  endfacet
  facet normal 0 0 1
    outer loop
      vertex -1.76336 -16.4271 8
      vertex -1.09345 -15.0268 8
      vertex -1.21352 -14.8817 8
    endloop
  endfacet
  facet normal 0 0 1
    outer loop
      vertex -0.638668 -15.3572 8
      vertex -1.27734 -16.7145 8
      vertex -1.10437 -16.7893 8
    endloop
  endfacet
  facet normal 0 0 1
    outer loop
      vertex -1.76336 -16.4271 8
      vertex -1.21352 -14.8817 8
      vertex -1.31446 -14.7226 8
    endloop
  endfacet
  facet normal 0 0 1
    outer loop
      vertex -1.76336 -16.4271 8
      vertex -1.31446 -14.7226 8
      vertex -1.39466 -14.5522 8
    endloop
  endfacet
  facet normal 0 0 1
    outer loop
      vertex -0.638668 -15.3572 8
      vertex -1.44526 -16.6289 8
      vertex -1.27734 -16.7145 8
    endloop
  endfacet
  facet normal 0 0 1
    outer loop
      vertex -1.76336 -16.4271 8
      vertex -1.39466 -14.5522 8
      vertex -1.45287 -14.373 8
    endloop
  endfacet
  facet normal 0 0 1
    outer loop
      vertex -1.76336 -16.4271 8
      vertex -1.45287 -14.373 8
      vertex -1.48817 -14.188 8
    endloop
  endfacet
  facet normal 0 0 1
    outer loop
      vertex -2.18691 -16.0536 8
      vertex -1.48817 -14.188 8
      vertex -1.5 -14 8
    endloop
  endfacet
  facet normal 0 0 1
    outer loop
      vertex -0.80374 -15.2665 8
      vertex -1.60748 -16.533 8
      vertex -1.44526 -16.6289 8
    endloop
  endfacet
  facet normal -0.790156 -0.612906 0
    outer loop
      vertex -2.31154 -15.9123 0
      vertex -2.42705 -15.7634 8
      vertex -2.42705 -15.7634 0
    endloop
  endfacet
  facet normal -0.790156 -0.612906 0
    outer loop
      vertex -2.42705 -15.7634 8
      vertex -2.31154 -15.9123 0
      vertex -2.31154 -15.9123 8
    endloop
  endfacet
  facet normal -1 0 0
    outer loop
      vertex -5 -3 0
      vertex -5 3 8
      vertex -5 3 0
    endloop
  endfacet
  facet normal -1 -0 0
    outer loop
      vertex -5 3 8
      vertex -5 -3 0
      vertex -5 -3 8
    endloop
  endfacet
  facet normal 1 -0 0
    outer loop
      vertex 5 -3 8
      vertex 5 3 0
      vertex 5 3 8
    endloop
  endfacet
  facet normal 1 0 0
    outer loop
      vertex 5 3 0
      vertex 5 -3 8
      vertex 5 -3 0
    endloop
  endfacet
  facet normal -0.279 -0.960291 0
    outer loop
      vertex -0.927051 -16.8532 0
      vertex -0.746069 -16.9058 8
      vertex -0.927051 -16.8532 8
    endloop
  endfacet
  facet normal -0.279 -0.960291 -0
    outer loop
      vertex -0.746069 -16.9058 8
      vertex -0.927051 -16.8532 0
      vertex -0.746069 -16.9058 0
    endloop
  endfacet
  facet normal 0.562075 -0.827086 0
    outer loop
      vertex 1.60748 -16.533 0
      vertex 1.76336 -16.4271 8
      vertex 1.60748 -16.533 8
    endloop
  endfacet
  facet normal 0.562075 -0.827086 0
    outer loop
      vertex 1.76336 -16.4271 8
      vertex 1.60748 -16.533 0
      vertex 1.76336 -16.4271 0
    endloop
  endfacet
  facet normal 0 1 -0
    outer loop
      vertex 5 3 0
      vertex 2.125 3 8
      vertex 5 3 8
    endloop
  endfacet
  facet normal 0 1 0
    outer loop
      vertex 2.125 3 8
      vertex 5 3 0
      vertex 2.125 3 0
    endloop
  endfacet
  facet normal 0 1 -0
    outer loop
      vertex -2.125 3 0
      vertex -5 3 8
      vertex -2.125 3 8
    endloop
  endfacet
  facet normal 0 1 0
    outer loop
      vertex -5 3 8
      vertex -2.125 3 0
      vertex -5 3 0
    endloop
  endfacet
  facet normal 0 0 -1
    outer loop
      vertex 2.94686 -14.5621 0
      vertex 1.48817 -14.188 0
      vertex 1.5 -14 0
    endloop
  endfacet
  facet normal 0 0 -1
    outer loop
      vertex 1.76336 -16.4271 0
      vertex 1.45287 -14.373 0
      vertex 1.48817 -14.188 0
    endloop
  endfacet
  facet normal 0 0 -1
    outer loop
      vertex 0.80374 -15.2665 0
      vertex 1.60748 -16.533 0
      vertex 1.44526 -16.6289 0
    endloop
  endfacet
  facet normal 0 0 -1
    outer loop
      vertex 1.76336 -16.4271 0
      vertex 1.39466 -14.5522 0
      vertex 1.45287 -14.373 0
    endloop
  endfacet
  facet normal 0 0 -1
    outer loop
      vertex 1.76336 -16.4271 0
      vertex 1.31446 -14.7226 0
      vertex 1.39466 -14.5522 0
    endloop
  endfacet
  facet normal 0 0 -1
    outer loop
      vertex 0.638668 -15.3572 0
      vertex 1.44526 -16.6289 0
      vertex 1.27734 -16.7145 0
    endloop
  endfacet
  facet normal 0 0 -1
    outer loop
      vertex 1.76336 -16.4271 0
      vertex 1.21352 -14.8817 0
      vertex 1.31446 -14.7226 0
    endloop
  endfacet
  facet normal 0 0 -1
    outer loop
      vertex 0.638668 -15.3572 0
      vertex 1.27734 -16.7145 0
      vertex 1.10437 -16.7893 0
    endloop
  endfacet
  facet normal 0 0 -1
    outer loop
      vertex 1.76336 -16.4271 0
      vertex 1.09345 -15.0268 0
      vertex 1.21352 -14.8817 0
    endloop
  endfacet
  facet normal 0 0 -1
    outer loop
      vertex 1.76336 -16.4271 0
      vertex 0.956136 -15.1558 0
      vertex 1.09345 -15.0268 0
    endloop
  endfacet
  facet normal 0 0 -1
    outer loop
      vertex 0.463525 -15.4266 0
      vertex 1.10437 -16.7893 0
      vertex 0.927051 -16.8532 0
    endloop
  endfacet
  facet normal 0 0 -1
    outer loop
      vertex 1.76336 -16.4271 0
      vertex 0.80374 -15.2665 0
      vertex 0.956136 -15.1558 0
    endloop
  endfacet
  facet normal 0 0 -1
    outer loop
      vertex 0.463525 -15.4266 0
      vertex 0.927051 -16.8532 0
      vertex 0.746069 -16.9058 0
    endloop
  endfacet
  facet normal 0 0 -1
    outer loop
      vertex 1.44526 -16.6289 0
      vertex 0.638668 -15.3572 0
      vertex 0.80374 -15.2665 0
    endloop
  endfacet
  facet normal 0 0 -1
    outer loop
      vertex 0.281072 -15.4734 0
      vertex 0.746069 -16.9058 0
      vertex 0.562143 -16.9469 0
    endloop
  endfacet
  facet normal 0 0 -1
    outer loop
      vertex 1.10437 -16.7893 0
      vertex 0.463525 -15.4266 0
      vertex 0.638668 -15.3572 0
    endloop
  endfacet
  facet normal 0 0 -1
    outer loop
      vertex 0.281072 -15.4734 0
      vertex 0.562143 -16.9469 0
      vertex 0.375999 -16.9763 0
    endloop
  endfacet
  facet normal 0 0 -1
    outer loop
      vertex 0.746069 -16.9058 0
      vertex 0.281072 -15.4734 0
      vertex 0.463525 -15.4266 0
    endloop
  endfacet
  facet normal 0 0 -1
    outer loop
      vertex 0.0941849 -15.497 0
      vertex 0.375999 -16.9763 0
      vertex 0.188371 -16.9941 0
    endloop
  endfacet
  facet normal 0 0 -1
    outer loop
      vertex 0.375999 -16.9763 0
      vertex 0.0941849 -15.497 0
      vertex 0.281072 -15.4734 0
    endloop
  endfacet
  facet normal 0 0 -1
    outer loop
      vertex 0 -17 0
      vertex 0.0941849 -15.497 0
      vertex 0.188371 -16.9941 0
    endloop
  endfacet
  facet normal 0 0 -1
    outer loop
      vertex 0 -17 0
      vertex -0.0941849 -15.497 0
      vertex 0.0941849 -15.497 0
    endloop
  endfacet
  facet normal 0 0 -1
    outer loop
      vertex -0.188371 -16.9941 0
      vertex -0.0941849 -15.497 0
      vertex 0 -17 0
    endloop
  endfacet
  facet normal 0 0 -1
    outer loop
      vertex -0.375999 -16.9763 0
      vertex -0.0941849 -15.497 0
      vertex -0.188371 -16.9941 0
    endloop
  endfacet
  facet normal -0 0 -1
    outer loop
      vertex -0.0941849 -15.497 0
      vertex -0.375999 -16.9763 0
      vertex -0.281072 -15.4734 0
    endloop
  endfacet
  facet normal 0 0 -1
    outer loop
      vertex -0.562143 -16.9469 0
      vertex -0.281072 -15.4734 0
      vertex -0.375999 -16.9763 0
    endloop
  endfacet
  facet normal 0 0 -1
    outer loop
      vertex -0.746069 -16.9058 0
      vertex -0.281072 -15.4734 0
      vertex -0.562143 -16.9469 0
    endloop
  endfacet
  facet normal -0 0 -1
    outer loop
      vertex -0.281072 -15.4734 0
      vertex -0.746069 -16.9058 0
      vertex -0.463525 -15.4266 0
    endloop
  endfacet
  facet normal 0 0 -1
    outer loop
      vertex -0.927051 -16.8532 0
      vertex -0.463525 -15.4266 0
      vertex -0.746069 -16.9058 0
    endloop
  endfacet
  facet normal 0 0 -1
    outer loop
      vertex -1.10437 -16.7893 0
      vertex -0.463525 -15.4266 0
      vertex -0.927051 -16.8532 0
    endloop
  endfacet
  facet normal -0 0 -1
    outer loop
      vertex -0.463525 -15.4266 0
      vertex -1.10437 -16.7893 0
      vertex -0.638668 -15.3572 0
    endloop
  endfacet
  facet normal 0 0 -1
    outer loop
      vertex -1.27734 -16.7145 0
      vertex -0.638668 -15.3572 0
      vertex -1.10437 -16.7893 0
    endloop
  endfacet
  facet normal 0 0 -1
    outer loop
      vertex -1.44526 -16.6289 0
      vertex -0.638668 -15.3572 0
      vertex -1.27734 -16.7145 0
    endloop
  endfacet
  facet normal -0 0 -1
    outer loop
      vertex -0.638668 -15.3572 0
      vertex -1.44526 -16.6289 0
      vertex -0.80374 -15.2665 0
    endloop
  endfacet
  facet normal 0 0 -1
    outer loop
      vertex -1.60748 -16.533 0
      vertex -0.80374 -15.2665 0
      vertex -1.44526 -16.6289 0
    endloop
  endfacet
  facet normal 0 0 -1
    outer loop
      vertex -1.76336 -16.4271 0
      vertex -0.80374 -15.2665 0
      vertex -1.60748 -16.533 0
    endloop
  endfacet
  facet normal -0 0 -1
    outer loop
      vertex -0.80374 -15.2665 0
      vertex -1.76336 -16.4271 0
      vertex -0.956136 -15.1558 0
    endloop
  endfacet
  facet normal 0 0 -1
    outer loop
      vertex -1.91227 -16.3115 0
      vertex -0.956136 -15.1558 0
      vertex -1.76336 -16.4271 0
    endloop
  endfacet
  facet normal 0 0 -1
    outer loop
      vertex -2.05364 -16.1869 0
      vertex -0.956136 -15.1558 0
      vertex -1.91227 -16.3115 0
    endloop
  endfacet
  facet normal -0 0 -1
    outer loop
      vertex -0.956136 -15.1558 0
      vertex -2.05364 -16.1869 0
      vertex -1.09345 -15.0268 0
    endloop
  endfacet
  facet normal 0 0 -1
    outer loop
      vertex -2.18691 -16.0536 0
      vertex -1.09345 -15.0268 0
      vertex -2.05364 -16.1869 0
    endloop
  endfacet
  facet normal 0 0 -1
    outer loop
      vertex -2.31154 -15.9123 0
      vertex -1.09345 -15.0268 0
      vertex -2.18691 -16.0536 0
    endloop
  endfacet
  facet normal -0 0 -1
    outer loop
      vertex -1.09345 -15.0268 0
      vertex -2.31154 -15.9123 0
      vertex -1.21352 -14.8817 0
    endloop
  endfacet
  facet normal 0 0 -1
    outer loop
      vertex 1.48817 -14.188 0
      vertex 2.94686 -14.5621 0
      vertex 2.90575 -14.7461 0
    endloop
  endfacet
  facet normal 0 0 -1
    outer loop
      vertex 1.48817 -14.188 0
      vertex 2.05364 -16.1869 0
      vertex 1.91227 -16.3115 0
    endloop
  endfacet
  facet normal 0 0 -1
    outer loop
      vertex 1.48817 -14.188 0
      vertex 1.91227 -16.3115 0
      vertex 1.76336 -16.4271 0
    endloop
  endfacet
  facet normal 0 0 -1
    outer loop
      vertex 0.80374 -15.2665 0
      vertex 1.76336 -16.4271 0
      vertex 1.60748 -16.533 0
    endloop
  endfacet
  facet normal 0 0 -1
    outer loop
      vertex 2.94686 -14.5621 0
      vertex 1.5 -14 0
      vertex 1.48817 -13.812 0
    endloop
  endfacet
  facet normal 0 0 -1
    outer loop
      vertex 1.45287 -13.627 0
      vertex 2.94686 -14.5621 0
      vertex 1.48817 -13.812 0
    endloop
  endfacet
  facet normal 0 0 -1
    outer loop
      vertex 1.39466 -13.4478 0
      vertex 2.94686 -14.5621 0
      vertex 1.45287 -13.627 0
    endloop
  endfacet
  facet normal 0 0 -1
    outer loop
      vertex 1.31446 -13.2774 0
      vertex 2.94686 -14.5621 0
      vertex 1.39466 -13.4478 0
    endloop
  endfacet
  facet normal 0 0 -1
    outer loop
      vertex 1.21352 -13.1183 0
      vertex 2.94686 -14.5621 0
      vertex 1.31446 -13.2774 0
    endloop
  endfacet
  facet normal 0 0 -1
    outer loop
      vertex 2.94686 -14.5621 0
      vertex 1.21352 -13.1183 0
      vertex 2.125 -7 0
    endloop
  endfacet
  facet normal 0 0 -1
    outer loop
      vertex 1.09345 -12.9732 0
      vertex 2.125 -7 0
      vertex 1.21352 -13.1183 0
    endloop
  endfacet
  facet normal 0 0 -1
    outer loop
      vertex 0.956136 -12.8442 0
      vertex 2.125 -7 0
      vertex 1.09345 -12.9732 0
    endloop
  endfacet
  facet normal 0 0 -1
    outer loop
      vertex 0.80374 -12.7335 0
      vertex 2.125 -7 0
      vertex 0.956136 -12.8442 0
    endloop
  endfacet
  facet normal 0 0 -1
    outer loop
      vertex 0.638668 -12.6428 0
      vertex 2.125 -7 0
      vertex 0.80374 -12.7335 0
    endloop
  endfacet
  facet normal 0 0 -1
    outer loop
      vertex 0.463525 -12.5734 0
      vertex 2.125 -7 0
      vertex 0.638668 -12.6428 0
    endloop
  endfacet
  facet normal 0 0 -1
    outer loop
      vertex 0.281072 -12.5266 0
      vertex 2.125 -7 0
      vertex 0.463525 -12.5734 0
    endloop
  endfacet
  facet normal 0 0 -1
    outer loop
      vertex 0.0941849 -12.503 0
      vertex 2.125 -7 0
      vertex 0.281072 -12.5266 0
    endloop
  endfacet
  facet normal 0 0 -1
    outer loop
      vertex -0.0941849 -12.503 0
      vertex 2.125 -7 0
      vertex 0.0941849 -12.503 0
    endloop
  endfacet
  facet normal 0 0 -1
    outer loop
      vertex -2.125 -7 0
      vertex -0.0941849 -12.503 0
      vertex -0.281072 -12.5266 0
    endloop
  endfacet
  facet normal 0 0 -1
    outer loop
      vertex -2.125 -7 0
      vertex -0.281072 -12.5266 0
      vertex -0.463525 -12.5734 0
    endloop
  endfacet
  facet normal 0 0 -1
    outer loop
      vertex -2.125 -7 0
      vertex -0.463525 -12.5734 0
      vertex -0.638668 -12.6428 0
    endloop
  endfacet
  facet normal 0 0 -1
    outer loop
      vertex -2.125 -7 0
      vertex -0.638668 -12.6428 0
      vertex -0.80374 -12.7335 0
    endloop
  endfacet
  facet normal 0 0 -1
    outer loop
      vertex -2.125 -7 0
      vertex -0.80374 -12.7335 0
      vertex -0.956136 -12.8442 0
    endloop
  endfacet
  facet normal 0 0 -1
    outer loop
      vertex -2.125 -7 0
      vertex -0.956136 -12.8442 0
      vertex -1.09345 -12.9732 0
    endloop
  endfacet
  facet normal 0 0 -1
    outer loop
      vertex -2.125 -7 0
      vertex -1.09345 -12.9732 0
      vertex -1.21352 -13.1183 0
    endloop
  endfacet
  facet normal 0 0 -1
    outer loop
      vertex -2.94686 -14.5621 0
      vertex -1.21352 -13.1183 0
      vertex -1.31446 -13.2774 0
    endloop
  endfacet
  facet normal 0 0 -1
    outer loop
      vertex -2.42705 -15.7634 0
      vertex -1.21352 -14.8817 0
      vertex -2.31154 -15.9123 0
    endloop
  endfacet
  facet normal 0 0 -1
    outer loop
      vertex -2.53298 -15.6075 0
      vertex -1.21352 -14.8817 0
      vertex -2.42705 -15.7634 0
    endloop
  endfacet
  facet normal -0 0 -1
    outer loop
      vertex -1.21352 -14.8817 0
      vertex -2.53298 -15.6075 0
      vertex -1.31446 -14.7226 0
    endloop
  endfacet
  facet normal 0 0 -1
    outer loop
      vertex -2.62892 -15.4453 0
      vertex -1.31446 -14.7226 0
      vertex -2.53298 -15.6075 0
    endloop
  endfacet
  facet normal 0 0 -1
    outer loop
      vertex -2.71448 -15.2773 0
      vertex -1.31446 -14.7226 0
      vertex -2.62892 -15.4453 0
    endloop
  endfacet
  facet normal 0 0 -1
    outer loop
      vertex -0.0941849 -12.503 0
      vertex -2.125 -7 0
      vertex 2.125 -7 0
    endloop
  endfacet
  facet normal 0 0 -1
    outer loop
      vertex -2.94686 -14.5621 0
      vertex -1.31446 -13.2774 0
      vertex -1.39466 -13.4478 0
    endloop
  endfacet
  facet normal 0 0 -1
    outer loop
      vertex -2.94686 -14.5621 0
      vertex -1.39466 -13.4478 0
      vertex -1.45287 -13.627 0
    endloop
  endfacet
  facet normal -0 0 -1
    outer loop
      vertex -1.31446 -14.7226 0
      vertex -2.71448 -15.2773 0
      vertex -1.39466 -14.5522 0
    endloop
  endfacet
  facet normal 0 0 -1
    outer loop
      vertex -2.78933 -15.1044 0
      vertex -1.39466 -14.5522 0
      vertex -2.71448 -15.2773 0
    endloop
  endfacet
  facet normal -0 0 -1
    outer loop
      vertex -1.21352 -13.1183 0
      vertex -2.94686 -14.5621 0
      vertex -2.125 -7 0
    endloop
  endfacet
  facet normal 0 0 -1
    outer loop
      vertex -2.85317 -14.9271 0
      vertex -1.39466 -14.5522 0
      vertex -2.78933 -15.1044 0
    endloop
  endfacet
  facet normal -0 0 -1
    outer loop
      vertex -1.39466 -14.5522 0
      vertex -2.85317 -14.9271 0
      vertex -1.45287 -14.373 0
    endloop
  endfacet
  facet normal 0 0 -1
    outer loop
      vertex -2.90575 -14.7461 0
      vertex -1.45287 -14.373 0
      vertex -2.85317 -14.9271 0
    endloop
  endfacet
  facet normal 0 0 -1
    outer loop
      vertex -2.94686 -14.5621 0
      vertex -1.45287 -14.373 0
      vertex -2.90575 -14.7461 0
    endloop
  endfacet
  facet normal -0 0 -1
    outer loop
      vertex -1.45287 -14.373 0
      vertex -2.94686 -14.5621 0
      vertex -1.48817 -14.188 0
    endloop
  endfacet
  facet normal -0 0 -1
    outer loop
      vertex -1.48817 -14.188 0
      vertex -2.94686 -14.5621 0
      vertex -1.5 -14 0
    endloop
  endfacet
  facet normal -0 0 -1
    outer loop
      vertex -1.5 -14 0
      vertex -2.94686 -14.5621 0
      vertex -1.48817 -13.812 0
    endloop
  endfacet
  facet normal -0 0 -1
    outer loop
      vertex -1.48817 -13.812 0
      vertex -2.94686 -14.5621 0
      vertex -1.45287 -13.627 0
    endloop
  endfacet
  facet normal 0 0 -1
    outer loop
      vertex -5 -3 0
      vertex -2.125 -7 0
      vertex -2.94686 -14.5621 0
    endloop
  endfacet
  facet normal 0 0 -1
    outer loop
      vertex -2.125 -7 0
      vertex -5 -3 0
      vertex -2.125 3 0
    endloop
  endfacet
  facet normal -0 0 -1
    outer loop
      vertex -2.125 3 0
      vertex -5 -3 0
      vertex -5 3 0
    endloop
  endfacet
  facet normal 0 0 -1
    outer loop
      vertex 2.125 -7 0
      vertex 5 -3 0
      vertex 2.94686 -14.5621 0
    endloop
  endfacet
  facet normal 0 0 -1
    outer loop
      vertex 1.48817 -14.188 0
      vertex 2.90575 -14.7461 0
      vertex 2.85317 -14.9271 0
    endloop
  endfacet
  facet normal 0 0 -1
    outer loop
      vertex 1.48817 -14.188 0
      vertex 2.85317 -14.9271 0
      vertex 2.78933 -15.1044 0
    endloop
  endfacet
  facet normal 0 0 -1
    outer loop
      vertex 1.48817 -14.188 0
      vertex 2.78933 -15.1044 0
      vertex 2.71448 -15.2773 0
    endloop
  endfacet
  facet normal 0 0 -1
    outer loop
      vertex 1.48817 -14.188 0
      vertex 2.71448 -15.2773 0
      vertex 2.62892 -15.4453 0
    endloop
  endfacet
  facet normal 0 0 -1
    outer loop
      vertex 1.48817 -14.188 0
      vertex 2.62892 -15.4453 0
      vertex 2.53298 -15.6075 0
    endloop
  endfacet
  facet normal 0 0 -1
    outer loop
      vertex 1.48817 -14.188 0
      vertex 2.53298 -15.6075 0
      vertex 2.42705 -15.7634 0
    endloop
  endfacet
  facet normal 0 0 -1
    outer loop
      vertex 1.48817 -14.188 0
      vertex 2.42705 -15.7634 0
      vertex 2.31154 -15.9123 0
    endloop
  endfacet
  facet normal 0 0 -1
    outer loop
      vertex 1.48817 -14.188 0
      vertex 2.31154 -15.9123 0
      vertex 2.18691 -16.0536 0
    endloop
  endfacet
  facet normal 0 0 -1
    outer loop
      vertex 1.48817 -14.188 0
      vertex 2.18691 -16.0536 0
      vertex 2.05364 -16.1869 0
    endloop
  endfacet
  facet normal 0 0 -1
    outer loop
      vertex 2.125 3 0
      vertex 5 -3 0
      vertex 2.125 -7 0
    endloop
  endfacet
  facet normal 0 0 -1
    outer loop
      vertex 5 -3 0
      vertex 2.125 3 0
      vertex 5 3 0
    endloop
  endfacet
  facet normal -0.984597 -0.174839 0
    outer loop
      vertex -2.94686 -14.5621 0
      vertex -5 -3 8
      vertex -5 -3 0
    endloop
  endfacet
  facet normal -0.984597 -0.174839 0
    outer loop
      vertex -5 -3 8
      vertex -2.94686 -14.5621 0
      vertex -2.94686 -14.5621 8
    endloop
  endfacet
  facet normal -0.975917 -0.218142 0
    outer loop
      vertex -2.90575 -14.7461 0
      vertex -2.94686 -14.5621 8
      vertex -2.94686 -14.5621 0
    endloop
  endfacet
  facet normal -0.975917 -0.218142 0
    outer loop
      vertex -2.94686 -14.5621 8
      vertex -2.90575 -14.7461 0
      vertex -2.90575 -14.7461 8
    endloop
  endfacet
  facet normal -0.891008 -0.453987 0
    outer loop
      vertex -2.62892 -15.4453 0
      vertex -2.71448 -15.2773 8
      vertex -2.71448 -15.2773 0
    endloop
  endfacet
  facet normal -0.891008 -0.453987 0
    outer loop
      vertex -2.71448 -15.2773 8
      vertex -2.62892 -15.4453 0
      vertex -2.62892 -15.4453 8
    endloop
  endfacet
  facet normal -0.562075 -0.827086 0
    outer loop
      vertex -1.76336 -16.4271 0
      vertex -1.60748 -16.533 8
      vertex -1.76336 -16.4271 8
    endloop
  endfacet
  facet normal -0.562075 -0.827086 -0
    outer loop
      vertex -1.60748 -16.533 8
      vertex -1.76336 -16.4271 0
      vertex -1.60748 -16.533 0
    endloop
  endfacet
  facet normal -0.707104 -0.707109 0
    outer loop
      vertex -2.18691 -16.0536 0
      vertex -2.05364 -16.1869 8
      vertex -2.18691 -16.0536 8
    endloop
  endfacet
  facet normal -0.707104 -0.707109 -0
    outer loop
      vertex -2.05364 -16.1869 8
      vertex -2.18691 -16.0536 0
      vertex -2.05364 -16.1869 0
    endloop
  endfacet
  facet normal 0.891008 -0.453987 0
    outer loop
      vertex 2.62892 -15.4453 8
      vertex 2.71448 -15.2773 0
      vertex 2.71448 -15.2773 8
    endloop
  endfacet
  facet normal 0.891008 -0.453987 0
    outer loop
      vertex 2.71448 -15.2773 0
      vertex 2.62892 -15.4453 8
      vertex 2.62892 -15.4453 0
    endloop
  endfacet
  facet normal -0.86074 -0.509044 0
    outer loop
      vertex -2.53298 -15.6075 0
      vertex -2.62892 -15.4453 8
      vertex -2.62892 -15.4453 0
    endloop
  endfacet
  facet normal -0.86074 -0.509044 0
    outer loop
      vertex -2.62892 -15.4453 8
      vertex -2.53298 -15.6075 0
      vertex -2.53298 -15.6075 8
    endloop
  endfacet
  facet normal -0.940879 -0.338742 0
    outer loop
      vertex -2.78933 -15.1044 0
      vertex -2.85317 -14.9271 8
      vertex -2.85317 -14.9271 0
    endloop
  endfacet
  facet normal -0.940879 -0.338742 0
    outer loop
      vertex -2.85317 -14.9271 8
      vertex -2.78933 -15.1044 0
      vertex -2.78933 -15.1044 8
    endloop
  endfacet
  facet normal -0.917755 -0.397148 0
    outer loop
      vertex -2.71448 -15.2773 0
      vertex -2.78933 -15.1044 8
      vertex -2.78933 -15.1044 0
    endloop
  endfacet
  facet normal -0.917755 -0.397148 0
    outer loop
      vertex -2.78933 -15.1044 8
      vertex -2.71448 -15.2773 0
      vertex -2.71448 -15.2773 8
    endloop
  endfacet
  facet normal -0.661313 -0.75011 0
    outer loop
      vertex -2.05364 -16.1869 0
      vertex -1.91227 -16.3115 8
      vertex -2.05364 -16.1869 8
    endloop
  endfacet
  facet normal -0.661313 -0.75011 -0
    outer loop
      vertex -1.91227 -16.3115 8
      vertex -2.05364 -16.1869 0
      vertex -1.91227 -16.3115 0
    endloop
  endfacet
  facet normal -0.612912 -0.790151 0
    outer loop
      vertex -1.91227 -16.3115 0
      vertex -1.76336 -16.4271 8
      vertex -1.91227 -16.3115 8
    endloop
  endfacet
  facet normal -0.612912 -0.790151 -0
    outer loop
      vertex -1.76336 -16.4271 8
      vertex -1.91227 -16.3115 0
      vertex -1.76336 -16.4271 0
    endloop
  endfacet
  facet normal -0.218137 -0.975918 0
    outer loop
      vertex -0.746069 -16.9058 0
      vertex -0.562143 -16.9469 8
      vertex -0.746069 -16.9058 8
    endloop
  endfacet
  facet normal -0.218137 -0.975918 -0
    outer loop
      vertex -0.562143 -16.9469 8
      vertex -0.746069 -16.9058 0
      vertex -0.562143 -16.9469 0
    endloop
  endfacet
  facet normal 0.509048 -0.860738 0
    outer loop
      vertex 1.44526 -16.6289 0
      vertex 1.60748 -16.533 8
      vertex 1.44526 -16.6289 8
    endloop
  endfacet
  facet normal 0.509048 -0.860738 0
    outer loop
      vertex 1.60748 -16.533 8
      vertex 1.44526 -16.6289 0
      vertex 1.60748 -16.533 0
    endloop
  endfacet
  facet normal 0.790156 -0.612906 0
    outer loop
      vertex 2.31154 -15.9123 8
      vertex 2.42705 -15.7634 0
      vertex 2.42705 -15.7634 8
    endloop
  endfacet
  facet normal 0.790156 -0.612906 0
    outer loop
      vertex 2.42705 -15.7634 0
      vertex 2.31154 -15.9123 8
      vertex 2.31154 -15.9123 0
    endloop
  endfacet
  facet normal 0.960294 -0.27899 0
    outer loop
      vertex 2.85317 -14.9271 8
      vertex 2.90575 -14.7461 0
      vertex 2.90575 -14.7461 8
    endloop
  endfacet
  facet normal 0.960294 -0.27899 0
    outer loop
      vertex 2.90575 -14.7461 0
      vertex 2.85317 -14.9271 8
      vertex 2.85317 -14.9271 0
    endloop
  endfacet
  facet normal 0.984597 -0.174839 0
    outer loop
      vertex 2.94686 -14.5621 8
      vertex 5 -3 0
      vertex 5 -3 8
    endloop
  endfacet
  facet normal 0.984597 -0.174839 0
    outer loop
      vertex 5 -3 0
      vertex 2.94686 -14.5621 8
      vertex 2.94686 -14.5621 0
    endloop
  endfacet
  facet normal 0.975917 -0.218142 0
    outer loop
      vertex 2.90575 -14.7461 8
      vertex 2.94686 -14.5621 0
      vertex 2.94686 -14.5621 8
    endloop
  endfacet
  facet normal 0.975917 -0.218142 0
    outer loop
      vertex 2.94686 -14.5621 0
      vertex 2.90575 -14.7461 8
      vertex 2.90575 -14.7461 0
    endloop
  endfacet
  facet normal -0.827082 -0.562082 0
    outer loop
      vertex -2.42705 -15.7634 0
      vertex -2.53298 -15.6075 8
      vertex -2.53298 -15.6075 0
    endloop
  endfacet
  facet normal -0.827082 -0.562082 0
    outer loop
      vertex -2.53298 -15.6075 8
      vertex -2.42705 -15.7634 0
      vertex -2.42705 -15.7634 8
    endloop
  endfacet
  facet normal -0.960294 -0.27899 0
    outer loop
      vertex -2.85317 -14.9271 0
      vertex -2.90575 -14.7461 8
      vertex -2.90575 -14.7461 0
    endloop
  endfacet
  facet normal -0.960294 -0.27899 0
    outer loop
      vertex -2.90575 -14.7461 8
      vertex -2.85317 -14.9271 0
      vertex -2.85317 -14.9271 8
    endloop
  endfacet
  facet normal -0.509048 -0.860738 0
    outer loop
      vertex -1.60748 -16.533 0
      vertex -1.44526 -16.6289 8
      vertex -1.60748 -16.533 8
    endloop
  endfacet
  facet normal -0.509048 -0.860738 -0
    outer loop
      vertex -1.44526 -16.6289 8
      vertex -1.60748 -16.533 0
      vertex -1.44526 -16.6289 0
    endloop
  endfacet
  facet normal -0.397148 -0.917755 0
    outer loop
      vertex -1.27734 -16.7145 0
      vertex -1.10437 -16.7893 8
      vertex -1.27734 -16.7145 8
    endloop
  endfacet
  facet normal -0.397148 -0.917755 -0
    outer loop
      vertex -1.10437 -16.7893 8
      vertex -1.27734 -16.7145 0
      vertex -1.10437 -16.7893 0
    endloop
  endfacet
  facet normal -0.453992 -0.891006 0
    outer loop
      vertex -1.44526 -16.6289 0
      vertex -1.27734 -16.7145 8
      vertex -1.44526 -16.6289 8
    endloop
  endfacet
  facet normal -0.453992 -0.891006 -0
    outer loop
      vertex -1.27734 -16.7145 8
      vertex -1.44526 -16.6289 0
      vertex -1.27734 -16.7145 0
    endloop
  endfacet
  facet normal -0.75011 -0.661313 0
    outer loop
      vertex -2.18691 -16.0536 0
      vertex -2.31154 -15.9123 8
      vertex -2.31154 -15.9123 0
    endloop
  endfacet
  facet normal -0.75011 -0.661313 0
    outer loop
      vertex -2.31154 -15.9123 8
      vertex -2.18691 -16.0536 0
      vertex -2.18691 -16.0536 8
    endloop
  endfacet
  facet normal -0.156432 -0.987689 0
    outer loop
      vertex -0.562143 -16.9469 0
      vertex -0.375999 -16.9763 8
      vertex -0.562143 -16.9469 8
    endloop
  endfacet
  facet normal -0.156432 -0.987689 -0
    outer loop
      vertex -0.375999 -16.9763 8
      vertex -0.562143 -16.9469 0
      vertex -0.375999 -16.9763 0
    endloop
  endfacet
  facet normal -0.0314141 -0.999506 0
    outer loop
      vertex -0.188371 -16.9941 0
      vertex 0 -17 8
      vertex -0.188371 -16.9941 8
    endloop
  endfacet
  facet normal -0.0314141 -0.999506 -0
    outer loop
      vertex 0 -17 8
      vertex -0.188371 -16.9941 0
      vertex 0 -17 0
    endloop
  endfacet
  facet normal 0.453992 -0.891006 0
    outer loop
      vertex 1.27734 -16.7145 0
      vertex 1.44526 -16.6289 8
      vertex 1.27734 -16.7145 8
    endloop
  endfacet
  facet normal 0.453992 -0.891006 0
    outer loop
      vertex 1.44526 -16.6289 8
      vertex 1.27734 -16.7145 0
      vertex 1.44526 -16.6289 0
    endloop
  endfacet
  facet normal 0.86074 -0.509044 0
    outer loop
      vertex 2.53298 -15.6075 8
      vertex 2.62892 -15.4453 0
      vertex 2.62892 -15.4453 8
    endloop
  endfacet
  facet normal 0.86074 -0.509044 0
    outer loop
      vertex 2.62892 -15.4453 0
      vertex 2.53298 -15.6075 8
      vertex 2.53298 -15.6075 0
    endloop
  endfacet
  facet normal 0.827082 -0.562082 0
    outer loop
      vertex 2.42705 -15.7634 8
      vertex 2.53298 -15.6075 0
      vertex 2.53298 -15.6075 8
    endloop
  endfacet
  facet normal 0.827082 -0.562082 0
    outer loop
      vertex 2.53298 -15.6075 0
      vertex 2.42705 -15.7634 8
      vertex 2.42705 -15.7634 0
    endloop
  endfacet
  facet normal -0.338733 -0.940883 0
    outer loop
      vertex -1.10437 -16.7893 0
      vertex -0.927051 -16.8532 8
      vertex -1.10437 -16.7893 8
    endloop
  endfacet
  facet normal -0.338733 -0.940883 -0
    outer loop
      vertex -0.927051 -16.8532 8
      vertex -1.10437 -16.7893 0
      vertex -0.927051 -16.8532 0
    endloop
  endfacet
  facet normal -0.0941099 -0.995562 0
    outer loop
      vertex -0.375999 -16.9763 0
      vertex -0.188371 -16.9941 8
      vertex -0.375999 -16.9763 8
    endloop
  endfacet
  facet normal -0.0941099 -0.995562 -0
    outer loop
      vertex -0.188371 -16.9941 8
      vertex -0.375999 -16.9763 0
      vertex -0.188371 -16.9941 0
    endloop
  endfacet
  facet normal 0.0314141 -0.999506 0
    outer loop
      vertex 0 -17 0
      vertex 0.188371 -16.9941 8
      vertex 0 -17 8
    endloop
  endfacet
  facet normal 0.0314141 -0.999506 0
    outer loop
      vertex 0.188371 -16.9941 8
      vertex 0 -17 0
      vertex 0.188371 -16.9941 0
    endloop
  endfacet
  facet normal 0.0941099 -0.995562 0
    outer loop
      vertex 0.188371 -16.9941 0
      vertex 0.375999 -16.9763 8
      vertex 0.188371 -16.9941 8
    endloop
  endfacet
  facet normal 0.0941099 -0.995562 0
    outer loop
      vertex 0.375999 -16.9763 8
      vertex 0.188371 -16.9941 0
      vertex 0.375999 -16.9763 0
    endloop
  endfacet
  facet normal 0.338733 -0.940883 0
    outer loop
      vertex 0.927051 -16.8532 0
      vertex 1.10437 -16.7893 8
      vertex 0.927051 -16.8532 8
    endloop
  endfacet
  facet normal 0.338733 -0.940883 0
    outer loop
      vertex 1.10437 -16.7893 8
      vertex 0.927051 -16.8532 0
      vertex 1.10437 -16.7893 0
    endloop
  endfacet
  facet normal 0.279 -0.960291 0
    outer loop
      vertex 0.746069 -16.9058 0
      vertex 0.927051 -16.8532 8
      vertex 0.746069 -16.9058 8
    endloop
  endfacet
  facet normal 0.279 -0.960291 0
    outer loop
      vertex 0.927051 -16.8532 8
      vertex 0.746069 -16.9058 0
      vertex 0.927051 -16.8532 0
    endloop
  endfacet
  facet normal 0.218137 -0.975918 0
    outer loop
      vertex 0.562143 -16.9469 0
      vertex 0.746069 -16.9058 8
      vertex 0.562143 -16.9469 8
    endloop
  endfacet
  facet normal 0.218137 -0.975918 0
    outer loop
      vertex 0.746069 -16.9058 8
      vertex 0.562143 -16.9469 0
      vertex 0.746069 -16.9058 0
    endloop
  endfacet
  facet normal 0.75011 -0.661313 0
    outer loop
      vertex 2.18691 -16.0536 8
      vertex 2.31154 -15.9123 0
      vertex 2.31154 -15.9123 8
    endloop
  endfacet
  facet normal 0.75011 -0.661313 0
    outer loop
      vertex 2.31154 -15.9123 0
      vertex 2.18691 -16.0536 8
      vertex 2.18691 -16.0536 0
    endloop
  endfacet
  facet normal 0.707104 -0.707109 0
    outer loop
      vertex 2.05364 -16.1869 0
      vertex 2.18691 -16.0536 8
      vertex 2.05364 -16.1869 8
    endloop
  endfacet
  facet normal 0.707104 -0.707109 0
    outer loop
      vertex 2.18691 -16.0536 8
      vertex 2.05364 -16.1869 0
      vertex 2.18691 -16.0536 0
    endloop
  endfacet
  facet normal 0.661313 -0.75011 0
    outer loop
      vertex 1.91227 -16.3115 0
      vertex 2.05364 -16.1869 8
      vertex 1.91227 -16.3115 8
    endloop
  endfacet
  facet normal 0.661313 -0.75011 0
    outer loop
      vertex 2.05364 -16.1869 8
      vertex 1.91227 -16.3115 0
      vertex 2.05364 -16.1869 0
    endloop
  endfacet
  facet normal 0.612912 -0.790151 0
    outer loop
      vertex 1.76336 -16.4271 0
      vertex 1.91227 -16.3115 8
      vertex 1.76336 -16.4271 8
    endloop
  endfacet
  facet normal 0.612912 -0.790151 0
    outer loop
      vertex 1.91227 -16.3115 8
      vertex 1.76336 -16.4271 0
      vertex 1.91227 -16.3115 0
    endloop
  endfacet
  facet normal 0.940879 -0.338742 0
    outer loop
      vertex 2.78933 -15.1044 8
      vertex 2.85317 -14.9271 0
      vertex 2.85317 -14.9271 8
    endloop
  endfacet
  facet normal 0.940879 -0.338742 0
    outer loop
      vertex 2.85317 -14.9271 0
      vertex 2.78933 -15.1044 8
      vertex 2.78933 -15.1044 0
    endloop
  endfacet
  facet normal 0.917755 -0.397148 0
    outer loop
      vertex 2.71448 -15.2773 8
      vertex 2.78933 -15.1044 0
      vertex 2.78933 -15.1044 8
    endloop
  endfacet
  facet normal 0.917755 -0.397148 0
    outer loop
      vertex 2.78933 -15.1044 0
      vertex 2.71448 -15.2773 8
      vertex 2.71448 -15.2773 0
    endloop
  endfacet
  facet normal 0.156432 -0.987689 0
    outer loop
      vertex 0.375999 -16.9763 0
      vertex 0.562143 -16.9469 8
      vertex 0.375999 -16.9763 8
    endloop
  endfacet
  facet normal 0.156432 -0.987689 0
    outer loop
      vertex 0.562143 -16.9469 8
      vertex 0.375999 -16.9763 0
      vertex 0.562143 -16.9469 0
    endloop
  endfacet
  facet normal 0.397148 -0.917755 0
    outer loop
      vertex 1.10437 -16.7893 0
      vertex 1.27734 -16.7145 8
      vertex 1.10437 -16.7893 8
    endloop
  endfacet
  facet normal 0.397148 -0.917755 0
    outer loop
      vertex 1.27734 -16.7145 8
      vertex 1.10437 -16.7893 0
      vertex 1.27734 -16.7145 0
    endloop
  endfacet
  facet normal -0.998027 -0.0627931 0
    outer loop
      vertex 1.5 -14 0
      vertex 1.48817 -13.812 8
      vertex 1.48817 -13.812 0
    endloop
  endfacet
  facet normal -0.998027 -0.0627931 0
    outer loop
      vertex 1.48817 -13.812 8
      vertex 1.5 -14 0
      vertex 1.5 -14 8
    endloop
  endfacet
  facet normal 0.998027 -0.0627931 0
    outer loop
      vertex -1.5 -14 8
      vertex -1.48817 -13.812 0
      vertex -1.48817 -13.812 8
    endloop
  endfacet
  facet normal 0.998027 -0.0627931 0
    outer loop
      vertex -1.48817 -13.812 0
      vertex -1.5 -14 8
      vertex -1.5 -14 0
    endloop
  endfacet
  facet normal 0 -1 0
    outer loop
      vertex -0.0941849 -12.503 0
      vertex 0.0941849 -12.503 8
      vertex -0.0941849 -12.503 8
    endloop
  endfacet
  facet normal 0 -1 -0
    outer loop
      vertex 0.0941849 -12.503 8
      vertex -0.0941849 -12.503 0
      vertex 0.0941849 -12.503 0
    endloop
  endfacet
  facet normal 0 1 -0
    outer loop
      vertex 0.0941849 -15.497 0
      vertex -0.0941849 -15.497 8
      vertex 0.0941849 -15.497 8
    endloop
  endfacet
  facet normal 0 1 0
    outer loop
      vertex -0.0941849 -15.497 8
      vertex 0.0941849 -15.497 0
      vertex -0.0941849 -15.497 0
    endloop
  endfacet
  facet normal -0.684548 -0.728968 0
    outer loop
      vertex 0.956136 -12.8442 0
      vertex 1.09345 -12.9732 8
      vertex 0.956136 -12.8442 8
    endloop
  endfacet
  facet normal -0.684548 -0.728968 -0
    outer loop
      vertex 1.09345 -12.9732 8
      vertex 0.956136 -12.8442 0
      vertex 1.09345 -12.9732 0
    endloop
  endfacet
  facet normal 0.684548 -0.728968 0
    outer loop
      vertex -1.09345 -12.9732 0
      vertex -0.956136 -12.8442 8
      vertex -1.09345 -12.9732 8
    endloop
  endfacet
  facet normal 0.684548 -0.728968 0
    outer loop
      vertex -0.956136 -12.8442 8
      vertex -1.09345 -12.9732 0
      vertex -0.956136 -12.8442 0
    endloop
  endfacet
  facet normal 0.368126 -0.929776 0
    outer loop
      vertex -0.638668 -12.6428 0
      vertex -0.463525 -12.5734 8
      vertex -0.638668 -12.6428 8
    endloop
  endfacet
  facet normal 0.368126 -0.929776 0
    outer loop
      vertex -0.463525 -12.5734 8
      vertex -0.638668 -12.6428 0
      vertex -0.463525 -12.5734 0
    endloop
  endfacet
  facet normal -0.844326 0.535829 0
    outer loop
      vertex 1.21352 -14.8817 0
      vertex 1.31446 -14.7226 8
      vertex 1.31446 -14.7226 0
    endloop
  endfacet
  facet normal -0.844326 0.535829 0
    outer loop
      vertex 1.31446 -14.7226 8
      vertex 1.21352 -14.8817 0
      vertex 1.21352 -14.8817 8
    endloop
  endfacet
  facet normal -0.904829 -0.425775 0
    outer loop
      vertex 1.39466 -13.4478 0
      vertex 1.31446 -13.2774 8
      vertex 1.31446 -13.2774 0
    endloop
  endfacet
  facet normal -0.904829 -0.425775 0
    outer loop
      vertex 1.31446 -13.2774 8
      vertex 1.39466 -13.4478 0
      vertex 1.39466 -13.4478 8
    endloop
  endfacet
  facet normal -0.982287 -0.187382 0
    outer loop
      vertex 1.48817 -13.812 0
      vertex 1.45287 -13.627 8
      vertex 1.45287 -13.627 0
    endloop
  endfacet
  facet normal -0.982287 -0.187382 0
    outer loop
      vertex 1.45287 -13.627 8
      vertex 1.48817 -13.812 0
      vertex 1.48817 -13.812 8
    endloop
  endfacet
  facet normal -0.368126 -0.929776 0
    outer loop
      vertex 0.463525 -12.5734 0
      vertex 0.638668 -12.6428 8
      vertex 0.463525 -12.5734 8
    endloop
  endfacet
  facet normal -0.368126 -0.929776 -0
    outer loop
      vertex 0.638668 -12.6428 8
      vertex 0.463525 -12.5734 0
      vertex 0.638668 -12.6428 0
    endloop
  endfacet
  facet normal -0.248692 -0.968583 0
    outer loop
      vertex 0.281072 -12.5266 0
      vertex 0.463525 -12.5734 8
      vertex 0.281072 -12.5266 8
    endloop
  endfacet
  facet normal -0.248692 -0.968583 -0
    outer loop
      vertex 0.463525 -12.5734 8
      vertex 0.281072 -12.5266 0
      vertex 0.463525 -12.5734 0
    endloop
  endfacet
  facet normal -0.481754 -0.876307 0
    outer loop
      vertex 0.638668 -12.6428 0
      vertex 0.80374 -12.7335 8
      vertex 0.638668 -12.6428 8
    endloop
  endfacet
  facet normal -0.481754 -0.876307 -0
    outer loop
      vertex 0.80374 -12.7335 8
      vertex 0.638668 -12.6428 0
      vertex 0.80374 -12.7335 0
    endloop
  endfacet
  facet normal 0.904829 -0.425775 0
    outer loop
      vertex -1.39466 -13.4478 8
      vertex -1.31446 -13.2774 0
      vertex -1.31446 -13.2774 8
    endloop
  endfacet
  facet normal 0.904829 -0.425775 0
    outer loop
      vertex -1.31446 -13.2774 0
      vertex -1.39466 -13.4478 8
      vertex -1.39466 -13.4478 0
    endloop
  endfacet
  facet normal 0.951056 -0.309019 0
    outer loop
      vertex -1.45287 -13.627 8
      vertex -1.39466 -13.4478 0
      vertex -1.39466 -13.4478 8
    endloop
  endfacet
  facet normal 0.951056 -0.309019 0
    outer loop
      vertex -1.39466 -13.4478 0
      vertex -1.45287 -13.627 8
      vertex -1.45287 -13.627 0
    endloop
  endfacet
  facet normal 0.125333 -0.992115 0
    outer loop
      vertex -0.281072 -12.5266 0
      vertex -0.0941849 -12.503 8
      vertex -0.281072 -12.5266 8
    endloop
  endfacet
  facet normal 0.125333 -0.992115 0
    outer loop
      vertex -0.0941849 -12.503 8
      vertex -0.281072 -12.5266 0
      vertex -0.0941849 -12.503 0
    endloop
  endfacet
  facet normal -0.125333 0.992115 0
    outer loop
      vertex 0.281072 -15.4734 0
      vertex 0.0941849 -15.497 8
      vertex 0.281072 -15.4734 8
    endloop
  endfacet
  facet normal -0.125333 0.992115 0
    outer loop
      vertex 0.0941849 -15.497 8
      vertex 0.281072 -15.4734 0
      vertex 0.0941849 -15.497 0
    endloop
  endfacet
  facet normal -0.368126 0.929776 0
    outer loop
      vertex 0.638668 -15.3572 0
      vertex 0.463525 -15.4266 8
      vertex 0.638668 -15.3572 8
    endloop
  endfacet
  facet normal -0.368126 0.929776 0
    outer loop
      vertex 0.463525 -15.4266 8
      vertex 0.638668 -15.3572 0
      vertex 0.463525 -15.4266 0
    endloop
  endfacet
  facet normal -0.951056 -0.309019 0
    outer loop
      vertex 1.45287 -13.627 0
      vertex 1.39466 -13.4478 8
      vertex 1.39466 -13.4478 0
    endloop
  endfacet
  facet normal -0.951056 -0.309019 0
    outer loop
      vertex 1.39466 -13.4478 8
      vertex 1.45287 -13.627 0
      vertex 1.45287 -13.627 8
    endloop
  endfacet
  facet normal -0.770513 -0.637424 0
    outer loop
      vertex 1.21352 -13.1183 0
      vertex 1.09345 -12.9732 8
      vertex 1.09345 -12.9732 0
    endloop
  endfacet
  facet normal -0.770513 -0.637424 0
    outer loop
      vertex 1.09345 -12.9732 8
      vertex 1.21352 -13.1183 0
      vertex 1.21352 -13.1183 8
    endloop
  endfacet
  facet normal -0.844326 -0.535829 0
    outer loop
      vertex 1.31446 -13.2774 0
      vertex 1.21352 -13.1183 8
      vertex 1.21352 -13.1183 0
    endloop
  endfacet
  facet normal -0.844326 -0.535829 0
    outer loop
      vertex 1.21352 -13.1183 8
      vertex 1.31446 -13.2774 0
      vertex 1.31446 -13.2774 8
    endloop
  endfacet
  facet normal -0.125333 -0.992115 0
    outer loop
      vertex 0.0941849 -12.503 0
      vertex 0.281072 -12.5266 8
      vertex 0.0941849 -12.503 8
    endloop
  endfacet
  facet normal -0.125333 -0.992115 -0
    outer loop
      vertex 0.281072 -12.5266 8
      vertex 0.0941849 -12.503 0
      vertex 0.281072 -12.5266 0
    endloop
  endfacet
  facet normal -0.587783 -0.809019 0
    outer loop
      vertex 0.80374 -12.7335 0
      vertex 0.956136 -12.8442 8
      vertex 0.80374 -12.7335 8
    endloop
  endfacet
  facet normal -0.587783 -0.809019 -0
    outer loop
      vertex 0.956136 -12.8442 8
      vertex 0.80374 -12.7335 0
      vertex 0.956136 -12.8442 0
    endloop
  endfacet
  facet normal 0.844326 -0.535829 0
    outer loop
      vertex -1.31446 -13.2774 8
      vertex -1.21352 -13.1183 0
      vertex -1.21352 -13.1183 8
    endloop
  endfacet
  facet normal 0.844326 -0.535829 0
    outer loop
      vertex -1.21352 -13.1183 0
      vertex -1.31446 -13.2774 8
      vertex -1.31446 -13.2774 0
    endloop
  endfacet
  facet normal 0.770513 -0.637424 0
    outer loop
      vertex -1.21352 -13.1183 8
      vertex -1.09345 -12.9732 0
      vertex -1.09345 -12.9732 8
    endloop
  endfacet
  facet normal 0.770513 -0.637424 0
    outer loop
      vertex -1.09345 -12.9732 0
      vertex -1.21352 -13.1183 8
      vertex -1.21352 -13.1183 0
    endloop
  endfacet
  facet normal 0.982287 -0.187382 0
    outer loop
      vertex -1.48817 -13.812 8
      vertex -1.45287 -13.627 0
      vertex -1.45287 -13.627 8
    endloop
  endfacet
  facet normal 0.982287 -0.187382 0
    outer loop
      vertex -1.45287 -13.627 0
      vertex -1.48817 -13.812 8
      vertex -1.48817 -13.812 0
    endloop
  endfacet
  facet normal 0.481754 -0.876307 0
    outer loop
      vertex -0.80374 -12.7335 0
      vertex -0.638668 -12.6428 8
      vertex -0.80374 -12.7335 8
    endloop
  endfacet
  facet normal 0.481754 -0.876307 0
    outer loop
      vertex -0.638668 -12.6428 8
      vertex -0.80374 -12.7335 0
      vertex -0.638668 -12.6428 0
    endloop
  endfacet
  facet normal 0.587783 -0.809019 0
    outer loop
      vertex -0.956136 -12.8442 0
      vertex -0.80374 -12.7335 8
      vertex -0.956136 -12.8442 8
    endloop
  endfacet
  facet normal 0.587783 -0.809019 0
    outer loop
      vertex -0.80374 -12.7335 8
      vertex -0.956136 -12.8442 0
      vertex -0.80374 -12.7335 0
    endloop
  endfacet
  facet normal 0.248692 -0.968583 0
    outer loop
      vertex -0.463525 -12.5734 0
      vertex -0.281072 -12.5266 8
      vertex -0.463525 -12.5734 8
    endloop
  endfacet
  facet normal 0.248692 -0.968583 0
    outer loop
      vertex -0.281072 -12.5266 8
      vertex -0.463525 -12.5734 0
      vertex -0.281072 -12.5266 0
    endloop
  endfacet
  facet normal -0.998027 0.0627931 0
    outer loop
      vertex 1.48817 -14.188 0
      vertex 1.5 -14 8
      vertex 1.5 -14 0
    endloop
  endfacet
  facet normal -0.998027 0.0627931 0
    outer loop
      vertex 1.5 -14 8
      vertex 1.48817 -14.188 0
      vertex 1.48817 -14.188 8
    endloop
  endfacet
  facet normal -0.684548 0.728968 0
    outer loop
      vertex 1.09345 -15.0268 0
      vertex 0.956136 -15.1558 8
      vertex 1.09345 -15.0268 8
    endloop
  endfacet
  facet normal -0.684548 0.728968 0
    outer loop
      vertex 0.956136 -15.1558 8
      vertex 1.09345 -15.0268 0
      vertex 0.956136 -15.1558 0
    endloop
  endfacet
  facet normal -0.982287 0.187382 0
    outer loop
      vertex 1.45287 -14.373 0
      vertex 1.48817 -14.188 8
      vertex 1.48817 -14.188 0
    endloop
  endfacet
  facet normal -0.982287 0.187382 0
    outer loop
      vertex 1.48817 -14.188 8
      vertex 1.45287 -14.373 0
      vertex 1.45287 -14.373 8
    endloop
  endfacet
  facet normal -0.904829 0.425775 0
    outer loop
      vertex 1.31446 -14.7226 0
      vertex 1.39466 -14.5522 8
      vertex 1.39466 -14.5522 0
    endloop
  endfacet
  facet normal -0.904829 0.425775 0
    outer loop
      vertex 1.39466 -14.5522 8
      vertex 1.31446 -14.7226 0
      vertex 1.31446 -14.7226 8
    endloop
  endfacet
  facet normal -0.770513 0.637424 0
    outer loop
      vertex 1.09345 -15.0268 0
      vertex 1.21352 -14.8817 8
      vertex 1.21352 -14.8817 0
    endloop
  endfacet
  facet normal -0.770513 0.637424 0
    outer loop
      vertex 1.21352 -14.8817 8
      vertex 1.09345 -15.0268 0
      vertex 1.09345 -15.0268 8
    endloop
  endfacet
  facet normal 0.684548 0.728968 -0
    outer loop
      vertex -0.956136 -15.1558 0
      vertex -1.09345 -15.0268 8
      vertex -0.956136 -15.1558 8
    endloop
  endfacet
  facet normal 0.684548 0.728968 0
    outer loop
      vertex -1.09345 -15.0268 8
      vertex -0.956136 -15.1558 0
      vertex -1.09345 -15.0268 0
    endloop
  endfacet
  facet normal 0.844326 0.535829 0
    outer loop
      vertex -1.21352 -14.8817 8
      vertex -1.31446 -14.7226 0
      vertex -1.31446 -14.7226 8
    endloop
  endfacet
  facet normal 0.844326 0.535829 0
    outer loop
      vertex -1.31446 -14.7226 0
      vertex -1.21352 -14.8817 8
      vertex -1.21352 -14.8817 0
    endloop
  endfacet
  facet normal 0.951056 0.309019 0
    outer loop
      vertex -1.39466 -14.5522 8
      vertex -1.45287 -14.373 0
      vertex -1.45287 -14.373 8
    endloop
  endfacet
  facet normal 0.951056 0.309019 0
    outer loop
      vertex -1.45287 -14.373 0
      vertex -1.39466 -14.5522 8
      vertex -1.39466 -14.5522 0
    endloop
  endfacet
  facet normal -0.248692 0.968583 0
    outer loop
      vertex 0.463525 -15.4266 0
      vertex 0.281072 -15.4734 8
      vertex 0.463525 -15.4266 8
    endloop
  endfacet
  facet normal -0.248692 0.968583 0
    outer loop
      vertex 0.281072 -15.4734 8
      vertex 0.463525 -15.4266 0
      vertex 0.281072 -15.4734 0
    endloop
  endfacet
  facet normal -0.587783 0.809019 0
    outer loop
      vertex 0.956136 -15.1558 0
      vertex 0.80374 -15.2665 8
      vertex 0.956136 -15.1558 8
    endloop
  endfacet
  facet normal -0.587783 0.809019 0
    outer loop
      vertex 0.80374 -15.2665 8
      vertex 0.956136 -15.1558 0
      vertex 0.80374 -15.2665 0
    endloop
  endfacet
  facet normal -0.481754 0.876307 0
    outer loop
      vertex 0.80374 -15.2665 0
      vertex 0.638668 -15.3572 8
      vertex 0.80374 -15.2665 8
    endloop
  endfacet
  facet normal -0.481754 0.876307 0
    outer loop
      vertex 0.638668 -15.3572 8
      vertex 0.80374 -15.2665 0
      vertex 0.638668 -15.3572 0
    endloop
  endfacet
  facet normal -0.951056 0.309019 0
    outer loop
      vertex 1.39466 -14.5522 0
      vertex 1.45287 -14.373 8
      vertex 1.45287 -14.373 0
    endloop
  endfacet
  facet normal -0.951056 0.309019 0
    outer loop
      vertex 1.45287 -14.373 8
      vertex 1.39466 -14.5522 0
      vertex 1.39466 -14.5522 8
    endloop
  endfacet
  facet normal 0.125333 0.992115 -0
    outer loop
      vertex -0.0941849 -15.497 0
      vertex -0.281072 -15.4734 8
      vertex -0.0941849 -15.497 8
    endloop
  endfacet
  facet normal 0.125333 0.992115 0
    outer loop
      vertex -0.281072 -15.4734 8
      vertex -0.0941849 -15.497 0
      vertex -0.281072 -15.4734 0
    endloop
  endfacet
  facet normal 0.368126 0.929776 -0
    outer loop
      vertex -0.463525 -15.4266 0
      vertex -0.638668 -15.3572 8
      vertex -0.463525 -15.4266 8
    endloop
  endfacet
  facet normal 0.368126 0.929776 0
    outer loop
      vertex -0.638668 -15.3572 8
      vertex -0.463525 -15.4266 0
      vertex -0.638668 -15.3572 0
    endloop
  endfacet
  facet normal 0.248692 0.968583 -0
    outer loop
      vertex -0.281072 -15.4734 0
      vertex -0.463525 -15.4266 8
      vertex -0.281072 -15.4734 8
    endloop
  endfacet
  facet normal 0.248692 0.968583 0
    outer loop
      vertex -0.463525 -15.4266 8
      vertex -0.281072 -15.4734 0
      vertex -0.463525 -15.4266 0
    endloop
  endfacet
  facet normal 0.770513 0.637424 0
    outer loop
      vertex -1.09345 -15.0268 8
      vertex -1.21352 -14.8817 0
      vertex -1.21352 -14.8817 8
    endloop
  endfacet
  facet normal 0.770513 0.637424 0
    outer loop
      vertex -1.21352 -14.8817 0
      vertex -1.09345 -15.0268 8
      vertex -1.09345 -15.0268 0
    endloop
  endfacet
  facet normal 0.904829 0.425775 0
    outer loop
      vertex -1.31446 -14.7226 8
      vertex -1.39466 -14.5522 0
      vertex -1.39466 -14.5522 8
    endloop
  endfacet
  facet normal 0.904829 0.425775 0
    outer loop
      vertex -1.39466 -14.5522 0
      vertex -1.31446 -14.7226 8
      vertex -1.31446 -14.7226 0
    endloop
  endfacet
  facet normal 0.982287 0.187382 0
    outer loop
      vertex -1.45287 -14.373 8
      vertex -1.48817 -14.188 0
      vertex -1.48817 -14.188 8
    endloop
  endfacet
  facet normal 0.982287 0.187382 0
    outer loop
      vertex -1.48817 -14.188 0
      vertex -1.45287 -14.373 8
      vertex -1.45287 -14.373 0
    endloop
  endfacet
  facet normal 0.998027 0.0627931 0
    outer loop
      vertex -1.48817 -14.188 8
      vertex -1.5 -14 0
      vertex -1.5 -14 8
    endloop
  endfacet
  facet normal 0.998027 0.0627931 0
    outer loop
      vertex -1.5 -14 0
      vertex -1.48817 -14.188 8
      vertex -1.48817 -14.188 0
    endloop
  endfacet
  facet normal 0.481754 0.876307 -0
    outer loop
      vertex -0.638668 -15.3572 0
      vertex -0.80374 -15.2665 8
      vertex -0.638668 -15.3572 8
    endloop
  endfacet
  facet normal 0.481754 0.876307 0
    outer loop
      vertex -0.80374 -15.2665 8
      vertex -0.638668 -15.3572 0
      vertex -0.80374 -15.2665 0
    endloop
  endfacet
  facet normal 0.587783 0.809019 -0
    outer loop
      vertex -0.80374 -15.2665 0
      vertex -0.956136 -15.1558 8
      vertex -0.80374 -15.2665 8
    endloop
  endfacet
  facet normal 0.587783 0.809019 0
    outer loop
      vertex -0.956136 -15.1558 8
      vertex -0.80374 -15.2665 0
      vertex -0.956136 -15.1558 0
    endloop
  endfacet
  facet normal 1 -0 0
    outer loop
      vertex -2.125 -7 8
      vertex -2.125 3 0
      vertex -2.125 3 8
    endloop
  endfacet
  facet normal 1 0 0
    outer loop
      vertex -2.125 3 0
      vertex -2.125 -7 8
      vertex -2.125 -7 0
    endloop
  endfacet
  facet normal -1 0 0
    outer loop
      vertex 2.125 -7 0
      vertex 2.125 3 8
      vertex 2.125 3 0
    endloop
  endfacet
  facet normal -1 -0 0
    outer loop
      vertex 2.125 3 8
      vertex 2.125 -7 0
      vertex 2.125 -7 8
    endloop
  endfacet
  facet normal 0 1 -0
    outer loop
      vertex 2.125 -7 0
      vertex -2.125 -7 8
      vertex 2.125 -7 8
    endloop
  endfacet
  facet normal 0 1 0
    outer loop
      vertex -2.125 -7 8
      vertex 2.125 -7 0
      vertex -2.125 -7 0
    endloop
  endfacet
endsolid OpenSCAD_Model
