solid OpenSCAD_Model
  facet normal 1 -0 0
    outer loop
      vertex 11.1 23 40
      vertex 11.1 40 6
      vertex 11.1 40 40
    endloop
  endfacet
  facet normal 1 0 0
    outer loop
      vertex 11.1 40 6
      vertex 11.1 23 40
      vertex 11.1 23 6
    endloop
  endfacet
  facet normal 0 0 1
    outer loop
      vertex 40 40 6
      vertex 31 23 6
      vertex 40 11.1 6
    endloop
  endfacet
  facet normal 0 0 1
    outer loop
      vertex 40 40 6
      vertex 30.7675 24.9145 6
      vertex 31 23 6
    endloop
  endfacet
  facet normal 0 0 1
    outer loop
      vertex 40 40 6
      vertex 30.0836 26.7178 6
      vertex 30.7675 24.9145 6
    endloop
  endfacet
  facet normal 0 0 1
    outer loop
      vertex 40 40 6
      vertex 28.9881 28.305 6
      vertex 30.0836 26.7178 6
    endloop
  endfacet
  facet normal 0 0 1
    outer loop
      vertex 40 40 6
      vertex 27.5445 29.5839 6
      vertex 28.9881 28.305 6
    endloop
  endfacet
  facet normal 0 0 1
    outer loop
      vertex 40 40 6
      vertex 25.8368 30.4801 6
      vertex 27.5445 29.5839 6
    endloop
  endfacet
  facet normal 0 0 1
    outer loop
      vertex 40 40 6
      vertex 23.9643 30.9417 6
      vertex 25.8368 30.4801 6
    endloop
  endfacet
  facet normal -0 0 1
    outer loop
      vertex 11.1 40 6
      vertex 23.9643 30.9417 6
      vertex 40 40 6
    endloop
  endfacet
  facet normal 0 0 1
    outer loop
      vertex 23.9643 30.9417 6
      vertex 11.1 40 6
      vertex 22.0357 30.9417 6
    endloop
  endfacet
  facet normal 0 0 1
    outer loop
      vertex 22.0357 30.9417 6
      vertex 11.1 40 6
      vertex 20.1632 30.4801 6
    endloop
  endfacet
  facet normal 0 0 1
    outer loop
      vertex 11.1 40 6
      vertex 18.4555 29.5839 6
      vertex 20.1632 30.4801 6
    endloop
  endfacet
  facet normal 0 0 1
    outer loop
      vertex 11.1 40 6
      vertex 17.0119 28.305 6
      vertex 18.4555 29.5839 6
    endloop
  endfacet
  facet normal 0 0 1
    outer loop
      vertex 11.1 40 6
      vertex 15.9164 26.7178 6
      vertex 17.0119 28.305 6
    endloop
  endfacet
  facet normal 0 0 1
    outer loop
      vertex 11.1 23 6
      vertex 15.9164 26.7178 6
      vertex 11.1 40 6
    endloop
  endfacet
  facet normal 0 0 1
    outer loop
      vertex 15.9164 26.7178 6
      vertex 11.1 23 6
      vertex 15.2325 24.9145 6
    endloop
  endfacet
  facet normal 0 0 1
    outer loop
      vertex 15.2325 24.9145 6
      vertex 11.1 23 6
      vertex 15 23 6
    endloop
  endfacet
  facet normal -0 0 1
    outer loop
      vertex 30.7675 21.0855 6
      vertex 40 11.1 6
      vertex 31 23 6
    endloop
  endfacet
  facet normal -0 0 1
    outer loop
      vertex 30.0836 19.2822 6
      vertex 40 11.1 6
      vertex 30.7675 21.0855 6
    endloop
  endfacet
  facet normal -0 0 1
    outer loop
      vertex 28.9881 17.695 6
      vertex 40 11.1 6
      vertex 30.0836 19.2822 6
    endloop
  endfacet
  facet normal -0 0 1
    outer loop
      vertex 27.5445 16.4161 6
      vertex 40 11.1 6
      vertex 28.9881 17.695 6
    endloop
  endfacet
  facet normal 0 0 1
    outer loop
      vertex 23 11.1 6
      vertex 27.5445 16.4161 6
      vertex 25.8368 15.5199 6
    endloop
  endfacet
  facet normal 0 0 1
    outer loop
      vertex 23 11.1 6
      vertex 25.8368 15.5199 6
      vertex 23.9643 15.0583 6
    endloop
  endfacet
  facet normal 0 0 1
    outer loop
      vertex 23 11.1 6
      vertex 23.9643 15.0583 6
      vertex 23 15.0583 6
    endloop
  endfacet
  facet normal 0 0 1
    outer loop
      vertex 27.5445 16.4161 6
      vertex 23 11.1 6
      vertex 40 11.1 6
    endloop
  endfacet
  facet normal 0 1 -0
    outer loop
      vertex 40 11.1 6
      vertex 23 11.1 40
      vertex 40 11.1 40
    endloop
  endfacet
  facet normal 0 1 0
    outer loop
      vertex 23 11.1 40
      vertex 40 11.1 6
      vertex 23 11.1 6
    endloop
  endfacet
  facet normal 1 -0 0
    outer loop
      vertex 23 11.1 40
      vertex 23 15.0583 6
      vertex 23 15.0583 40
    endloop
  endfacet
  facet normal 1 0 0
    outer loop
      vertex 23 15.0583 6
      vertex 23 11.1 40
      vertex 23 11.1 6
    endloop
  endfacet
  facet normal 0 1 -0
    outer loop
      vertex 15 23 6
      vertex 11.1 23 40
      vertex 15 23 40
    endloop
  endfacet
  facet normal 0 1 0
    outer loop
      vertex 11.1 23 40
      vertex 15 23 6
      vertex 11.1 23 6
    endloop
  endfacet
  facet normal -0.822984 -0.568065 0
    outer loop
      vertex 30.0836 26.7178 0
      vertex 28.9881 28.305 6
      vertex 28.9881 28.305 0
    endloop
  endfacet
  facet normal -0.822984 -0.568065 0
    outer loop
      vertex 28.9881 28.305 6
      vertex 30.0836 26.7178 0
      vertex 30.0836 26.7178 6
    endloop
  endfacet
  facet normal -0.992709 -0.120537 0
    outer loop
      vertex 31 23 0
      vertex 30.7675 24.9145 6
      vertex 30.7675 24.9145 0
    endloop
  endfacet
  facet normal -0.992709 -0.120537 0
    outer loop
      vertex 30.7675 24.9145 6
      vertex 31 23 0
      vertex 31 23 6
    endloop
  endfacet
  facet normal 0.992709 -0.120536 0
    outer loop
      vertex 15 23 6
      vertex 15.2325 24.9145 0
      vertex 15.2325 24.9145 6
    endloop
  endfacet
  facet normal 0.992709 -0.120536 0
    outer loop
      vertex 15.2325 24.9145 0
      vertex 15 23 6
      vertex 15 23 0
    endloop
  endfacet
  facet normal 0 0 0
    outer loop
      vertex 15 23 0
      vertex 15 23 6
      vertex 15 23 40
    endloop
  endfacet
  facet normal -0.663122 -0.748511 0
    outer loop
      vertex 27.5445 29.5839 0
      vertex 28.9881 28.305 6
      vertex 27.5445 29.5839 6
    endloop
  endfacet
  facet normal -0.663122 -0.748511 -0
    outer loop
      vertex 28.9881 28.305 6
      vertex 27.5445 29.5839 0
      vertex 28.9881 28.305 0
    endloop
  endfacet
  facet normal -0.239315 -0.970942 0
    outer loop
      vertex 23.9643 30.9417 0
      vertex 25.8368 30.4801 6
      vertex 23.9643 30.9417 6
    endloop
  endfacet
  facet normal -0.239315 -0.970942 -0
    outer loop
      vertex 25.8368 30.4801 6
      vertex 23.9643 30.9417 0
      vertex 25.8368 30.4801 0
    endloop
  endfacet
  facet normal 0.663122 -0.748511 0
    outer loop
      vertex 17.0119 28.305 0
      vertex 18.4555 29.5839 6
      vertex 17.0119 28.305 6
    endloop
  endfacet
  facet normal 0.663122 -0.748511 0
    outer loop
      vertex 18.4555 29.5839 6
      vertex 17.0119 28.305 0
      vertex 18.4555 29.5839 0
    endloop
  endfacet
  facet normal 0.935016 -0.354605 0
    outer loop
      vertex 15.2325 24.9145 6
      vertex 15.9164 26.7178 0
      vertex 15.9164 26.7178 6
    endloop
  endfacet
  facet normal 0.935016 -0.354605 0
    outer loop
      vertex 15.9164 26.7178 0
      vertex 15.2325 24.9145 6
      vertex 15.2325 24.9145 0
    endloop
  endfacet
  facet normal 0.822984 -0.568065 0
    outer loop
      vertex 15.9164 26.7178 6
      vertex 17.0119 28.305 0
      vertex 17.0119 28.305 6
    endloop
  endfacet
  facet normal 0.822984 -0.568065 0
    outer loop
      vertex 17.0119 28.305 0
      vertex 15.9164 26.7178 6
      vertex 15.9164 26.7178 0
    endloop
  endfacet
  facet normal -0.935016 -0.354604 0
    outer loop
      vertex 30.7675 24.9145 0
      vertex 30.0836 26.7178 6
      vertex 30.0836 26.7178 0
    endloop
  endfacet
  facet normal -0.935016 -0.354604 0
    outer loop
      vertex 30.0836 26.7178 6
      vertex 30.7675 24.9145 0
      vertex 30.7675 24.9145 6
    endloop
  endfacet
  facet normal 0.239315 -0.970942 0
    outer loop
      vertex 20.1632 30.4801 0
      vertex 22.0357 30.9417 6
      vertex 20.1632 30.4801 6
    endloop
  endfacet
  facet normal 0.239315 -0.970942 0
    outer loop
      vertex 22.0357 30.9417 6
      vertex 20.1632 30.4801 0
      vertex 22.0357 30.9417 0
    endloop
  endfacet
  facet normal -0.464723 -0.885456 0
    outer loop
      vertex 25.8368 30.4801 0
      vertex 27.5445 29.5839 6
      vertex 25.8368 30.4801 6
    endloop
  endfacet
  facet normal -0.464723 -0.885456 -0
    outer loop
      vertex 27.5445 29.5839 6
      vertex 25.8368 30.4801 0
      vertex 27.5445 29.5839 0
    endloop
  endfacet
  facet normal 0.992709 0.120536 0
    outer loop
      vertex 15.2325 21.0855 40
      vertex 15 23 0
      vertex 15 23 40
    endloop
  endfacet
  facet normal 0.992709 0.120536 0
    outer loop
      vertex 15 23 0
      vertex 15.2325 21.0855 40
      vertex 15.2325 21.0855 0
    endloop
  endfacet
  facet normal 0.464724 -0.885456 0
    outer loop
      vertex 18.4555 29.5839 0
      vertex 20.1632 30.4801 6
      vertex 18.4555 29.5839 6
    endloop
  endfacet
  facet normal 0.464724 -0.885456 0
    outer loop
      vertex 20.1632 30.4801 6
      vertex 18.4555 29.5839 0
      vertex 20.1632 30.4801 0
    endloop
  endfacet
  facet normal 0.464723 0.885456 -0
    outer loop
      vertex 20.1632 15.5199 0
      vertex 18.4555 16.4161 40
      vertex 20.1632 15.5199 40
    endloop
  endfacet
  facet normal 0.464723 0.885456 0
    outer loop
      vertex 18.4555 16.4161 40
      vertex 20.1632 15.5199 0
      vertex 18.4555 16.4161 0
    endloop
  endfacet
  facet normal 0.663123 0.748511 -0
    outer loop
      vertex 18.4555 16.4161 0
      vertex 17.0119 17.695 40
      vertex 18.4555 16.4161 40
    endloop
  endfacet
  facet normal 0.663123 0.748511 0
    outer loop
      vertex 17.0119 17.695 40
      vertex 18.4555 16.4161 0
      vertex 17.0119 17.695 0
    endloop
  endfacet
  facet normal -0.822984 0.568065 0
    outer loop
      vertex 28.9881 17.695 0
      vertex 30.0836 19.2822 6
      vertex 30.0836 19.2822 0
    endloop
  endfacet
  facet normal -0.822984 0.568065 0
    outer loop
      vertex 30.0836 19.2822 6
      vertex 28.9881 17.695 0
      vertex 28.9881 17.695 6
    endloop
  endfacet
  facet normal 0 -1 0
    outer loop
      vertex 22.0357 30.9417 0
      vertex 23.9643 30.9417 6
      vertex 22.0357 30.9417 6
    endloop
  endfacet
  facet normal 0 -1 -0
    outer loop
      vertex 23.9643 30.9417 6
      vertex 22.0357 30.9417 0
      vertex 23.9643 30.9417 0
    endloop
  endfacet
  facet normal 0 0 1
    outer loop
      vertex 2.13111 6.75253 40
      vertex 2.30749 5.47617 40
      vertex 2.46 5.74032 40
    endloop
  endfacet
  facet normal 0 0 1
    outer loop
      vertex 0 5 40
      vertex 2.30749 5.47617 40
      vertex 2.13111 6.75253 40
    endloop
  endfacet
  facet normal 0 0 1
    outer loop
      vertex 2.30749 5.47617 40
      vertex 0 5 40
      vertex 2.15244 4.99899 40
    endloop
  endfacet
  facet normal 0 0 1
    outer loop
      vertex 0 5 40
      vertex 2.13111 6.75253 40
      vertex 2 8 40
    endloop
  endfacet
  facet normal 0 0 1
    outer loop
      vertex 40 3 40
      vertex 30 0 40
      vertex 40 0 40
    endloop
  endfacet
  facet normal -0 0 1
    outer loop
      vertex 11.27 3 40
      vertex 30 0 40
      vertex 40 3 40
    endloop
  endfacet
  facet normal -0 0 1
    outer loop
      vertex 11 2.80385 40
      vertex 30 0 40
      vertex 11.27 3 40
    endloop
  endfacet
  facet normal -0 0 1
    outer loop
      vertex 9.8541 2.29366 40
      vertex 30 0 40
      vertex 11 2.80385 40
    endloop
  endfacet
  facet normal 0 0 1
    outer loop
      vertex 4.47736 0.0273905 40
      vertex 9.8541 2.29366 40
      vertex 8.62717 2.03287 40
    endloop
  endfacet
  facet normal 0 0 1
    outer loop
      vertex 4.47736 0.0273905 40
      vertex 8.62717 2.03287 40
      vertex 7.37283 2.03287 40
    endloop
  endfacet
  facet normal -0 0 1
    outer loop
      vertex 5.7 2.42154 40
      vertex 6.1459 2.29366 40
      vertex 5.76029 2.46534 40
    endloop
  endfacet
  facet normal 0 0 1
    outer loop
      vertex 5.24164 2.21746 40
      vertex 6.1459 2.29366 40
      vertex 5.7 2.42154 40
    endloop
  endfacet
  facet normal 0 0 1
    outer loop
      vertex 4.47736 0.0273905 40
      vertex 6.1459 2.29366 40
      vertex 5.24164 2.21746 40
    endloop
  endfacet
  facet normal 0 0 1
    outer loop
      vertex 6.1459 2.29366 40
      vertex 4.47736 0.0273905 40
      vertex 7.37283 2.03287 40
    endloop
  endfacet
  facet normal 0 0 1
    outer loop
      vertex 4.47736 0.0273905 40
      vertex 5.24164 2.21746 40
      vertex 4.75087 2.11315 40
    endloop
  endfacet
  facet normal 0 0 1
    outer loop
      vertex 9.8541 2.29366 40
      vertex 4.47736 0.0273905 40
      vertex 30 0 40
    endloop
  endfacet
  facet normal -0 0 1
    outer loop
      vertex 4.24913 2.11315 40
      vertex 4.47736 0.0273905 40
      vertex 4.75087 2.11315 40
    endloop
  endfacet
  facet normal 0 0 1
    outer loop
      vertex 3.45491 0.244717 40
      vertex 4.24913 2.11315 40
      vertex 3.75836 2.21746 40
    endloop
  endfacet
  facet normal 0 0 1
    outer loop
      vertex 4.24913 2.11315 40
      vertex 3.45491 0.244717 40
      vertex 4.47736 0.0273905 40
    endloop
  endfacet
  facet normal 0 0 1
    outer loop
      vertex 2.5 0.669872 40
      vertex 3.75836 2.21746 40
      vertex 3.3 2.42154 40
    endloop
  endfacet
  facet normal 0 0 1
    outer loop
      vertex 1.65435 1.28428 40
      vertex 3.3 2.42154 40
      vertex 2.89409 2.71645 40
    endloop
  endfacet
  facet normal 0 0 1
    outer loop
      vertex 1.65435 1.28428 40
      vertex 2.89409 2.71645 40
      vertex 2.55836 3.08931 40
    endloop
  endfacet
  facet normal 0 0 1
    outer loop
      vertex 3.75836 2.21746 40
      vertex 2.5 0.669872 40
      vertex 3.45491 0.244717 40
    endloop
  endfacet
  facet normal 0 0 1
    outer loop
      vertex 0.954914 2.06107 40
      vertex 2.55836 3.08931 40
      vertex 2.30749 3.52383 40
    endloop
  endfacet
  facet normal 0 0 1
    outer loop
      vertex 0.432272 2.96632 40
      vertex 2.30749 3.52383 40
      vertex 2.15244 4.00101 40
    endloop
  endfacet
  facet normal 0 0 1
    outer loop
      vertex 0.109262 3.96044 40
      vertex 2.15244 4.00101 40
      vertex 2.1 4.5 40
    endloop
  endfacet
  facet normal 0 0 1
    outer loop
      vertex 3.3 2.42154 40
      vertex 1.65435 1.28428 40
      vertex 2.5 0.669872 40
    endloop
  endfacet
  facet normal 0 0 1
    outer loop
      vertex 2.15244 4.99899 40
      vertex 0 5 40
      vertex 2.1 4.5 40
    endloop
  endfacet
  facet normal -0 0 1
    outer loop
      vertex 0 40 40
      vertex 3 11.274 40
      vertex 3 40 40
    endloop
  endfacet
  facet normal 0 0 1
    outer loop
      vertex 3 11.274 40
      vertex 0 40 40
      vertex 2.51873 10.4404 40
    endloop
  endfacet
  facet normal 0 0 1
    outer loop
      vertex 0 5 40
      vertex 2.51873 10.4404 40
      vertex 0 40 40
    endloop
  endfacet
  facet normal 0 0 1
    outer loop
      vertex 2.51873 10.4404 40
      vertex 0 5 40
      vertex 2.13111 9.24747 40
    endloop
  endfacet
  facet normal 0 0 1
    outer loop
      vertex 2.1 4.5 40
      vertex 0 5 40
      vertex 0.109262 3.96044 40
    endloop
  endfacet
  facet normal 0 0 1
    outer loop
      vertex 2.55836 3.08931 40
      vertex 0.954914 2.06107 40
      vertex 1.65435 1.28428 40
    endloop
  endfacet
  facet normal 0 0 1
    outer loop
      vertex 2.30749 3.52383 40
      vertex 0.432272 2.96632 40
      vertex 0.954914 2.06107 40
    endloop
  endfacet
  facet normal 0 0 1
    outer loop
      vertex 2.13111 9.24747 40
      vertex 0 5 40
      vertex 2 8 40
    endloop
  endfacet
  facet normal 0 0 1
    outer loop
      vertex 2.15244 4.00101 40
      vertex 0.109262 3.96044 40
      vertex 0.432272 2.96632 40
    endloop
  endfacet
  facet normal 0 0 1
    outer loop
      vertex 23 15.0583 40
      vertex 22.0357 15.0583 40
      vertex 23 11.1 40
    endloop
  endfacet
  facet normal -0 0 1
    outer loop
      vertex 23 11.1 40
      vertex 40 8 40
      vertex 40 11.1 40
    endloop
  endfacet
  facet normal 0 0 1
    outer loop
      vertex 20.1632 15.5199 40
      vertex 23 11.1 40
      vertex 22.0357 15.0583 40
    endloop
  endfacet
  facet normal 0 0 1
    outer loop
      vertex 13.4813 10.4404 40
      vertex 20.1632 15.5199 40
      vertex 18.4555 16.4161 40
    endloop
  endfacet
  facet normal 0 0 1
    outer loop
      vertex 12.8541 11.5267 40
      vertex 18.4555 16.4161 40
      vertex 17.0119 17.695 40
    endloop
  endfacet
  facet normal 0 0 1
    outer loop
      vertex 23 11.1 40
      vertex 14 8 40
      vertex 40 8 40
    endloop
  endfacet
  facet normal 0 -0 1
    outer loop
      vertex 13.8689 9.24747 40
      vertex 20.1632 15.5199 40
      vertex 13.4813 10.4404 40
    endloop
  endfacet
  facet normal 0 0 1
    outer loop
      vertex 11 13.1962 40
      vertex 17.0119 17.695 40
      vertex 15.9164 19.2822 40
    endloop
  endfacet
  facet normal 0 0 1
    outer loop
      vertex 11.1 23 40
      vertex 15.9164 19.2822 40
      vertex 15.2325 21.0855 40
    endloop
  endfacet
  facet normal -0 0 1
    outer loop
      vertex 11.1 23 40
      vertex 15.2325 21.0855 40
      vertex 15 23 40
    endloop
  endfacet
  facet normal 0 0 1
    outer loop
      vertex 23 11.1 40
      vertex 13.8689 9.24747 40
      vertex 14 8 40
    endloop
  endfacet
  facet normal 0 0 1
    outer loop
      vertex 20.1632 15.5199 40
      vertex 13.8689 9.24747 40
      vertex 23 11.1 40
    endloop
  endfacet
  facet normal 0 0 1
    outer loop
      vertex 18.4555 16.4161 40
      vertex 12.8541 11.5267 40
      vertex 13.4813 10.4404 40
    endloop
  endfacet
  facet normal 0 0 1
    outer loop
      vertex 17.0119 17.695 40
      vertex 12.0148 12.4589 40
      vertex 12.8541 11.5267 40
    endloop
  endfacet
  facet normal 0 0 1
    outer loop
      vertex 15.9164 19.2822 40
      vertex 11.1 23 40
      vertex 9.8541 13.7063 40
    endloop
  endfacet
  facet normal 0 0 1
    outer loop
      vertex 17.0119 17.695 40
      vertex 11 13.1962 40
      vertex 12.0148 12.4589 40
    endloop
  endfacet
  facet normal -0 0 1
    outer loop
      vertex 8 40 40
      vertex 11.1 23 40
      vertex 11.1 40 40
    endloop
  endfacet
  facet normal 0 0 1
    outer loop
      vertex 15.9164 19.2822 40
      vertex 9.8541 13.7063 40
      vertex 11 13.1962 40
    endloop
  endfacet
  facet normal 0 0 1
    outer loop
      vertex 11.1 23 40
      vertex 8.62717 13.9671 40
      vertex 9.8541 13.7063 40
    endloop
  endfacet
  facet normal 0 0 1
    outer loop
      vertex 8 13.9671 40
      vertex 11.1 23 40
      vertex 8 40 40
    endloop
  endfacet
  facet normal 0 0 1
    outer loop
      vertex 11.1 23 40
      vertex 8 13.9671 40
      vertex 8.62717 13.9671 40
    endloop
  endfacet
  facet normal -0.992709 0.120537 0
    outer loop
      vertex 30.7675 21.0855 0
      vertex 31 23 6
      vertex 31 23 0
    endloop
  endfacet
  facet normal -0.992709 0.120537 0
    outer loop
      vertex 31 23 6
      vertex 30.7675 21.0855 0
      vertex 30.7675 21.0855 6
    endloop
  endfacet
  facet normal 0.935016 0.354605 0
    outer loop
      vertex 15.9164 19.2822 40
      vertex 15.2325 21.0855 0
      vertex 15.2325 21.0855 40
    endloop
  endfacet
  facet normal 0.935016 0.354605 0
    outer loop
      vertex 15.2325 21.0855 0
      vertex 15.9164 19.2822 40
      vertex 15.9164 19.2822 0
    endloop
  endfacet
  facet normal -0.464723 0.885456 0
    outer loop
      vertex 27.5445 16.4161 0
      vertex 25.8368 15.5199 6
      vertex 27.5445 16.4161 6
    endloop
  endfacet
  facet normal -0.464723 0.885456 0
    outer loop
      vertex 25.8368 15.5199 6
      vertex 27.5445 16.4161 0
      vertex 25.8368 15.5199 0
    endloop
  endfacet
  facet normal -0.663123 0.748511 0
    outer loop
      vertex 28.9881 17.695 0
      vertex 27.5445 16.4161 6
      vertex 28.9881 17.695 6
    endloop
  endfacet
  facet normal -0.663123 0.748511 0
    outer loop
      vertex 27.5445 16.4161 6
      vertex 28.9881 17.695 0
      vertex 27.5445 16.4161 0
    endloop
  endfacet
  facet normal -0.935016 0.354605 0
    outer loop
      vertex 30.0836 19.2822 0
      vertex 30.7675 21.0855 6
      vertex 30.7675 21.0855 0
    endloop
  endfacet
  facet normal -0.935016 0.354605 0
    outer loop
      vertex 30.7675 21.0855 6
      vertex 30.0836 19.2822 0
      vertex 30.0836 19.2822 6
    endloop
  endfacet
  facet normal -0.239316 0.970942 0
    outer loop
      vertex 25.8368 15.5199 0
      vertex 23.9643 15.0583 6
      vertex 25.8368 15.5199 6
    endloop
  endfacet
  facet normal -0.239316 0.970942 0
    outer loop
      vertex 23.9643 15.0583 6
      vertex 25.8368 15.5199 0
      vertex 23.9643 15.0583 0
    endloop
  endfacet
  facet normal 0 1 0
    outer loop
      vertex 23.9643 15.0583 6
      vertex 23.9643 15.0583 0
      vertex 23 15.0583 6
    endloop
  endfacet
  facet normal 0 1 -0
    outer loop
      vertex 23 15.0583 6
      vertex 22.0357 15.0583 40
      vertex 23 15.0583 40
    endloop
  endfacet
  facet normal 0 1 0
    outer loop
      vertex 23 15.0583 6
      vertex 22.0357 15.0583 0
      vertex 22.0357 15.0583 40
    endloop
  endfacet
  facet normal 0 1 0
    outer loop
      vertex 22.0357 15.0583 0
      vertex 23 15.0583 6
      vertex 23.9643 15.0583 0
    endloop
  endfacet
  facet normal 0.822984 0.568065 0
    outer loop
      vertex 17.0119 17.695 40
      vertex 15.9164 19.2822 0
      vertex 15.9164 19.2822 40
    endloop
  endfacet
  facet normal 0.822984 0.568065 0
    outer loop
      vertex 15.9164 19.2822 0
      vertex 17.0119 17.695 40
      vertex 17.0119 17.695 0
    endloop
  endfacet
  facet normal 0.239316 0.970942 -0
    outer loop
      vertex 22.0357 15.0583 0
      vertex 20.1632 15.5199 40
      vertex 22.0357 15.0583 40
    endloop
  endfacet
  facet normal 0.239316 0.970942 0
    outer loop
      vertex 20.1632 15.5199 40
      vertex 22.0357 15.0583 0
      vertex 20.1632 15.5199 0
    endloop
  endfacet
  facet normal 1 0 0
    outer loop
      vertex 40 3 40
      vertex 40 0 40
      vertex 40 3 3
    endloop
  endfacet
  facet normal 1 0 0
    outer loop
      vertex 40 11.1 40
      vertex 40 8 40
      vertex 40 11.1 6
    endloop
  endfacet
  facet normal 1 -0 0
    outer loop
      vertex 40 11.1 6
      vertex 40 40 0
      vertex 40 40 6
    endloop
  endfacet
  facet normal 1 0 0
    outer loop
      vertex 40 8 3
      vertex 40 11.1 6
      vertex 40 8 40
    endloop
  endfacet
  facet normal 1 -0 0
    outer loop
      vertex 40 8 3
      vertex 40 40 0
      vertex 40 11.1 6
    endloop
  endfacet
  facet normal 1 0 0
    outer loop
      vertex 40 0 0
      vertex 40 8 3
      vertex 40 3 3
    endloop
  endfacet
  facet normal 1 0 0
    outer loop
      vertex 40 8 3
      vertex 40 0 0
      vertex 40 40 0
    endloop
  endfacet
  facet normal 1 0 0
    outer loop
      vertex 40 0 0
      vertex 40 3 3
      vertex 40 0 40
    endloop
  endfacet
  facet normal 0 0 1
    outer loop
      vertex 3 11.274 3
      vertex 2.13111 9.24747 3
      vertex 2.46 5.74032 3
    endloop
  endfacet
  facet normal -0 0 1
    outer loop
      vertex 2 8 3
      vertex 2.46 5.74032 3
      vertex 2.13111 9.24747 3
    endloop
  endfacet
  facet normal 0 0 1
    outer loop
      vertex 2.46 5.74032 3
      vertex 2 8 3
      vertex 2.13111 6.75253 3
    endloop
  endfacet
  facet normal -0 0 1
    outer loop
      vertex 3 40 3
      vertex 8 13.9671 3
      vertex 8 40 3
    endloop
  endfacet
  facet normal 0 -0 1
    outer loop
      vertex 5.76029 2.46534 3
      vertex 8 13.9671 3
      vertex 3 11.274 3
    endloop
  endfacet
  facet normal 0 0 1
    outer loop
      vertex 8 13.9671 3
      vertex 5.76029 2.46534 3
      vertex 7.37283 2.03287 3
    endloop
  endfacet
  facet normal 0 0 1
    outer loop
      vertex 7.37283 2.03287 3
      vertex 5.76029 2.46534 3
      vertex 6.1459 2.29366 3
    endloop
  endfacet
  facet normal -0 0 1
    outer loop
      vertex 2.46 5.74032 3
      vertex 5.76029 2.46534 3
      vertex 3 11.274 3
    endloop
  endfacet
  facet normal 0 -0 1
    outer loop
      vertex 4.75087 2.11315 3
      vertex 5.76029 2.46534 3
      vertex 2.46 5.74032 3
    endloop
  endfacet
  facet normal 0 0 1
    outer loop
      vertex 5.76029 2.46534 3
      vertex 5.24164 2.21746 3
      vertex 5.7 2.42154 3
    endloop
  endfacet
  facet normal 0 0 1
    outer loop
      vertex 5.76029 2.46534 3
      vertex 4.75087 2.11315 3
      vertex 5.24164 2.21746 3
    endloop
  endfacet
  facet normal 0 0 1
    outer loop
      vertex 4.75087 2.11315 3
      vertex 2.46 5.74032 3
      vertex 4.24913 2.11315 3
    endloop
  endfacet
  facet normal 0 0 1
    outer loop
      vertex 8 13.9671 3
      vertex 3 40 3
      vertex 3 11.274 3
    endloop
  endfacet
  facet normal 0 0 1
    outer loop
      vertex 4.24913 2.11315 3
      vertex 2.46 5.74032 3
      vertex 3.75836 2.21746 3
    endloop
  endfacet
  facet normal 0 0 1
    outer loop
      vertex 3.75836 2.21746 3
      vertex 2.46 5.74032 3
      vertex 3.3 2.42154 3
    endloop
  endfacet
  facet normal 0 0 1
    outer loop
      vertex 3.3 2.42154 3
      vertex 2.46 5.74032 3
      vertex 2.89409 2.71645 3
    endloop
  endfacet
  facet normal 0 0 1
    outer loop
      vertex 2.13111 9.24747 3
      vertex 3 11.274 3
      vertex 2.51873 10.4404 3
    endloop
  endfacet
  facet normal 0 0 1
    outer loop
      vertex 2.89409 2.71645 3
      vertex 2.46 5.74032 3
      vertex 2.55836 3.08931 3
    endloop
  endfacet
  facet normal 0 0 1
    outer loop
      vertex 2.15244 4.99899 3
      vertex 2.46 5.74032 3
      vertex 2.30749 5.47617 3
    endloop
  endfacet
  facet normal 0 0 1
    outer loop
      vertex 2.46 5.74032 3
      vertex 2.30749 3.52383 3
      vertex 2.55836 3.08931 3
    endloop
  endfacet
  facet normal 0 0 1
    outer loop
      vertex 2.15244 4.00101 3
      vertex 2.46 5.74032 3
      vertex 2.15244 4.99899 3
    endloop
  endfacet
  facet normal 0 0 1
    outer loop
      vertex 2.46 5.74032 3
      vertex 2.15244 4.00101 3
      vertex 2.30749 3.52383 3
    endloop
  endfacet
  facet normal 0 -0 1
    outer loop
      vertex 2.15244 4.00101 3
      vertex 2.15244 4.99899 3
      vertex 2.1 4.5 3
    endloop
  endfacet
  facet normal -0 0 1
    outer loop
      vertex 14 8 3
      vertex 40 3 3
      vertex 40 8 3
    endloop
  endfacet
  facet normal 0 0 1
    outer loop
      vertex 13.4813 10.4404 3
      vertex 14 8 3
      vertex 13.8689 9.24747 3
    endloop
  endfacet
  facet normal 0 0 1
    outer loop
      vertex 12.8541 11.5267 3
      vertex 14 8 3
      vertex 13.4813 10.4404 3
    endloop
  endfacet
  facet normal 0 0 1
    outer loop
      vertex 12.0148 12.4589 3
      vertex 14 8 3
      vertex 12.8541 11.5267 3
    endloop
  endfacet
  facet normal 0 0 1
    outer loop
      vertex 14 8 3
      vertex 11.27 3 3
      vertex 40 3 3
    endloop
  endfacet
  facet normal 0 0 1
    outer loop
      vertex 12.0148 12.4589 3
      vertex 11.27 3 3
      vertex 14 8 3
    endloop
  endfacet
  facet normal 0 0 1
    outer loop
      vertex 11 13.1962 3
      vertex 11.27 3 3
      vertex 12.0148 12.4589 3
    endloop
  endfacet
  facet normal 0 0 1
    outer loop
      vertex 8 13.9671 3
      vertex 11.27 3 3
      vertex 11 13.1962 3
    endloop
  endfacet
  facet normal 0 0 1
    outer loop
      vertex 8 13.9671 3
      vertex 11 13.1962 3
      vertex 9.8541 13.7063 3
    endloop
  endfacet
  facet normal 0 -0 1
    outer loop
      vertex 8.62717 2.03287 3
      vertex 11.27 3 3
      vertex 8 13.9671 3
    endloop
  endfacet
  facet normal -0 0 1
    outer loop
      vertex 8 13.9671 3
      vertex 9.8541 13.7063 3
      vertex 8.62717 13.9671 3
    endloop
  endfacet
  facet normal 0 0 1
    outer loop
      vertex 11.27 3 3
      vertex 9.8541 2.29366 3
      vertex 11 2.80385 3
    endloop
  endfacet
  facet normal 0 0 1
    outer loop
      vertex 11.27 3 3
      vertex 8.62717 2.03287 3
      vertex 9.8541 2.29366 3
    endloop
  endfacet
  facet normal 0 0 1
    outer loop
      vertex 8.62717 2.03287 3
      vertex 8 13.9671 3
      vertex 7.37283 2.03287 3
    endloop
  endfacet
  facet normal 0 1 -0
    outer loop
      vertex 40 3 3
      vertex 11.27 3 40
      vertex 40 3 40
    endloop
  endfacet
  facet normal 0 1 0
    outer loop
      vertex 11.27 3 40
      vertex 40 3 3
      vertex 11.27 3 3
    endloop
  endfacet
  facet normal 0 -1 0
    outer loop
      vertex 14 8 3
      vertex 40 8 40
      vertex 14 8 40
    endloop
  endfacet
  facet normal 0 -1 -0
    outer loop
      vertex 40 8 40
      vertex 14 8 3
      vertex 40 8 3
    endloop
  endfacet
  facet normal 1 -0 0
    outer loop
      vertex 3 11.274 40
      vertex 3 40 3
      vertex 3 40 40
    endloop
  endfacet
  facet normal 1 0 0
    outer loop
      vertex 3 40 3
      vertex 3 11.274 40
      vertex 3 11.274 3
    endloop
  endfacet
  facet normal -1 0 0
    outer loop
      vertex 8 13.9671 3
      vertex 8 40 40
      vertex 8 40 3
    endloop
  endfacet
  facet normal -1 -0 0
    outer loop
      vertex 8 40 40
      vertex 8 13.9671 3
      vertex 8 13.9671 40
    endloop
  endfacet
  facet normal 0 1 -0
    outer loop
      vertex 40 40 0
      vertex 11.1 40 6
      vertex 40 40 6
    endloop
  endfacet
  facet normal 0 1 0
    outer loop
      vertex 0 40 0
      vertex 8 40 3
      vertex 40 40 0
    endloop
  endfacet
  facet normal 0 1 0
    outer loop
      vertex 11.1 40 6
      vertex 40 40 0
      vertex 8 40 3
    endloop
  endfacet
  facet normal 0 1 -0
    outer loop
      vertex 11.1 40 6
      vertex 8 40 40
      vertex 11.1 40 40
    endloop
  endfacet
  facet normal 0 1 0
    outer loop
      vertex 8 40 40
      vertex 11.1 40 6
      vertex 8 40 3
    endloop
  endfacet
  facet normal 0 1 -0
    outer loop
      vertex 3 40 3
      vertex 0 40 40
      vertex 3 40 40
    endloop
  endfacet
  facet normal 0 1 0
    outer loop
      vertex 3 40 3
      vertex 0 40 0
      vertex 0 40 40
    endloop
  endfacet
  facet normal 0 1 0
    outer loop
      vertex 8 40 3
      vertex 0 40 0
      vertex 3 40 3
    endloop
  endfacet
  facet normal -0.866025 -0.5 0
    outer loop
      vertex 13.4813 10.4404 3
      vertex 12.8541 11.5267 40
      vertex 12.8541 11.5267 3
    endloop
  endfacet
  facet normal -0.866025 -0.5 0
    outer loop
      vertex 12.8541 11.5267 40
      vertex 13.4813 10.4404 3
      vertex 13.4813 10.4404 40
    endloop
  endfacet
  facet normal -0.994522 -0.104529 0
    outer loop
      vertex 14 8 3
      vertex 13.8689 9.24747 40
      vertex 13.8689 9.24747 3
    endloop
  endfacet
  facet normal -0.994522 -0.104529 0
    outer loop
      vertex 13.8689 9.24747 40
      vertex 14 8 3
      vertex 14 8 40
    endloop
  endfacet
  facet normal -0.743145 -0.669131 0
    outer loop
      vertex 12.8541 11.5267 3
      vertex 12.0148 12.4589 40
      vertex 12.0148 12.4589 3
    endloop
  endfacet
  facet normal -0.743145 -0.669131 0
    outer loop
      vertex 12.0148 12.4589 40
      vertex 12.8541 11.5267 3
      vertex 12.8541 11.5267 40
    endloop
  endfacet
  facet normal -0.207911 -0.978148 0
    outer loop
      vertex 8.62717 13.9671 3
      vertex 9.8541 13.7063 40
      vertex 8.62717 13.9671 40
    endloop
  endfacet
  facet normal -0.207911 -0.978148 -0
    outer loop
      vertex 9.8541 13.7063 40
      vertex 8.62717 13.9671 3
      vertex 9.8541 13.7063 3
    endloop
  endfacet
  facet normal 0.951057 -0.309017 0
    outer loop
      vertex 2.13111 9.24747 40
      vertex 2.51873 10.4404 3
      vertex 2.51873 10.4404 40
    endloop
  endfacet
  facet normal 0.951057 -0.309017 0
    outer loop
      vertex 2.51873 10.4404 3
      vertex 2.13111 9.24747 40
      vertex 2.13111 9.24747 3
    endloop
  endfacet
  facet normal -0.951057 -0.309017 0
    outer loop
      vertex 13.8689 9.24747 3
      vertex 13.4813 10.4404 40
      vertex 13.4813 10.4404 3
    endloop
  endfacet
  facet normal -0.951057 -0.309017 0
    outer loop
      vertex 13.4813 10.4404 40
      vertex 13.8689 9.24747 3
      vertex 13.8689 9.24747 40
    endloop
  endfacet
  facet normal -0.587786 -0.809017 0
    outer loop
      vertex 11 13.1962 3
      vertex 12.0148 12.4589 40
      vertex 11 13.1962 40
    endloop
  endfacet
  facet normal -0.587786 -0.809017 -0
    outer loop
      vertex 12.0148 12.4589 40
      vertex 11 13.1962 3
      vertex 12.0148 12.4589 3
    endloop
  endfacet
  facet normal -0.406737 -0.913545 0
    outer loop
      vertex 9.8541 13.7063 3
      vertex 11 13.1962 40
      vertex 9.8541 13.7063 40
    endloop
  endfacet
  facet normal -0.406737 -0.913545 -0
    outer loop
      vertex 11 13.1962 40
      vertex 9.8541 13.7063 3
      vertex 11 13.1962 3
    endloop
  endfacet
  facet normal 0.994522 0.104528 0
    outer loop
      vertex 2.13111 6.75253 40
      vertex 2 8 3
      vertex 2 8 40
    endloop
  endfacet
  facet normal 0.994522 0.104528 0
    outer loop
      vertex 2 8 3
      vertex 2.13111 6.75253 40
      vertex 2.13111 6.75253 3
    endloop
  endfacet
  facet normal 0.866025 -0.5 0
    outer loop
      vertex 2.51873 10.4404 40
      vertex 3 11.274 3
      vertex 3 11.274 40
    endloop
  endfacet
  facet normal 0.866025 -0.5 0
    outer loop
      vertex 3 11.274 3
      vertex 2.51873 10.4404 40
      vertex 2.51873 10.4404 3
    endloop
  endfacet
  facet normal 0 1 -0
    outer loop
      vertex 8.62717 2.03287 3
      vertex 7.37283 2.03287 40
      vertex 8.62717 2.03287 40
    endloop
  endfacet
  facet normal 0 1 0
    outer loop
      vertex 7.37283 2.03287 40
      vertex 8.62717 2.03287 3
      vertex 7.37283 2.03287 3
    endloop
  endfacet
  facet normal 0 -1 0
    outer loop
      vertex 8 13.9671 3
      vertex 8.62717 13.9671 40
      vertex 8 13.9671 40
    endloop
  endfacet
  facet normal 0 -1 -0
    outer loop
      vertex 8.62717 13.9671 40
      vertex 8 13.9671 3
      vertex 8.62717 13.9671 3
    endloop
  endfacet
  facet normal 0.994522 -0.104528 0
    outer loop
      vertex 2 8 40
      vertex 2.13111 9.24747 3
      vertex 2.13111 9.24747 40
    endloop
  endfacet
  facet normal 0.994522 -0.104528 0
    outer loop
      vertex 2.13111 9.24747 3
      vertex 2 8 40
      vertex 2 8 3
    endloop
  endfacet
  facet normal 0.951057 0.309017 0
    outer loop
      vertex 2.46 5.74032 40
      vertex 2.13111 6.75253 3
      vertex 2.13111 6.75253 40
    endloop
  endfacet
  facet normal 0.951057 0.309017 0
    outer loop
      vertex 2.13111 6.75253 3
      vertex 2.46 5.74032 40
      vertex 2.46 5.74032 3
    endloop
  endfacet
  facet normal -0.406737 0.913545 0
    outer loop
      vertex 11 2.80385 3
      vertex 9.8541 2.29366 40
      vertex 11 2.80385 40
    endloop
  endfacet
  facet normal -0.406737 0.913545 0
    outer loop
      vertex 9.8541 2.29366 40
      vertex 11 2.80385 3
      vertex 9.8541 2.29366 3
    endloop
  endfacet
  facet normal -0.587786 0.809016 0
    outer loop
      vertex 11.27 3 3
      vertex 11 2.80385 40
      vertex 11.27 3 40
    endloop
  endfacet
  facet normal -0.587786 0.809016 0
    outer loop
      vertex 11 2.80385 40
      vertex 11.27 3 3
      vertex 11 2.80385 3
    endloop
  endfacet
  facet normal 0.406737 0.913545 -0
    outer loop
      vertex 6.1459 2.29366 3
      vertex 5.76029 2.46534 40
      vertex 6.1459 2.29366 40
    endloop
  endfacet
  facet normal 0.406737 0.913545 0
    outer loop
      vertex 5.76029 2.46534 40
      vertex 6.1459 2.29366 3
      vertex 5.76029 2.46534 3
    endloop
  endfacet
  facet normal -0.207911 0.978148 0
    outer loop
      vertex 9.8541 2.29366 3
      vertex 8.62717 2.03287 40
      vertex 9.8541 2.29366 40
    endloop
  endfacet
  facet normal -0.207911 0.978148 0
    outer loop
      vertex 8.62717 2.03287 40
      vertex 9.8541 2.29366 3
      vertex 8.62717 2.03287 3
    endloop
  endfacet
  facet normal 0.207911 0.978148 -0
    outer loop
      vertex 7.37283 2.03287 3
      vertex 6.1459 2.29366 40
      vertex 7.37283 2.03287 40
    endloop
  endfacet
  facet normal 0.207911 0.978148 0
    outer loop
      vertex 6.1459 2.29366 40
      vertex 7.37283 2.03287 3
      vertex 6.1459 2.29366 3
    endloop
  endfacet
  facet normal -0.406737 0.913545 0
    outer loop
      vertex 5.7 2.42154 3
      vertex 5.24164 2.21746 40
      vertex 5.7 2.42154 40
    endloop
  endfacet
  facet normal -0.406737 0.913545 0
    outer loop
      vertex 5.24164 2.21746 40
      vertex 5.7 2.42154 3
      vertex 5.24164 2.21746 3
    endloop
  endfacet
  facet normal 0.994522 0.104528 0
    outer loop
      vertex 2.15244 4.00101 40
      vertex 2.1 4.5 3
      vertex 2.1 4.5 40
    endloop
  endfacet
  facet normal 0.994522 0.104528 0
    outer loop
      vertex 2.1 4.5 3
      vertex 2.15244 4.00101 40
      vertex 2.15244 4.00101 3
    endloop
  endfacet
  facet normal 0.951056 -0.309017 0
    outer loop
      vertex 2.15244 4.99899 40
      vertex 2.30749 5.47617 3
      vertex 2.30749 5.47617 40
    endloop
  endfacet
  facet normal 0.951056 -0.309017 0
    outer loop
      vertex 2.30749 5.47617 3
      vertex 2.15244 4.99899 40
      vertex 2.15244 4.99899 3
    endloop
  endfacet
  facet normal 0.866025 -0.5 0
    outer loop
      vertex 2.30749 5.47617 40
      vertex 2.46 5.74032 3
      vertex 2.46 5.74032 40
    endloop
  endfacet
  facet normal 0.866025 -0.5 0
    outer loop
      vertex 2.46 5.74032 3
      vertex 2.30749 5.47617 40
      vertex 2.30749 5.47617 3
    endloop
  endfacet
  facet normal 0 1 -0
    outer loop
      vertex 4.75087 2.11315 3
      vertex 4.24913 2.11315 40
      vertex 4.75087 2.11315 40
    endloop
  endfacet
  facet normal 0 1 0
    outer loop
      vertex 4.24913 2.11315 40
      vertex 4.75087 2.11315 3
      vertex 4.24913 2.11315 3
    endloop
  endfacet
  facet normal 0.951056 0.309017 0
    outer loop
      vertex 2.30749 3.52383 40
      vertex 2.15244 4.00101 3
      vertex 2.15244 4.00101 40
    endloop
  endfacet
  facet normal 0.951056 0.309017 0
    outer loop
      vertex 2.15244 4.00101 3
      vertex 2.30749 3.52383 40
      vertex 2.30749 3.52383 3
    endloop
  endfacet
  facet normal 0.866025 0.500001 0
    outer loop
      vertex 2.55836 3.08931 40
      vertex 2.30749 3.52383 3
      vertex 2.30749 3.52383 40
    endloop
  endfacet
  facet normal 0.866025 0.500001 0
    outer loop
      vertex 2.30749 3.52383 3
      vertex 2.55836 3.08931 40
      vertex 2.55836 3.08931 3
    endloop
  endfacet
  facet normal 0.994522 -0.104528 0
    outer loop
      vertex 2.1 4.5 40
      vertex 2.15244 4.99899 3
      vertex 2.15244 4.99899 40
    endloop
  endfacet
  facet normal 0.994522 -0.104528 0
    outer loop
      vertex 2.15244 4.99899 3
      vertex 2.1 4.5 40
      vertex 2.1 4.5 3
    endloop
  endfacet
  facet normal 0.587785 0.809017 -0
    outer loop
      vertex 3.3 2.42154 3
      vertex 2.89409 2.71645 40
      vertex 3.3 2.42154 40
    endloop
  endfacet
  facet normal 0.587785 0.809017 0
    outer loop
      vertex 2.89409 2.71645 40
      vertex 3.3 2.42154 3
      vertex 2.89409 2.71645 3
    endloop
  endfacet
  facet normal 0.743145 0.66913 0
    outer loop
      vertex 2.89409 2.71645 40
      vertex 2.55836 3.08931 3
      vertex 2.55836 3.08931 40
    endloop
  endfacet
  facet normal 0.743145 0.66913 0
    outer loop
      vertex 2.55836 3.08931 3
      vertex 2.89409 2.71645 40
      vertex 2.89409 2.71645 3
    endloop
  endfacet
  facet normal -0.207911 0.978148 0
    outer loop
      vertex 5.24164 2.21746 3
      vertex 4.75087 2.11315 40
      vertex 5.24164 2.21746 40
    endloop
  endfacet
  facet normal -0.207911 0.978148 0
    outer loop
      vertex 4.75087 2.11315 40
      vertex 5.24164 2.21746 3
      vertex 4.75087 2.11315 3
    endloop
  endfacet
  facet normal 0.406737 0.913545 -0
    outer loop
      vertex 3.75836 2.21746 3
      vertex 3.3 2.42154 40
      vertex 3.75836 2.21746 40
    endloop
  endfacet
  facet normal 0.406737 0.913545 0
    outer loop
      vertex 3.3 2.42154 40
      vertex 3.75836 2.21746 3
      vertex 3.3 2.42154 3
    endloop
  endfacet
  facet normal 0.207911 0.978148 -0
    outer loop
      vertex 4.24913 2.11315 3
      vertex 3.75836 2.21746 40
      vertex 4.24913 2.11315 40
    endloop
  endfacet
  facet normal 0.207911 0.978148 0
    outer loop
      vertex 3.75836 2.21746 40
      vertex 4.24913 2.11315 3
      vertex 3.75836 2.21746 3
    endloop
  endfacet
  facet normal -0.587783 0.809018 0
    outer loop
      vertex 5.76029 2.46534 3
      vertex 5.7 2.42154 40
      vertex 5.76029 2.46534 40
    endloop
  endfacet
  facet normal -0.587783 0.809018 0
    outer loop
      vertex 5.7 2.42154 40
      vertex 5.76029 2.46534 3
      vertex 5.7 2.42154 3
    endloop
  endfacet
  facet normal -0.994522 -0.104528 0
    outer loop
      vertex 0.109262 3.96044 0
      vertex 0 5 40
      vertex 0 5 0
    endloop
  endfacet
  facet normal -0.994522 -0.104528 0
    outer loop
      vertex 0 5 40
      vertex 0.109262 3.96044 0
      vertex 0.109262 3.96044 40
    endloop
  endfacet
  facet normal -1 0 0
    outer loop
      vertex 0 5 0
      vertex 0 40 40
      vertex 0 40 0
    endloop
  endfacet
  facet normal -1 -0 0
    outer loop
      vertex 0 40 40
      vertex 0 5 0
      vertex 0 5 40
    endloop
  endfacet
  facet normal 0 0 -1
    outer loop
      vertex 40 0 0
      vertex 31 23 0
      vertex 40 40 0
    endloop
  endfacet
  facet normal 0 0 -1
    outer loop
      vertex 40 0 0
      vertex 30.7675 21.0855 0
      vertex 31 23 0
    endloop
  endfacet
  facet normal 0 0 -1
    outer loop
      vertex 40 0 0
      vertex 30.0836 19.2822 0
      vertex 30.7675 21.0855 0
    endloop
  endfacet
  facet normal 0 0 -1
    outer loop
      vertex 27.5445 16.4161 0
      vertex 40 0 0
      vertex 30 0 0
    endloop
  endfacet
  facet normal 0 0 -1
    outer loop
      vertex 40 0 0
      vertex 28.9881 17.695 0
      vertex 30.0836 19.2822 0
    endloop
  endfacet
  facet normal 0 0 -1
    outer loop
      vertex 40 0 0
      vertex 27.5445 16.4161 0
      vertex 28.9881 17.695 0
    endloop
  endfacet
  facet normal 0 0 -1
    outer loop
      vertex 30 0 0
      vertex 25.8368 15.5199 0
      vertex 27.5445 16.4161 0
    endloop
  endfacet
  facet normal 0 0 -1
    outer loop
      vertex 30 0 0
      vertex 23.9643 15.0583 0
      vertex 25.8368 15.5199 0
    endloop
  endfacet
  facet normal 0 0 -1
    outer loop
      vertex 30 0 0
      vertex 22.0357 15.0583 0
      vertex 23.9643 15.0583 0
    endloop
  endfacet
  facet normal 0 0 -1
    outer loop
      vertex 30 0 0
      vertex 20.1632 15.5199 0
      vertex 22.0357 15.0583 0
    endloop
  endfacet
  facet normal 0 0 -1
    outer loop
      vertex 4.47736 0.0273905 0
      vertex 20.1632 15.5199 0
      vertex 30 0 0
    endloop
  endfacet
  facet normal -0 0 -1
    outer loop
      vertex 20.1632 15.5199 0
      vertex 4.47736 0.0273905 0
      vertex 18.4555 16.4161 0
    endloop
  endfacet
  facet normal -0 0 -1
    outer loop
      vertex 15.9164 19.2822 0
      vertex 0 5 0
      vertex 15.2325 21.0855 0
    endloop
  endfacet
  facet normal -0 0 -1
    outer loop
      vertex 17.0119 17.695 0
      vertex 0 5 0
      vertex 15.9164 19.2822 0
    endloop
  endfacet
  facet normal 0 0 -1
    outer loop
      vertex 0 5 0
      vertex 17.0119 17.695 0
      vertex 4.47736 0.0273905 0
    endloop
  endfacet
  facet normal -0 0 -1
    outer loop
      vertex 18.4555 16.4161 0
      vertex 4.47736 0.0273905 0
      vertex 17.0119 17.695 0
    endloop
  endfacet
  facet normal 0 0 -1
    outer loop
      vertex 30.7675 24.9145 0
      vertex 40 40 0
      vertex 31 23 0
    endloop
  endfacet
  facet normal 0 0 -1
    outer loop
      vertex 30.0836 26.7178 0
      vertex 40 40 0
      vertex 30.7675 24.9145 0
    endloop
  endfacet
  facet normal 0 0 -1
    outer loop
      vertex 28.9881 28.305 0
      vertex 40 40 0
      vertex 30.0836 26.7178 0
    endloop
  endfacet
  facet normal 0 0 -1
    outer loop
      vertex 27.5445 29.5839 0
      vertex 40 40 0
      vertex 28.9881 28.305 0
    endloop
  endfacet
  facet normal 0 0 -1
    outer loop
      vertex 25.8368 30.4801 0
      vertex 40 40 0
      vertex 27.5445 29.5839 0
    endloop
  endfacet
  facet normal 0 0 -1
    outer loop
      vertex 23.9643 30.9417 0
      vertex 40 40 0
      vertex 25.8368 30.4801 0
    endloop
  endfacet
  facet normal 0 0 -1
    outer loop
      vertex 22.0357 30.9417 0
      vertex 40 40 0
      vertex 23.9643 30.9417 0
    endloop
  endfacet
  facet normal 0 0 -1
    outer loop
      vertex 0 40 0
      vertex 22.0357 30.9417 0
      vertex 20.1632 30.4801 0
    endloop
  endfacet
  facet normal -0 0 -1
    outer loop
      vertex 15.2325 21.0855 0
      vertex 0 5 0
      vertex 15 23 0
    endloop
  endfacet
  facet normal 0 0 -1
    outer loop
      vertex 0 40 0
      vertex 15 23 0
      vertex 0 5 0
    endloop
  endfacet
  facet normal 0 0 -1
    outer loop
      vertex 0 5 0
      vertex 4.47736 0.0273905 0
      vertex 3.45491 0.244717 0
    endloop
  endfacet
  facet normal 0 0 -1
    outer loop
      vertex 0 5 0
      vertex 3.45491 0.244717 0
      vertex 2.5 0.669872 0
    endloop
  endfacet
  facet normal 0 0 -1
    outer loop
      vertex 0 5 0
      vertex 2.5 0.669872 0
      vertex 1.65435 1.28428 0
    endloop
  endfacet
  facet normal 0 0 -1
    outer loop
      vertex 0 5 0
      vertex 1.65435 1.28428 0
      vertex 0.954914 2.06107 0
    endloop
  endfacet
  facet normal 0 0 -1
    outer loop
      vertex 0 5 0
      vertex 0.954914 2.06107 0
      vertex 0.432272 2.96632 0
    endloop
  endfacet
  facet normal 0 0 -1
    outer loop
      vertex 0 5 0
      vertex 0.432272 2.96632 0
      vertex 0.109262 3.96044 0
    endloop
  endfacet
  facet normal 0 0 -1
    outer loop
      vertex 15 23 0
      vertex 0 40 0
      vertex 15.2325 24.9145 0
    endloop
  endfacet
  facet normal 0 0 -1
    outer loop
      vertex 15.2325 24.9145 0
      vertex 0 40 0
      vertex 15.9164 26.7178 0
    endloop
  endfacet
  facet normal 0 0 -1
    outer loop
      vertex 22.0357 30.9417 0
      vertex 0 40 0
      vertex 40 40 0
    endloop
  endfacet
  facet normal 0 0 -1
    outer loop
      vertex 18.4555 29.5839 0
      vertex 0 40 0
      vertex 20.1632 30.4801 0
    endloop
  endfacet
  facet normal 0 0 -1
    outer loop
      vertex 17.0119 28.305 0
      vertex 0 40 0
      vertex 18.4555 29.5839 0
    endloop
  endfacet
  facet normal 0 0 -1
    outer loop
      vertex 15.9164 26.7178 0
      vertex 0 40 0
      vertex 17.0119 28.305 0
    endloop
  endfacet
  facet normal -0.587785 -0.809017 0
    outer loop
      vertex 1.65435 1.28428 0
      vertex 2.5 0.669872 40
      vertex 1.65435 1.28428 40
    endloop
  endfacet
  facet normal -0.587785 -0.809017 -0
    outer loop
      vertex 2.5 0.669872 40
      vertex 1.65435 1.28428 0
      vertex 2.5 0.669872 0
    endloop
  endfacet
  facet normal 0 -1 0
    outer loop
      vertex 30 0 0
      vertex 40 0 40
      vertex 30 0 40
    endloop
  endfacet
  facet normal 0 -1 -0
    outer loop
      vertex 40 0 40
      vertex 30 0 0
      vertex 40 0 0
    endloop
  endfacet
  facet normal -0.00107318 -0.999999 0
    outer loop
      vertex 4.47736 0.0273905 0
      vertex 30 0 40
      vertex 4.47736 0.0273905 40
    endloop
  endfacet
  facet normal -0.00107318 -0.999999 -0
    outer loop
      vertex 30 0 40
      vertex 4.47736 0.0273905 0
      vertex 30 0 0
    endloop
  endfacet
  facet normal -0.743145 -0.669131 0
    outer loop
      vertex 1.65435 1.28428 0
      vertex 0.954914 2.06107 40
      vertex 0.954914 2.06107 0
    endloop
  endfacet
  facet normal -0.743145 -0.669131 0
    outer loop
      vertex 0.954914 2.06107 40
      vertex 1.65435 1.28428 0
      vertex 1.65435 1.28428 40
    endloop
  endfacet
  facet normal -0.951057 -0.309017 0
    outer loop
      vertex 0.432272 2.96632 0
      vertex 0.109262 3.96044 40
      vertex 0.109262 3.96044 0
    endloop
  endfacet
  facet normal -0.951057 -0.309017 0
    outer loop
      vertex 0.109262 3.96044 40
      vertex 0.432272 2.96632 0
      vertex 0.432272 2.96632 40
    endloop
  endfacet
  facet normal -0.866025 -0.5 0
    outer loop
      vertex 0.954914 2.06107 0
      vertex 0.432272 2.96632 40
      vertex 0.432272 2.96632 0
    endloop
  endfacet
  facet normal -0.866025 -0.5 0
    outer loop
      vertex 0.432272 2.96632 40
      vertex 0.954914 2.06107 0
      vertex 0.954914 2.06107 40
    endloop
  endfacet
  facet normal -0.207911 -0.978148 0
    outer loop
      vertex 3.45491 0.244717 0
      vertex 4.47736 0.0273905 40
      vertex 3.45491 0.244717 40
    endloop
  endfacet
  facet normal -0.207911 -0.978148 -0
    outer loop
      vertex 4.47736 0.0273905 40
      vertex 3.45491 0.244717 0
      vertex 4.47736 0.0273905 0
    endloop
  endfacet
  facet normal -0.406737 -0.913545 0
    outer loop
      vertex 2.5 0.669872 0
      vertex 3.45491 0.244717 40
      vertex 2.5 0.669872 40
    endloop
  endfacet
  facet normal -0.406737 -0.913545 -0
    outer loop
      vertex 3.45491 0.244717 40
      vertex 2.5 0.669872 0
      vertex 3.45491 0.244717 0
    endloop
  endfacet
endsolid OpenSCAD_Model
