solid OpenSCAD_Model
  facet normal -1 0 0
    outer loop
      vertex -12 -20 -5
      vertex -12 -20 5
      vertex -12 20 -5
    endloop
  endfacet
  facet normal -1 0 0
    outer loop
      vertex -12 20 -5
      vertex -12 -20 5
      vertex -12 20 5
    endloop
  endfacet
  facet normal 0 -1 0
    outer loop
      vertex -12 -20 5
      vertex -12 -20 -5
      vertex -8 -20 -5
    endloop
  endfacet
  facet normal 0 -1 0
    outer loop
      vertex -8 -20 5
      vertex -12 -20 5
      vertex -8 -20 -5
    endloop
  endfacet
  facet normal 0 0 -1
    outer loop
      vertex -12 -20 -5
      vertex -9 -10 -5
      vertex -8 -20 -5
    endloop
  endfacet
  facet normal 0 0 -1
    outer loop
      vertex 9 17 -5
      vertex -12 20 -5
      vertex 12 20 -5
    endloop
  endfacet
  facet normal 0 0 -1
    outer loop
      vertex 9 -10 -5
      vertex 12 20 -5
      vertex 12 -20 -5
    endloop
  endfacet
  facet normal 0 0 -1
    outer loop
      vertex 8 -10 -5
      vertex 9 -10 -5
      vertex 8 -20 -5
    endloop
  endfacet
  facet normal 0 0 -1
    outer loop
      vertex 8 -20 -5
      vertex 9 -10 -5
      vertex 12 -20 -5
    endloop
  endfacet
  facet normal 0 0 -1
    outer loop
      vertex -9 17 -5
      vertex -12 20 -5
      vertex 9 17 -5
    endloop
  endfacet
  facet normal 0 0 -1
    outer loop
      vertex -8 -10 -5
      vertex -8 -20 -5
      vertex -9 -10 -5
    endloop
  endfacet
  facet normal 0 0 -1
    outer loop
      vertex -9 -10 -5
      vertex -12 20 -5
      vertex -9 17 -5
    endloop
  endfacet
  facet normal 0 0 -1
    outer loop
      vertex -12 -20 -5
      vertex -12 20 -5
      vertex -9 -10 -5
    endloop
  endfacet
  facet normal 0 0 -1
    outer loop
      vertex 9 17 -5
      vertex 12 20 -5
      vertex 9 -10 -5
    endloop
  endfacet
  facet normal 0 1 0
    outer loop
      vertex -12 20 -5
      vertex -12 20 5
      vertex 12 20 -5
    endloop
  endfacet
  facet normal 0 1 0
    outer loop
      vertex 12 20 -5
      vertex -12 20 5
      vertex 12 20 5
    endloop
  endfacet
  facet normal 0 0 1
    outer loop
      vertex -9 -10 5
      vertex -12 -20 5
      vertex -8 -20 5
    endloop
  endfacet
  facet normal 0 0 1
    outer loop
      vertex -9 -10 5
      vertex -12 20 5
      vertex -12 -20 5
    endloop
  endfacet
  facet normal 0 0 1
    outer loop
      vertex -8 -10 5
      vertex -9 -10 5
      vertex -8 -20 5
    endloop
  endfacet
  facet normal 0 0 1
    outer loop
      vertex 8 -10 5
      vertex 8 -20 5
      vertex 9 -10 5
    endloop
  endfacet
  facet normal 0 0 1
    outer loop
      vertex 9 17 5
      vertex -12 20 5
      vertex -9 17 5
    endloop
  endfacet
  facet normal 0 0 1
    outer loop
      vertex 12 20 5
      vertex -12 20 5
      vertex 9 17 5
    endloop
  endfacet
  facet normal 0 0 1
    outer loop
      vertex 12 -20 5
      vertex 9 17 5
      vertex 9 -10 5
    endloop
  endfacet
  facet normal 0 0 1
    outer loop
      vertex 12 -20 5
      vertex 9 -10 5
      vertex 8 -20 5
    endloop
  endfacet
  facet normal 0 0 1
    outer loop
      vertex 12 20 5
      vertex 9 17 5
      vertex 12 -20 5
    endloop
  endfacet
  facet normal 0 0 1
    outer loop
      vertex -9 -10 5
      vertex -9 17 5
      vertex -12 20 5
    endloop
  endfacet
  facet normal 1 0 0
    outer loop
      vertex -8 -20 5
      vertex -8 -20 -5
      vertex -8 -10 -5
    endloop
  endfacet
  facet normal 1 0 0
    outer loop
      vertex -8 -10 5
      vertex -8 -20 5
      vertex -8 -10 -5
    endloop
  endfacet
  facet normal 0 1 0
    outer loop
      vertex -9 -10 -5
      vertex -9 -10 5
      vertex -8 -10 -5
    endloop
  endfacet
  facet normal 0 1 0
    outer loop
      vertex -8 -10 -5
      vertex -9 -10 5
      vertex -8 -10 5
    endloop
  endfacet
  facet normal 1 0 0
    outer loop
      vertex -9 -10 5
      vertex -9 -10 -5
      vertex -9 17 -5
    endloop
  endfacet
  facet normal 1 0 0
    outer loop
      vertex -9 17 5
      vertex -9 -10 5
      vertex -9 17 -5
    endloop
  endfacet
  facet normal 0 -1 0
    outer loop
      vertex -9 17 5
      vertex -9 17 -5
      vertex 9 17 -5
    endloop
  endfacet
  facet normal 0 -1 0
    outer loop
      vertex 9 17 5
      vertex -9 17 5
      vertex 9 17 -5
    endloop
  endfacet
  facet normal -1 0 0
    outer loop
      vertex 9 17 5
      vertex 9 17 -5
      vertex 9 -10 5
    endloop
  endfacet
  facet normal -1 0 0
    outer loop
      vertex 9 -10 5
      vertex 9 17 -5
      vertex 9 -10 -5
    endloop
  endfacet
  facet normal 0 1 0
    outer loop
      vertex 9 -10 5
      vertex 9 -10 -5
      vertex 8 -10 5
    endloop
  endfacet
  facet normal 0 1 0
    outer loop
      vertex 8 -10 5
      vertex 9 -10 -5
      vertex 8 -10 -5
    endloop
  endfacet
  facet normal -1 0 0
    outer loop
      vertex 8 -10 5
      vertex 8 -10 -5
      vertex 8 -20 5
    endloop
  endfacet
  facet normal -1 0 0
    outer loop
      vertex 8 -20 5
      vertex 8 -10 -5
      vertex 8 -20 -5
    endloop
  endfacet
  facet normal 0 -1 0
    outer loop
      vertex 12 -20 -5
      vertex 12 -20 5
      vertex 8 -20 5
    endloop
  endfacet
  facet normal 0 -1 0
    outer loop
      vertex 8 -20 -5
      vertex 12 -20 -5
      vertex 8 -20 5
    endloop
  endfacet
  facet normal 1 0 0
    outer loop
      vertex 12 20 -5
      vertex 12 20 5
      vertex 12 -20 5
    endloop
  endfacet
  facet normal 1 0 0
    outer loop
      vertex 12 -20 -5
      vertex 12 20 -5
      vertex 12 -20 5
    endloop
  endfacet
endsolid OpenSCAD_Model
