solid OpenSCAD_Model
  facet normal -1 0 0
    outer loop
      vertex -12.5 -21.75 -5
      vertex -12.5 -21.75 5
      vertex -12.5 21.75 -5
    endloop
  endfacet
  facet normal -1 0 0
    outer loop
      vertex -12.5 21.75 -5
      vertex -12.5 -21.75 5
      vertex -12.5 21.75 5
    endloop
  endfacet
  facet normal 0 -1 0
    outer loop
      vertex -12.5 -21.75 5
      vertex -12.5 -21.75 -5
      vertex -8 -21.75 -5
    endloop
  endfacet
  facet normal 0 -1 0
    outer loop
      vertex -8 -21.75 5
      vertex -12.5 -21.75 5
      vertex -8 -21.75 -5
    endloop
  endfacet
  facet normal 0 0 -1
    outer loop
      vertex -12.5 -21.75 -5
      vertex -12.5 21.75 -5
      vertex -8 -21.75 -5
    endloop
  endfacet
  facet normal 0 0 -1
    outer loop
      vertex 9 18.25 -5
      vertex -12.5 21.75 -5
      vertex 12.5 21.75 -5
    endloop
  endfacet
  facet normal 0 0 -1
    outer loop
      vertex 8 -21.75 -5
      vertex 12.5 21.75 -5
      vertex 12.5 -21.75 -5
    endloop
  endfacet
  facet normal 0 0 -1
    outer loop
      vertex 9 -11.75 -5
      vertex 12.5 21.75 -5
      vertex 8 -21.75 -5
    endloop
  endfacet
  facet normal 0 0 -1
    outer loop
      vertex 8 -11.75 -5
      vertex 9 -11.75 -5
      vertex 8 -21.75 -5
    endloop
  endfacet
  facet normal 0 0 -1
    outer loop
      vertex -9 18.25 -5
      vertex -12.5 21.75 -5
      vertex 9 18.25 -5
    endloop
  endfacet
  facet normal 0 0 -1
    outer loop
      vertex -8 -11.75 -5
      vertex -8 -21.75 -5
      vertex -9 -11.75 -5
    endloop
  endfacet
  facet normal 0 0 -1
    outer loop
      vertex -9 -11.75 -5
      vertex -12.5 21.75 -5
      vertex -9 18.25 -5
    endloop
  endfacet
  facet normal 0 0 -1
    outer loop
      vertex -8 -21.75 -5
      vertex -12.5 21.75 -5
      vertex -9 -11.75 -5
    endloop
  endfacet
  facet normal 0 0 -1
    outer loop
      vertex 9 18.25 -5
      vertex 12.5 21.75 -5
      vertex 9 -11.75 -5
    endloop
  endfacet
  facet normal 0 1 0
    outer loop
      vertex -12.5 21.75 -5
      vertex -12.5 21.75 5
      vertex 12.5 21.75 -5
    endloop
  endfacet
  facet normal 0 1 0
    outer loop
      vertex 12.5 21.75 -5
      vertex -12.5 21.75 5
      vertex 12.5 21.75 5
    endloop
  endfacet
  facet normal 0 0 1
    outer loop
      vertex -12.5 21.75 5
      vertex -12.5 -21.75 5
      vertex -8 -21.75 5
    endloop
  endfacet
  facet normal 0 0 1
    outer loop
      vertex -9 -11.75 5
      vertex -12.5 21.75 5
      vertex -8 -21.75 5
    endloop
  endfacet
  facet normal 0 0 1
    outer loop
      vertex -8 -11.75 5
      vertex -9 -11.75 5
      vertex -8 -21.75 5
    endloop
  endfacet
  facet normal 0 0 1
    outer loop
      vertex 8 -11.75 5
      vertex 8 -21.75 5
      vertex 9 -11.75 5
    endloop
  endfacet
  facet normal 0 0 1
    outer loop
      vertex 9 18.25 5
      vertex -12.5 21.75 5
      vertex -9 18.25 5
    endloop
  endfacet
  facet normal 0 0 1
    outer loop
      vertex 12.5 21.75 5
      vertex -12.5 21.75 5
      vertex 9 18.25 5
    endloop
  endfacet
  facet normal 0 0 1
    outer loop
      vertex 12.5 -21.75 5
      vertex 9 18.25 5
      vertex 9 -11.75 5
    endloop
  endfacet
  facet normal 0 0 1
    outer loop
      vertex 12.5 -21.75 5
      vertex 9 -11.75 5
      vertex 8 -21.75 5
    endloop
  endfacet
  facet normal 0 0 1
    outer loop
      vertex 12.5 21.75 5
      vertex 9 18.25 5
      vertex 12.5 -21.75 5
    endloop
  endfacet
  facet normal 0 0 1
    outer loop
      vertex -9 -11.75 5
      vertex -9 18.25 5
      vertex -12.5 21.75 5
    endloop
  endfacet
  facet normal 1 0 0
    outer loop
      vertex -8 -21.75 5
      vertex -8 -21.75 -5
      vertex -8 -11.75 -5
    endloop
  endfacet
  facet normal 1 0 0
    outer loop
      vertex -8 -11.75 5
      vertex -8 -21.75 5
      vertex -8 -11.75 -5
    endloop
  endfacet
  facet normal 0 1 0
    outer loop
      vertex -9 -11.75 -5
      vertex -9 -11.75 5
      vertex -8 -11.75 -5
    endloop
  endfacet
  facet normal 0 1 0
    outer loop
      vertex -8 -11.75 -5
      vertex -9 -11.75 5
      vertex -8 -11.75 5
    endloop
  endfacet
  facet normal 1 0 0
    outer loop
      vertex -9 -11.75 5
      vertex -9 -11.75 -5
      vertex -9 18.25 -5
    endloop
  endfacet
  facet normal 1 0 0
    outer loop
      vertex -9 18.25 5
      vertex -9 -11.75 5
      vertex -9 18.25 -5
    endloop
  endfacet
  facet normal 0 -1 0
    outer loop
      vertex -9 18.25 5
      vertex -9 18.25 -5
      vertex 9 18.25 -5
    endloop
  endfacet
  facet normal 0 -1 0
    outer loop
      vertex 9 18.25 5
      vertex -9 18.25 5
      vertex 9 18.25 -5
    endloop
  endfacet
  facet normal -1 0 0
    outer loop
      vertex 9 18.25 5
      vertex 9 18.25 -5
      vertex 9 -11.75 5
    endloop
  endfacet
  facet normal -1 0 0
    outer loop
      vertex 9 -11.75 5
      vertex 9 18.25 -5
      vertex 9 -11.75 -5
    endloop
  endfacet
  facet normal 0 1 0
    outer loop
      vertex 9 -11.75 5
      vertex 9 -11.75 -5
      vertex 8 -11.75 5
    endloop
  endfacet
  facet normal 0 1 0
    outer loop
      vertex 8 -11.75 5
      vertex 9 -11.75 -5
      vertex 8 -11.75 -5
    endloop
  endfacet
  facet normal -1 0 0
    outer loop
      vertex 8 -11.75 5
      vertex 8 -11.75 -5
      vertex 8 -21.75 5
    endloop
  endfacet
  facet normal -1 0 0
    outer loop
      vertex 8 -21.75 5
      vertex 8 -11.75 -5
      vertex 8 -21.75 -5
    endloop
  endfacet
  facet normal 0 -1 0
    outer loop
      vertex 12.5 -21.75 -5
      vertex 12.5 -21.75 5
      vertex 8 -21.75 5
    endloop
  endfacet
  facet normal 0 -1 0
    outer loop
      vertex 8 -21.75 -5
      vertex 12.5 -21.75 -5
      vertex 8 -21.75 5
    endloop
  endfacet
  facet normal 1 0 0
    outer loop
      vertex 12.5 21.75 -5
      vertex 12.5 21.75 5
      vertex 12.5 -21.75 5
    endloop
  endfacet
  facet normal 1 0 0
    outer loop
      vertex 12.5 -21.75 -5
      vertex 12.5 21.75 -5
      vertex 12.5 -21.75 5
    endloop
  endfacet
endsolid OpenSCAD_Model
